M48
METRIC,TZ
T1C0.635
T2C0.701
T3C0.813
T4C1.016
%
G90
G05
T1
X72390Y-115697
X73152Y-99060
X73152Y-105664
X74930Y-83820
X75946Y-75311
X76581Y-74295
X77470Y-121920
X77470Y-125730
X77470Y-129540
X78486Y-74295
X78740Y-83693
X78740Y-107950
X79121Y-75311
X79883Y-84963
X79883Y-99060
X80137Y-107823
X80899Y-83566
X81280Y-104775
X83820Y-104013
X84582Y-106807
X85725Y-117729
X87630Y-104013
X88519Y-106934
X89535Y-117729
X90297Y-121158
X91440Y-103886
X92202Y-106934
T2
X65405Y-91440
X66040Y-123825
X66040Y-125095
X66040Y-126365
X66040Y-127635
X66675Y-91440
X67945Y-91440
X69215Y-91440
X85725Y-91440
X86995Y-91440
X88265Y-91440
X88900Y-123825
X88900Y-125095
X88900Y-126365
X88900Y-127635
X89535Y-91440
T3
X63500Y-77470
X63500Y-82550
X71120Y-77470
X71120Y-82550
X83820Y-77470
X83820Y-82550
X91440Y-77470
X91440Y-82550
T4
X68580Y-108039
X68580Y-112941
X75720Y-77470
X79220Y-77470
T0
M30
