G04 (created by PCBNEW-RS274X (2011-07-08)-stable) date Mo 25 Jul 2011 12:51:42 CEST*
G01*
G70*
G90*
%MOIN*%
G04 Gerber Fmt 3.4, Leading zero omitted, Abs format*
%FSLAX34Y34*%
G04 APERTURE LIST*
%ADD10C,0.006000*%
%ADD11R,0.065000X0.045000*%
%ADD12R,0.080000X0.100000*%
%ADD13R,0.100000X0.080000*%
%ADD14C,0.075000*%
%ADD15R,0.098700X0.037700*%
%ADD16R,0.037700X0.098700*%
%ADD17C,0.060000*%
%ADD18C,0.106600*%
%ADD19R,0.067200X0.197200*%
%ADD20C,0.059400*%
G04 APERTURE END LIST*
G54D10*
G54D11*
X28900Y-29050D03*
X28900Y-29650D03*
X32050Y-29050D03*
X32050Y-29650D03*
G54D12*
X29550Y-49500D03*
X28250Y-49500D03*
X29550Y-51000D03*
X28250Y-51000D03*
X29550Y-48000D03*
X28250Y-48000D03*
G54D13*
X34500Y-39650D03*
X34500Y-38350D03*
X36000Y-39650D03*
X36000Y-38350D03*
X33000Y-39650D03*
X33000Y-38350D03*
X29500Y-36850D03*
X29500Y-38150D03*
X31000Y-38150D03*
X31000Y-36850D03*
X25000Y-42650D03*
X25000Y-41350D03*
X25000Y-44350D03*
X25000Y-45650D03*
G54D14*
X33000Y-30500D03*
X33000Y-32500D03*
X36000Y-30500D03*
X36000Y-32500D03*
X25000Y-30500D03*
X25000Y-32500D03*
X28000Y-30500D03*
X28000Y-32500D03*
G54D15*
X28604Y-44593D03*
X28604Y-44278D03*
X28604Y-43963D03*
X28604Y-43648D03*
X28604Y-43333D03*
X28604Y-43018D03*
X28604Y-42703D03*
X28604Y-42388D03*
X32370Y-42390D03*
X32370Y-44600D03*
X32370Y-44280D03*
X32370Y-43960D03*
X32370Y-43650D03*
X32370Y-43330D03*
X32370Y-43020D03*
X32370Y-42700D03*
G54D16*
X29388Y-41600D03*
X29702Y-41600D03*
X30018Y-41600D03*
X30332Y-41600D03*
X30648Y-41600D03*
X30962Y-41600D03*
X31278Y-41600D03*
X31592Y-41600D03*
X29390Y-45380D03*
X29700Y-45380D03*
X30020Y-45380D03*
X30330Y-45380D03*
X30640Y-45380D03*
X30960Y-45380D03*
X31280Y-45380D03*
X31600Y-45380D03*
G54D17*
X29811Y-30500D03*
X31189Y-30500D03*
G54D18*
X27000Y-42535D03*
G54D19*
X27000Y-45311D03*
X27000Y-41689D03*
G54D18*
X27000Y-44465D03*
G54D20*
X35000Y-48750D03*
X35000Y-49250D03*
X35000Y-49750D03*
X35000Y-50250D03*
X25750Y-36000D03*
X26250Y-36000D03*
X26750Y-36000D03*
X27250Y-36000D03*
X26000Y-48750D03*
X26000Y-49250D03*
X26000Y-49750D03*
X26000Y-50250D03*
X33750Y-36000D03*
X34250Y-36000D03*
X34750Y-36000D03*
X35250Y-36000D03*
M02*
