G04 (created by PCBNEW-RS274X (2011-07-08)-stable) date Mo 25 Jul 2011 12:51:42 CEST*
G01*
G70*
G90*
%MOIN*%
G04 Gerber Fmt 3.4, Leading zero omitted, Abs format*
%FSLAX34Y34*%
G04 APERTURE LIST*
%ADD10C,0.006000*%
%ADD11C,0.012000*%
%ADD12C,0.005000*%
%ADD13C,0.008000*%
%ADD14C,0.015000*%
%ADD15C,0.004500*%
%ADD16C,0.005500*%
G04 APERTURE END LIST*
G54D10*
G54D11*
X27485Y-54324D02*
X27485Y-53524D01*
X27685Y-54095D01*
X27885Y-53524D01*
X27885Y-54324D01*
X28257Y-54324D02*
X28199Y-54286D01*
X28171Y-54248D01*
X28142Y-54171D01*
X28142Y-53943D01*
X28171Y-53867D01*
X28199Y-53829D01*
X28257Y-53790D01*
X28342Y-53790D01*
X28399Y-53829D01*
X28428Y-53867D01*
X28457Y-53943D01*
X28457Y-54171D01*
X28428Y-54248D01*
X28399Y-54286D01*
X28342Y-54324D01*
X28257Y-54324D01*
X28800Y-54324D02*
X28742Y-54286D01*
X28714Y-54248D01*
X28685Y-54171D01*
X28685Y-53943D01*
X28714Y-53867D01*
X28742Y-53829D01*
X28800Y-53790D01*
X28885Y-53790D01*
X28942Y-53829D01*
X28971Y-53867D01*
X29000Y-53943D01*
X29000Y-54171D01*
X28971Y-54248D01*
X28942Y-54286D01*
X28885Y-54324D01*
X28800Y-54324D01*
X29514Y-54324D02*
X29514Y-53524D01*
X29514Y-54286D02*
X29457Y-54324D01*
X29343Y-54324D01*
X29285Y-54286D01*
X29257Y-54248D01*
X29228Y-54171D01*
X29228Y-53943D01*
X29257Y-53867D01*
X29285Y-53829D01*
X29343Y-53790D01*
X29457Y-53790D01*
X29514Y-53829D01*
X30086Y-54324D02*
X29800Y-54324D01*
X29800Y-53524D01*
X30286Y-54324D02*
X30286Y-53790D01*
X30286Y-53524D02*
X30257Y-53562D01*
X30286Y-53600D01*
X30314Y-53562D01*
X30286Y-53524D01*
X30286Y-53600D01*
X30829Y-53790D02*
X30829Y-54438D01*
X30800Y-54514D01*
X30772Y-54552D01*
X30715Y-54590D01*
X30629Y-54590D01*
X30572Y-54552D01*
X30829Y-54286D02*
X30772Y-54324D01*
X30658Y-54324D01*
X30600Y-54286D01*
X30572Y-54248D01*
X30543Y-54171D01*
X30543Y-53943D01*
X30572Y-53867D01*
X30600Y-53829D01*
X30658Y-53790D01*
X30772Y-53790D01*
X30829Y-53829D01*
X31115Y-54324D02*
X31115Y-53524D01*
X31372Y-54324D02*
X31372Y-53905D01*
X31343Y-53829D01*
X31286Y-53790D01*
X31201Y-53790D01*
X31143Y-53829D01*
X31115Y-53867D01*
X31572Y-53790D02*
X31801Y-53790D01*
X31658Y-53524D02*
X31658Y-54210D01*
X31686Y-54286D01*
X31744Y-54324D01*
X31801Y-54324D01*
X32001Y-53524D02*
X32001Y-54171D01*
X32029Y-54248D01*
X32058Y-54286D01*
X32115Y-54324D01*
X32229Y-54324D01*
X32287Y-54286D01*
X32315Y-54248D01*
X32344Y-54171D01*
X32344Y-53524D01*
X32601Y-54286D02*
X32687Y-54324D01*
X32830Y-54324D01*
X32887Y-54286D01*
X32916Y-54248D01*
X32944Y-54171D01*
X32944Y-54095D01*
X32916Y-54019D01*
X32887Y-53981D01*
X32830Y-53943D01*
X32716Y-53905D01*
X32658Y-53867D01*
X32630Y-53829D01*
X32601Y-53752D01*
X32601Y-53676D01*
X32630Y-53600D01*
X32658Y-53562D01*
X32716Y-53524D01*
X32858Y-53524D01*
X32944Y-53562D01*
X33401Y-53905D02*
X33487Y-53943D01*
X33515Y-53981D01*
X33544Y-54057D01*
X33544Y-54171D01*
X33515Y-54248D01*
X33487Y-54286D01*
X33429Y-54324D01*
X33201Y-54324D01*
X33201Y-53524D01*
X33401Y-53524D01*
X33458Y-53562D01*
X33487Y-53600D01*
X33515Y-53676D01*
X33515Y-53752D01*
X33487Y-53829D01*
X33458Y-53867D01*
X33401Y-53905D01*
X33201Y-53905D01*
X36157Y-40062D02*
X36100Y-40024D01*
X36014Y-40024D01*
X35929Y-40062D01*
X35871Y-40138D01*
X35843Y-40214D01*
X35814Y-40367D01*
X35814Y-40481D01*
X35843Y-40633D01*
X35871Y-40710D01*
X35929Y-40786D01*
X36014Y-40824D01*
X36071Y-40824D01*
X36157Y-40786D01*
X36186Y-40748D01*
X36186Y-40481D01*
X36071Y-40481D01*
X34543Y-40405D02*
X34629Y-40443D01*
X34657Y-40481D01*
X34686Y-40557D01*
X34686Y-40671D01*
X34657Y-40748D01*
X34629Y-40786D01*
X34571Y-40824D01*
X34343Y-40824D01*
X34343Y-40024D01*
X34543Y-40024D01*
X34600Y-40062D01*
X34629Y-40100D01*
X34657Y-40176D01*
X34657Y-40252D01*
X34629Y-40329D01*
X34600Y-40367D01*
X34543Y-40405D01*
X34343Y-40405D01*
X33186Y-40824D02*
X32986Y-40443D01*
X32843Y-40824D02*
X32843Y-40024D01*
X33071Y-40024D01*
X33129Y-40062D01*
X33157Y-40100D01*
X33186Y-40176D01*
X33186Y-40290D01*
X33157Y-40367D01*
X33129Y-40405D01*
X33071Y-40443D01*
X32843Y-40443D01*
X31657Y-50562D02*
X31600Y-50524D01*
X31514Y-50524D01*
X31429Y-50562D01*
X31371Y-50638D01*
X31343Y-50714D01*
X31314Y-50867D01*
X31314Y-50981D01*
X31343Y-51133D01*
X31371Y-51210D01*
X31429Y-51286D01*
X31514Y-51324D01*
X31571Y-51324D01*
X31657Y-51286D01*
X31686Y-51248D01*
X31686Y-50981D01*
X31571Y-50981D01*
X31543Y-49405D02*
X31629Y-49443D01*
X31657Y-49481D01*
X31686Y-49557D01*
X31686Y-49671D01*
X31657Y-49748D01*
X31629Y-49786D01*
X31571Y-49824D01*
X31343Y-49824D01*
X31343Y-49024D01*
X31543Y-49024D01*
X31600Y-49062D01*
X31629Y-49100D01*
X31657Y-49176D01*
X31657Y-49252D01*
X31629Y-49329D01*
X31600Y-49367D01*
X31543Y-49405D01*
X31343Y-49405D01*
X31686Y-48324D02*
X31486Y-47943D01*
X31343Y-48324D02*
X31343Y-47524D01*
X31571Y-47524D01*
X31629Y-47562D01*
X31657Y-47600D01*
X31686Y-47676D01*
X31686Y-47790D01*
X31657Y-47867D01*
X31629Y-47905D01*
X31571Y-47943D01*
X31343Y-47943D01*
X25385Y-52214D02*
X25327Y-52176D01*
X25213Y-52176D01*
X25156Y-52214D01*
X25099Y-52290D01*
X25070Y-52367D01*
X25070Y-52519D01*
X25099Y-52595D01*
X25156Y-52671D01*
X25213Y-52710D01*
X25327Y-52710D01*
X25385Y-52671D01*
X25270Y-51910D02*
X25127Y-51948D01*
X24985Y-52062D01*
X24899Y-52252D01*
X24870Y-52443D01*
X24899Y-52633D01*
X24985Y-52824D01*
X25127Y-52938D01*
X25270Y-52976D01*
X25413Y-52938D01*
X25556Y-52824D01*
X25642Y-52633D01*
X25670Y-52443D01*
X25642Y-52252D01*
X25556Y-52062D01*
X25413Y-51948D01*
X25270Y-51910D01*
X26328Y-52900D02*
X26271Y-52862D01*
X26214Y-52786D01*
X26128Y-52671D01*
X26071Y-52633D01*
X26014Y-52633D01*
X26042Y-52824D02*
X25985Y-52786D01*
X25928Y-52710D01*
X25899Y-52557D01*
X25899Y-52290D01*
X25928Y-52138D01*
X25985Y-52062D01*
X26042Y-52024D01*
X26156Y-52024D01*
X26214Y-52062D01*
X26271Y-52138D01*
X26299Y-52290D01*
X26299Y-52557D01*
X26271Y-52710D01*
X26214Y-52786D01*
X26156Y-52824D01*
X26042Y-52824D01*
X26557Y-52519D02*
X27014Y-52519D01*
X27643Y-52824D02*
X27443Y-52443D01*
X27300Y-52824D02*
X27300Y-52024D01*
X27528Y-52024D01*
X27586Y-52062D01*
X27614Y-52100D01*
X27643Y-52176D01*
X27643Y-52290D01*
X27614Y-52367D01*
X27586Y-52405D01*
X27528Y-52443D01*
X27300Y-52443D01*
X28157Y-52824D02*
X28157Y-52405D01*
X28128Y-52329D01*
X28071Y-52290D01*
X27957Y-52290D01*
X27900Y-52329D01*
X28157Y-52786D02*
X28100Y-52824D01*
X27957Y-52824D01*
X27900Y-52786D01*
X27871Y-52710D01*
X27871Y-52633D01*
X27900Y-52557D01*
X27957Y-52519D01*
X28100Y-52519D01*
X28157Y-52481D01*
X28443Y-52824D02*
X28443Y-52290D01*
X28443Y-52024D02*
X28414Y-52062D01*
X28443Y-52100D01*
X28471Y-52062D01*
X28443Y-52024D01*
X28443Y-52100D01*
X29186Y-52519D02*
X29643Y-52519D01*
X30329Y-52290D02*
X30443Y-52824D01*
X30557Y-52443D01*
X30672Y-52824D01*
X30786Y-52290D01*
X30958Y-52290D02*
X31072Y-52824D01*
X31186Y-52443D01*
X31301Y-52824D01*
X31415Y-52290D01*
X31587Y-52290D02*
X31701Y-52824D01*
X31815Y-52443D01*
X31930Y-52824D01*
X32044Y-52290D01*
X32273Y-52748D02*
X32301Y-52786D01*
X32273Y-52824D01*
X32244Y-52786D01*
X32273Y-52748D01*
X32273Y-52824D01*
X32816Y-52290D02*
X32816Y-53090D01*
X32816Y-52786D02*
X32759Y-52824D01*
X32645Y-52824D01*
X32587Y-52786D01*
X32559Y-52748D01*
X32530Y-52671D01*
X32530Y-52443D01*
X32559Y-52367D01*
X32587Y-52329D01*
X32645Y-52290D01*
X32759Y-52290D01*
X32816Y-52329D01*
X33102Y-52519D02*
X33559Y-52519D01*
X33845Y-52824D02*
X33845Y-52290D01*
X33845Y-52443D02*
X33873Y-52367D01*
X33902Y-52329D01*
X33959Y-52290D01*
X34016Y-52290D01*
X34473Y-52824D02*
X34473Y-52405D01*
X34444Y-52329D01*
X34387Y-52290D01*
X34273Y-52290D01*
X34216Y-52329D01*
X34473Y-52786D02*
X34416Y-52824D01*
X34273Y-52824D01*
X34216Y-52786D01*
X34187Y-52710D01*
X34187Y-52633D01*
X34216Y-52557D01*
X34273Y-52519D01*
X34416Y-52519D01*
X34473Y-52481D01*
X34759Y-52824D02*
X34759Y-52290D01*
X34759Y-52024D02*
X34730Y-52062D01*
X34759Y-52100D01*
X34787Y-52062D01*
X34759Y-52024D01*
X34759Y-52100D01*
X35045Y-52748D02*
X35073Y-52786D01*
X35045Y-52824D01*
X35016Y-52786D01*
X35045Y-52748D01*
X35045Y-52824D01*
X35588Y-52824D02*
X35588Y-52024D01*
X35588Y-52786D02*
X35531Y-52824D01*
X35417Y-52824D01*
X35359Y-52786D01*
X35331Y-52748D01*
X35302Y-52671D01*
X35302Y-52443D01*
X35331Y-52367D01*
X35359Y-52329D01*
X35417Y-52290D01*
X35531Y-52290D01*
X35588Y-52329D01*
X36102Y-52786D02*
X36045Y-52824D01*
X35931Y-52824D01*
X35874Y-52786D01*
X35845Y-52710D01*
X35845Y-52405D01*
X35874Y-52329D01*
X35931Y-52290D01*
X36045Y-52290D01*
X36102Y-52329D01*
X36131Y-52405D01*
X36131Y-52481D01*
X35845Y-52557D01*
X33686Y-29824D02*
X33686Y-29024D01*
X33686Y-29405D02*
X34029Y-29405D01*
X34029Y-29824D02*
X34029Y-29024D01*
X34258Y-29024D02*
X34401Y-29824D01*
X34515Y-29252D01*
X34629Y-29824D01*
X34772Y-29024D01*
X35201Y-29405D02*
X35287Y-29443D01*
X35315Y-29481D01*
X35344Y-29557D01*
X35344Y-29671D01*
X35315Y-29748D01*
X35287Y-29786D01*
X35229Y-29824D01*
X35001Y-29824D01*
X35001Y-29024D01*
X35201Y-29024D01*
X35258Y-29062D01*
X35287Y-29100D01*
X35315Y-29176D01*
X35315Y-29252D01*
X35287Y-29329D01*
X35258Y-29367D01*
X35201Y-29405D01*
X35001Y-29405D01*
X25629Y-29824D02*
X25429Y-29443D01*
X25286Y-29824D02*
X25286Y-29024D01*
X25514Y-29024D01*
X25572Y-29062D01*
X25600Y-29100D01*
X25629Y-29176D01*
X25629Y-29290D01*
X25600Y-29367D01*
X25572Y-29405D01*
X25514Y-29443D01*
X25286Y-29443D01*
X25886Y-29405D02*
X26086Y-29405D01*
X26172Y-29824D02*
X25886Y-29824D01*
X25886Y-29024D01*
X26172Y-29024D01*
X26400Y-29786D02*
X26486Y-29824D01*
X26629Y-29824D01*
X26686Y-29786D01*
X26715Y-29748D01*
X26743Y-29671D01*
X26743Y-29595D01*
X26715Y-29519D01*
X26686Y-29481D01*
X26629Y-29443D01*
X26515Y-29405D01*
X26457Y-29367D01*
X26429Y-29329D01*
X26400Y-29252D01*
X26400Y-29176D01*
X26429Y-29100D01*
X26457Y-29062D01*
X26515Y-29024D01*
X26657Y-29024D01*
X26743Y-29062D01*
X27000Y-29405D02*
X27200Y-29405D01*
X27286Y-29824D02*
X27000Y-29824D01*
X27000Y-29024D01*
X27286Y-29024D01*
X27457Y-29024D02*
X27800Y-29024D01*
X27629Y-29824D02*
X27629Y-29024D01*
G54D12*
X29150Y-28900D02*
X29150Y-29800D01*
X29150Y-29800D02*
X28650Y-29800D01*
X28650Y-29800D02*
X28650Y-28900D01*
X28650Y-28900D02*
X29150Y-28900D01*
X32300Y-28900D02*
X32300Y-29800D01*
X32300Y-29800D02*
X31800Y-29800D01*
X31800Y-29800D02*
X31800Y-28900D01*
X31800Y-28900D02*
X32300Y-28900D01*
X29900Y-49950D02*
X29900Y-49050D01*
X29900Y-49050D02*
X29250Y-49050D01*
X28550Y-49950D02*
X27900Y-49950D01*
X27900Y-49950D02*
X27900Y-49050D01*
X27900Y-49050D02*
X28550Y-49050D01*
X29250Y-49950D02*
X29900Y-49950D01*
X29900Y-51450D02*
X29900Y-50550D01*
X29900Y-50550D02*
X29250Y-50550D01*
X28550Y-51450D02*
X27900Y-51450D01*
X27900Y-51450D02*
X27900Y-50550D01*
X27900Y-50550D02*
X28550Y-50550D01*
X29250Y-51450D02*
X29900Y-51450D01*
X29900Y-48450D02*
X29900Y-47550D01*
X29900Y-47550D02*
X29250Y-47550D01*
X28550Y-48450D02*
X27900Y-48450D01*
X27900Y-48450D02*
X27900Y-47550D01*
X27900Y-47550D02*
X28550Y-47550D01*
X29250Y-48450D02*
X29900Y-48450D01*
X34050Y-40000D02*
X34950Y-40000D01*
X34950Y-40000D02*
X34950Y-39350D01*
X34050Y-38650D02*
X34050Y-38000D01*
X34050Y-38000D02*
X34950Y-38000D01*
X34950Y-38000D02*
X34950Y-38650D01*
X34050Y-39350D02*
X34050Y-40000D01*
X35550Y-40000D02*
X36450Y-40000D01*
X36450Y-40000D02*
X36450Y-39350D01*
X35550Y-38650D02*
X35550Y-38000D01*
X35550Y-38000D02*
X36450Y-38000D01*
X36450Y-38000D02*
X36450Y-38650D01*
X35550Y-39350D02*
X35550Y-40000D01*
X32550Y-40000D02*
X33450Y-40000D01*
X33450Y-40000D02*
X33450Y-39350D01*
X32550Y-38650D02*
X32550Y-38000D01*
X32550Y-38000D02*
X33450Y-38000D01*
X33450Y-38000D02*
X33450Y-38650D01*
X32550Y-39350D02*
X32550Y-40000D01*
X29950Y-36500D02*
X29050Y-36500D01*
X29050Y-36500D02*
X29050Y-37150D01*
X29950Y-37850D02*
X29950Y-38500D01*
X29950Y-38500D02*
X29050Y-38500D01*
X29050Y-38500D02*
X29050Y-37850D01*
X29950Y-37150D02*
X29950Y-36500D01*
X30550Y-38500D02*
X31450Y-38500D01*
X31450Y-38500D02*
X31450Y-37850D01*
X30550Y-37150D02*
X30550Y-36500D01*
X30550Y-36500D02*
X31450Y-36500D01*
X31450Y-36500D02*
X31450Y-37150D01*
X30550Y-37850D02*
X30550Y-38500D01*
X24550Y-43000D02*
X25450Y-43000D01*
X25450Y-43000D02*
X25450Y-42350D01*
X24550Y-41650D02*
X24550Y-41000D01*
X24550Y-41000D02*
X25450Y-41000D01*
X25450Y-41000D02*
X25450Y-41650D01*
X24550Y-42350D02*
X24550Y-43000D01*
X25450Y-44000D02*
X24550Y-44000D01*
X24550Y-44000D02*
X24550Y-44650D01*
X25450Y-45350D02*
X25450Y-46000D01*
X25450Y-46000D02*
X24550Y-46000D01*
X24550Y-46000D02*
X24550Y-45350D01*
X25450Y-44650D02*
X25450Y-44000D01*
G54D10*
X32480Y-44590D02*
X32030Y-44590D01*
X32480Y-42410D02*
X32040Y-42410D01*
X32480Y-44590D02*
X32480Y-42410D01*
X31600Y-45060D02*
X31600Y-45490D01*
X29390Y-45070D02*
X29390Y-45490D01*
X29380Y-45490D02*
X31600Y-45500D01*
X29400Y-41520D02*
X31570Y-41510D01*
X28970Y-42210D02*
X28970Y-45040D01*
X31580Y-41520D02*
X31580Y-41930D01*
X29220Y-41970D02*
X32000Y-41970D01*
X32020Y-45050D02*
X32020Y-42010D01*
X28970Y-45050D02*
X31970Y-45050D01*
X28520Y-42380D02*
X28520Y-44600D01*
X28520Y-44600D02*
X28970Y-44600D01*
X28974Y-42200D02*
X29204Y-41970D01*
X28522Y-42380D02*
X28974Y-42380D01*
X29400Y-41970D02*
X29400Y-41518D01*
X29570Y-42374D02*
X29566Y-42410D01*
X29555Y-42445D01*
X29538Y-42478D01*
X29515Y-42506D01*
X29487Y-42529D01*
X29454Y-42547D01*
X29419Y-42558D01*
X29383Y-42561D01*
X29347Y-42558D01*
X29312Y-42548D01*
X29280Y-42531D01*
X29251Y-42508D01*
X29227Y-42480D01*
X29210Y-42448D01*
X29199Y-42413D01*
X29195Y-42376D01*
X29198Y-42341D01*
X29208Y-42305D01*
X29224Y-42273D01*
X29247Y-42244D01*
X29275Y-42220D01*
X29307Y-42202D01*
X29342Y-42191D01*
X29379Y-42187D01*
X29414Y-42189D01*
X29449Y-42199D01*
X29482Y-42216D01*
X29511Y-42238D01*
X29535Y-42266D01*
X29553Y-42298D01*
X29565Y-42333D01*
X29569Y-42369D01*
X29570Y-42374D01*
G54D13*
X27925Y-45587D02*
X27512Y-46000D01*
X27512Y-46000D02*
X27276Y-46000D01*
X26075Y-45587D02*
X26488Y-46000D01*
X26488Y-46000D02*
X26724Y-46000D01*
X27925Y-41413D02*
X27512Y-41000D01*
X27512Y-41000D02*
X27276Y-41000D01*
X26075Y-41413D02*
X26488Y-41000D01*
X26488Y-41000D02*
X26724Y-41000D01*
X26075Y-45587D02*
X26075Y-41413D01*
X27925Y-45587D02*
X27925Y-41413D01*
X27768Y-45744D02*
X27276Y-45744D01*
X26232Y-45744D02*
X26724Y-45744D01*
X26232Y-41256D02*
X26724Y-41256D01*
X27768Y-41256D02*
X27276Y-41256D01*
X27925Y-41413D02*
X27768Y-41256D01*
X27768Y-45744D02*
X27925Y-45587D01*
X26075Y-45587D02*
X26232Y-45744D01*
X26075Y-41413D02*
X26232Y-41256D01*
G54D14*
X27000Y-49500D02*
X26980Y-49694D01*
X26924Y-49881D01*
X26832Y-50053D01*
X26709Y-50204D01*
X26559Y-50329D01*
X26387Y-50421D01*
X26201Y-50479D01*
X26006Y-50499D01*
X25813Y-50482D01*
X25626Y-50427D01*
X25453Y-50336D01*
X25301Y-50214D01*
X25175Y-50064D01*
X25081Y-49893D01*
X25022Y-49707D01*
X25001Y-49513D01*
X25017Y-49320D01*
X25071Y-49132D01*
X25160Y-48959D01*
X25281Y-48806D01*
X25430Y-48679D01*
X25600Y-48584D01*
X25786Y-48524D01*
X25980Y-48501D01*
X26173Y-48516D01*
X26361Y-48568D01*
X26535Y-48656D01*
X26689Y-48776D01*
X26817Y-48924D01*
X26913Y-49094D01*
X26975Y-49279D01*
X26999Y-49473D01*
X27000Y-49500D01*
X35500Y-36000D02*
X35480Y-36194D01*
X35424Y-36381D01*
X35332Y-36553D01*
X35209Y-36704D01*
X35059Y-36829D01*
X34887Y-36921D01*
X34701Y-36979D01*
X34506Y-36999D01*
X34313Y-36982D01*
X34126Y-36927D01*
X33953Y-36836D01*
X33801Y-36714D01*
X33675Y-36564D01*
X33581Y-36393D01*
X33522Y-36207D01*
X33501Y-36013D01*
X33517Y-35820D01*
X33571Y-35632D01*
X33660Y-35459D01*
X33781Y-35306D01*
X33930Y-35179D01*
X34100Y-35084D01*
X34286Y-35024D01*
X34480Y-35001D01*
X34673Y-35016D01*
X34861Y-35068D01*
X35035Y-35156D01*
X35189Y-35276D01*
X35317Y-35424D01*
X35413Y-35594D01*
X35475Y-35779D01*
X35499Y-35973D01*
X35500Y-36000D01*
G54D15*
X28987Y-29469D02*
X29000Y-29478D01*
X29013Y-29504D01*
X29013Y-29521D01*
X29000Y-29546D01*
X28973Y-29564D01*
X28947Y-29572D01*
X28893Y-29581D01*
X28853Y-29581D01*
X28800Y-29572D01*
X28773Y-29564D01*
X28747Y-29546D01*
X28733Y-29521D01*
X28733Y-29504D01*
X28747Y-29478D01*
X28760Y-29469D01*
X29013Y-29289D02*
X28880Y-29349D01*
X29013Y-29392D02*
X28733Y-29392D01*
X28733Y-29324D01*
X28747Y-29306D01*
X28760Y-29298D01*
X28787Y-29289D01*
X28827Y-29289D01*
X28853Y-29298D01*
X28867Y-29306D01*
X28880Y-29324D01*
X28880Y-29392D01*
X28760Y-29221D02*
X28747Y-29212D01*
X28733Y-29195D01*
X28733Y-29152D01*
X28747Y-29135D01*
X28760Y-29126D01*
X28787Y-29118D01*
X28813Y-29118D01*
X28853Y-29126D01*
X29013Y-29229D01*
X29013Y-29118D01*
X32137Y-29469D02*
X32150Y-29478D01*
X32163Y-29504D01*
X32163Y-29521D01*
X32150Y-29546D01*
X32123Y-29564D01*
X32097Y-29572D01*
X32043Y-29581D01*
X32003Y-29581D01*
X31950Y-29572D01*
X31923Y-29564D01*
X31897Y-29546D01*
X31883Y-29521D01*
X31883Y-29504D01*
X31897Y-29478D01*
X31910Y-29469D01*
X32163Y-29289D02*
X32030Y-29349D01*
X32163Y-29392D02*
X31883Y-29392D01*
X31883Y-29324D01*
X31897Y-29306D01*
X31910Y-29298D01*
X31937Y-29289D01*
X31977Y-29289D01*
X32003Y-29298D01*
X32017Y-29306D01*
X32030Y-29324D01*
X32030Y-29392D01*
X32163Y-29118D02*
X32163Y-29221D01*
X32163Y-29169D02*
X31883Y-29169D01*
X31923Y-29186D01*
X31950Y-29204D01*
X31963Y-29221D01*
G54D12*
X28707Y-49621D02*
X28607Y-49479D01*
X28535Y-49621D02*
X28535Y-49321D01*
X28650Y-49321D01*
X28678Y-49336D01*
X28693Y-49350D01*
X28707Y-49379D01*
X28707Y-49421D01*
X28693Y-49450D01*
X28678Y-49464D01*
X28650Y-49479D01*
X28535Y-49479D01*
X28993Y-49621D02*
X28821Y-49621D01*
X28907Y-49621D02*
X28907Y-49321D01*
X28878Y-49364D01*
X28850Y-49393D01*
X28821Y-49407D01*
X29093Y-49321D02*
X29279Y-49321D01*
X29179Y-49436D01*
X29221Y-49436D01*
X29250Y-49450D01*
X29264Y-49464D01*
X29279Y-49493D01*
X29279Y-49564D01*
X29264Y-49593D01*
X29250Y-49607D01*
X29221Y-49621D01*
X29136Y-49621D01*
X29107Y-49607D01*
X29093Y-49593D01*
X28707Y-51121D02*
X28607Y-50979D01*
X28535Y-51121D02*
X28535Y-50821D01*
X28650Y-50821D01*
X28678Y-50836D01*
X28693Y-50850D01*
X28707Y-50879D01*
X28707Y-50921D01*
X28693Y-50950D01*
X28678Y-50964D01*
X28650Y-50979D01*
X28535Y-50979D01*
X28993Y-51121D02*
X28821Y-51121D01*
X28907Y-51121D02*
X28907Y-50821D01*
X28878Y-50864D01*
X28850Y-50893D01*
X28821Y-50907D01*
X29107Y-50850D02*
X29121Y-50836D01*
X29150Y-50821D01*
X29221Y-50821D01*
X29250Y-50836D01*
X29264Y-50850D01*
X29279Y-50879D01*
X29279Y-50907D01*
X29264Y-50950D01*
X29093Y-51121D01*
X29279Y-51121D01*
X28707Y-48121D02*
X28607Y-47979D01*
X28535Y-48121D02*
X28535Y-47821D01*
X28650Y-47821D01*
X28678Y-47836D01*
X28693Y-47850D01*
X28707Y-47879D01*
X28707Y-47921D01*
X28693Y-47950D01*
X28678Y-47964D01*
X28650Y-47979D01*
X28535Y-47979D01*
X28993Y-48121D02*
X28821Y-48121D01*
X28907Y-48121D02*
X28907Y-47821D01*
X28878Y-47864D01*
X28850Y-47893D01*
X28821Y-47907D01*
X29279Y-48121D02*
X29107Y-48121D01*
X29193Y-48121D02*
X29193Y-47821D01*
X29164Y-47864D01*
X29136Y-47893D01*
X29107Y-47907D01*
X34621Y-39193D02*
X34479Y-39293D01*
X34621Y-39365D02*
X34321Y-39365D01*
X34321Y-39250D01*
X34336Y-39222D01*
X34350Y-39207D01*
X34379Y-39193D01*
X34421Y-39193D01*
X34450Y-39207D01*
X34464Y-39222D01*
X34479Y-39250D01*
X34479Y-39365D01*
X34621Y-38907D02*
X34621Y-39079D01*
X34621Y-38993D02*
X34321Y-38993D01*
X34364Y-39022D01*
X34393Y-39050D01*
X34407Y-39079D01*
X34321Y-38721D02*
X34321Y-38693D01*
X34336Y-38664D01*
X34350Y-38650D01*
X34379Y-38636D01*
X34436Y-38621D01*
X34507Y-38621D01*
X34564Y-38636D01*
X34593Y-38650D01*
X34607Y-38664D01*
X34621Y-38693D01*
X34621Y-38721D01*
X34607Y-38750D01*
X34593Y-38764D01*
X34564Y-38779D01*
X34507Y-38793D01*
X34436Y-38793D01*
X34379Y-38779D01*
X34350Y-38764D01*
X34336Y-38750D01*
X34321Y-38721D01*
X36121Y-39050D02*
X35979Y-39150D01*
X36121Y-39222D02*
X35821Y-39222D01*
X35821Y-39107D01*
X35836Y-39079D01*
X35850Y-39064D01*
X35879Y-39050D01*
X35921Y-39050D01*
X35950Y-39064D01*
X35964Y-39079D01*
X35979Y-39107D01*
X35979Y-39222D01*
X36121Y-38907D02*
X36121Y-38850D01*
X36107Y-38822D01*
X36093Y-38807D01*
X36050Y-38779D01*
X35993Y-38764D01*
X35879Y-38764D01*
X35850Y-38779D01*
X35836Y-38793D01*
X35821Y-38822D01*
X35821Y-38879D01*
X35836Y-38907D01*
X35850Y-38922D01*
X35879Y-38936D01*
X35950Y-38936D01*
X35979Y-38922D01*
X35993Y-38907D01*
X36007Y-38879D01*
X36007Y-38822D01*
X35993Y-38793D01*
X35979Y-38779D01*
X35950Y-38764D01*
X33121Y-39050D02*
X32979Y-39150D01*
X33121Y-39222D02*
X32821Y-39222D01*
X32821Y-39107D01*
X32836Y-39079D01*
X32850Y-39064D01*
X32879Y-39050D01*
X32921Y-39050D01*
X32950Y-39064D01*
X32964Y-39079D01*
X32979Y-39107D01*
X32979Y-39222D01*
X32950Y-38879D02*
X32936Y-38907D01*
X32921Y-38922D01*
X32893Y-38936D01*
X32879Y-38936D01*
X32850Y-38922D01*
X32836Y-38907D01*
X32821Y-38879D01*
X32821Y-38822D01*
X32836Y-38793D01*
X32850Y-38779D01*
X32879Y-38764D01*
X32893Y-38764D01*
X32921Y-38779D01*
X32936Y-38793D01*
X32950Y-38822D01*
X32950Y-38879D01*
X32964Y-38907D01*
X32979Y-38922D01*
X33007Y-38936D01*
X33064Y-38936D01*
X33093Y-38922D01*
X33107Y-38907D01*
X33121Y-38879D01*
X33121Y-38822D01*
X33107Y-38793D01*
X33093Y-38779D01*
X33064Y-38764D01*
X33007Y-38764D01*
X32979Y-38779D01*
X32964Y-38793D01*
X32950Y-38822D01*
X29621Y-37550D02*
X29479Y-37650D01*
X29621Y-37722D02*
X29321Y-37722D01*
X29321Y-37607D01*
X29336Y-37579D01*
X29350Y-37564D01*
X29379Y-37550D01*
X29421Y-37550D01*
X29450Y-37564D01*
X29464Y-37579D01*
X29479Y-37607D01*
X29479Y-37722D01*
X29321Y-37450D02*
X29321Y-37264D01*
X29436Y-37364D01*
X29436Y-37322D01*
X29450Y-37293D01*
X29464Y-37279D01*
X29493Y-37264D01*
X29564Y-37264D01*
X29593Y-37279D01*
X29607Y-37293D01*
X29621Y-37322D01*
X29621Y-37407D01*
X29607Y-37436D01*
X29593Y-37450D01*
X31121Y-37550D02*
X30979Y-37650D01*
X31121Y-37722D02*
X30821Y-37722D01*
X30821Y-37607D01*
X30836Y-37579D01*
X30850Y-37564D01*
X30879Y-37550D01*
X30921Y-37550D01*
X30950Y-37564D01*
X30964Y-37579D01*
X30979Y-37607D01*
X30979Y-37722D01*
X30850Y-37436D02*
X30836Y-37422D01*
X30821Y-37393D01*
X30821Y-37322D01*
X30836Y-37293D01*
X30850Y-37279D01*
X30879Y-37264D01*
X30907Y-37264D01*
X30950Y-37279D01*
X31121Y-37450D01*
X31121Y-37264D01*
X25093Y-42050D02*
X25107Y-42064D01*
X25121Y-42107D01*
X25121Y-42136D01*
X25107Y-42179D01*
X25079Y-42207D01*
X25050Y-42222D01*
X24993Y-42236D01*
X24950Y-42236D01*
X24893Y-42222D01*
X24864Y-42207D01*
X24836Y-42179D01*
X24821Y-42136D01*
X24821Y-42107D01*
X24836Y-42064D01*
X24850Y-42050D01*
X24821Y-41950D02*
X24821Y-41750D01*
X25121Y-41879D01*
X25093Y-45050D02*
X25107Y-45064D01*
X25121Y-45107D01*
X25121Y-45136D01*
X25107Y-45179D01*
X25079Y-45207D01*
X25050Y-45222D01*
X24993Y-45236D01*
X24950Y-45236D01*
X24893Y-45222D01*
X24864Y-45207D01*
X24836Y-45179D01*
X24821Y-45136D01*
X24821Y-45107D01*
X24836Y-45064D01*
X24850Y-45050D01*
X24821Y-44950D02*
X24821Y-44764D01*
X24936Y-44864D01*
X24936Y-44822D01*
X24950Y-44793D01*
X24964Y-44779D01*
X24993Y-44764D01*
X25064Y-44764D01*
X25093Y-44779D01*
X25107Y-44793D01*
X25121Y-44822D01*
X25121Y-44907D01*
X25107Y-44936D01*
X25093Y-44950D01*
G54D13*
X30110Y-43202D02*
X30110Y-42702D01*
X30529Y-43155D02*
X30510Y-43179D01*
X30453Y-43202D01*
X30415Y-43202D01*
X30357Y-43179D01*
X30319Y-43131D01*
X30300Y-43083D01*
X30281Y-42988D01*
X30281Y-42917D01*
X30300Y-42821D01*
X30319Y-42774D01*
X30357Y-42726D01*
X30415Y-42702D01*
X30453Y-42702D01*
X30510Y-42726D01*
X30529Y-42750D01*
X30910Y-43202D02*
X30681Y-43202D01*
X30795Y-43202D02*
X30795Y-42702D01*
X30757Y-42774D01*
X30719Y-42821D01*
X30681Y-42845D01*
X28890Y-44310D02*
X29081Y-44310D01*
X28852Y-44452D02*
X28985Y-43952D01*
X29119Y-44452D01*
X29195Y-43952D02*
X29424Y-43952D01*
X29309Y-44452D02*
X29309Y-43952D01*
X29576Y-44452D02*
X29652Y-44452D01*
X29691Y-44429D01*
X29710Y-44405D01*
X29748Y-44333D01*
X29767Y-44238D01*
X29767Y-44048D01*
X29748Y-44000D01*
X29729Y-43976D01*
X29691Y-43952D01*
X29614Y-43952D01*
X29576Y-43976D01*
X29557Y-44000D01*
X29538Y-44048D01*
X29538Y-44167D01*
X29557Y-44214D01*
X29576Y-44238D01*
X29614Y-44262D01*
X29691Y-44262D01*
X29729Y-44238D01*
X29748Y-44214D01*
X29767Y-44167D01*
X30014Y-43952D02*
X30053Y-43952D01*
X30091Y-43976D01*
X30110Y-44000D01*
X30129Y-44048D01*
X30148Y-44143D01*
X30148Y-44262D01*
X30129Y-44357D01*
X30110Y-44405D01*
X30091Y-44429D01*
X30053Y-44452D01*
X30014Y-44452D01*
X29976Y-44429D01*
X29957Y-44405D01*
X29938Y-44357D01*
X29919Y-44262D01*
X29919Y-44143D01*
X29938Y-44048D01*
X29957Y-44000D01*
X29976Y-43976D01*
X30014Y-43952D01*
X30319Y-43952D02*
X30319Y-44357D01*
X30338Y-44405D01*
X30357Y-44429D01*
X30395Y-44452D01*
X30472Y-44452D01*
X30510Y-44429D01*
X30529Y-44405D01*
X30548Y-44357D01*
X30548Y-43952D01*
X30719Y-44429D02*
X30776Y-44452D01*
X30872Y-44452D01*
X30910Y-44429D01*
X30929Y-44405D01*
X30948Y-44357D01*
X30948Y-44310D01*
X30929Y-44262D01*
X30910Y-44238D01*
X30872Y-44214D01*
X30795Y-44190D01*
X30757Y-44167D01*
X30738Y-44143D01*
X30719Y-44095D01*
X30719Y-44048D01*
X30738Y-44000D01*
X30757Y-43976D01*
X30795Y-43952D01*
X30891Y-43952D01*
X30948Y-43976D01*
X31253Y-44190D02*
X31310Y-44214D01*
X31329Y-44238D01*
X31348Y-44286D01*
X31348Y-44357D01*
X31329Y-44405D01*
X31310Y-44429D01*
X31272Y-44452D01*
X31119Y-44452D01*
X31119Y-43952D01*
X31253Y-43952D01*
X31291Y-43976D01*
X31310Y-44000D01*
X31329Y-44048D01*
X31329Y-44095D01*
X31310Y-44143D01*
X31291Y-44167D01*
X31253Y-44190D01*
X31119Y-44190D01*
X31729Y-44452D02*
X31500Y-44452D01*
X31614Y-44452D02*
X31614Y-43952D01*
X31576Y-44024D01*
X31538Y-44071D01*
X31500Y-44095D01*
X32072Y-43952D02*
X31995Y-43952D01*
X31957Y-43976D01*
X31938Y-44000D01*
X31900Y-44071D01*
X31881Y-44167D01*
X31881Y-44357D01*
X31900Y-44405D01*
X31919Y-44429D01*
X31957Y-44452D01*
X32034Y-44452D01*
X32072Y-44429D01*
X32091Y-44405D01*
X32110Y-44357D01*
X32110Y-44238D01*
X32091Y-44190D01*
X32072Y-44167D01*
X32034Y-44143D01*
X31957Y-44143D01*
X31919Y-44167D01*
X31900Y-44190D01*
X31881Y-44238D01*
G54D16*
X26156Y-43679D02*
X26416Y-43532D01*
X26156Y-43532D02*
X26416Y-43679D01*
X26416Y-43332D02*
X26416Y-43458D01*
X26416Y-43395D02*
X26156Y-43395D01*
X26193Y-43416D01*
X26218Y-43437D01*
X26231Y-43458D01*
G54D11*
X27743Y-50171D02*
X27743Y-50457D01*
X27143Y-50457D01*
X27429Y-49971D02*
X27429Y-49771D01*
X27743Y-49685D02*
X27743Y-49971D01*
X27143Y-49971D01*
X27143Y-49685D01*
X27743Y-49428D02*
X27143Y-49428D01*
X27143Y-49285D01*
X27171Y-49200D01*
X27229Y-49142D01*
X27286Y-49114D01*
X27400Y-49085D01*
X27486Y-49085D01*
X27600Y-49114D01*
X27657Y-49142D01*
X27714Y-49200D01*
X27743Y-49285D01*
X27743Y-49428D01*
X27200Y-48857D02*
X27171Y-48828D01*
X27143Y-48771D01*
X27143Y-48628D01*
X27171Y-48571D01*
X27200Y-48542D01*
X27257Y-48514D01*
X27314Y-48514D01*
X27400Y-48542D01*
X27743Y-48885D01*
X27743Y-48514D01*
X24743Y-51314D02*
X24743Y-51600D01*
X24143Y-51600D01*
X24429Y-51114D02*
X24429Y-50914D01*
X24743Y-50828D02*
X24743Y-51114D01*
X24143Y-51114D01*
X24143Y-50828D01*
X24743Y-50571D02*
X24143Y-50571D01*
X24143Y-50428D01*
X24171Y-50343D01*
X24229Y-50285D01*
X24286Y-50257D01*
X24400Y-50228D01*
X24486Y-50228D01*
X24600Y-50257D01*
X24657Y-50285D01*
X24714Y-50343D01*
X24743Y-50428D01*
X24743Y-50571D01*
X24800Y-50114D02*
X24800Y-49657D01*
X24743Y-49171D02*
X24457Y-49371D01*
X24743Y-49514D02*
X24143Y-49514D01*
X24143Y-49286D01*
X24171Y-49228D01*
X24200Y-49200D01*
X24257Y-49171D01*
X24343Y-49171D01*
X24400Y-49200D01*
X24429Y-49228D01*
X24457Y-49286D01*
X24457Y-49514D01*
X24686Y-48571D02*
X24714Y-48600D01*
X24743Y-48686D01*
X24743Y-48743D01*
X24714Y-48828D01*
X24657Y-48886D01*
X24600Y-48914D01*
X24486Y-48943D01*
X24400Y-48943D01*
X24286Y-48914D01*
X24229Y-48886D01*
X24171Y-48828D01*
X24143Y-48743D01*
X24143Y-48686D01*
X24171Y-48600D01*
X24200Y-48571D01*
X24429Y-48114D02*
X24457Y-48028D01*
X24486Y-48000D01*
X24543Y-47971D01*
X24629Y-47971D01*
X24686Y-48000D01*
X24714Y-48028D01*
X24743Y-48086D01*
X24743Y-48314D01*
X24143Y-48314D01*
X24143Y-48114D01*
X24171Y-48057D01*
X24200Y-48028D01*
X24257Y-48000D01*
X24314Y-48000D01*
X24371Y-48028D01*
X24400Y-48057D01*
X24429Y-48114D01*
X24429Y-48314D01*
X24171Y-47400D02*
X24143Y-47457D01*
X24143Y-47543D01*
X24171Y-47628D01*
X24229Y-47686D01*
X24286Y-47714D01*
X24400Y-47743D01*
X24486Y-47743D01*
X24600Y-47714D01*
X24657Y-47686D01*
X24714Y-47628D01*
X24743Y-47543D01*
X24743Y-47486D01*
X24714Y-47400D01*
X24686Y-47371D01*
X24486Y-47371D01*
X24486Y-47486D01*
X33829Y-34743D02*
X33543Y-34743D01*
X33543Y-34143D01*
X34029Y-34429D02*
X34229Y-34429D01*
X34315Y-34743D02*
X34029Y-34743D01*
X34029Y-34143D01*
X34315Y-34143D01*
X34572Y-34743D02*
X34572Y-34143D01*
X34715Y-34143D01*
X34800Y-34171D01*
X34858Y-34229D01*
X34886Y-34286D01*
X34915Y-34400D01*
X34915Y-34486D01*
X34886Y-34600D01*
X34858Y-34657D01*
X34800Y-34714D01*
X34715Y-34743D01*
X34572Y-34743D01*
X35486Y-34743D02*
X35143Y-34743D01*
X35315Y-34743D02*
X35315Y-34143D01*
X35258Y-34229D01*
X35200Y-34286D01*
X35143Y-34314D01*
X32686Y-37743D02*
X32400Y-37743D01*
X32400Y-37143D01*
X32886Y-37429D02*
X33086Y-37429D01*
X33172Y-37743D02*
X32886Y-37743D01*
X32886Y-37143D01*
X33172Y-37143D01*
X33429Y-37743D02*
X33429Y-37143D01*
X33572Y-37143D01*
X33657Y-37171D01*
X33715Y-37229D01*
X33743Y-37286D01*
X33772Y-37400D01*
X33772Y-37486D01*
X33743Y-37600D01*
X33715Y-37657D01*
X33657Y-37714D01*
X33572Y-37743D01*
X33429Y-37743D01*
X33886Y-37800D02*
X34343Y-37800D01*
X34829Y-37743D02*
X34629Y-37457D01*
X34486Y-37743D02*
X34486Y-37143D01*
X34714Y-37143D01*
X34772Y-37171D01*
X34800Y-37200D01*
X34829Y-37257D01*
X34829Y-37343D01*
X34800Y-37400D01*
X34772Y-37429D01*
X34714Y-37457D01*
X34486Y-37457D01*
X35429Y-37686D02*
X35400Y-37714D01*
X35314Y-37743D01*
X35257Y-37743D01*
X35172Y-37714D01*
X35114Y-37657D01*
X35086Y-37600D01*
X35057Y-37486D01*
X35057Y-37400D01*
X35086Y-37286D01*
X35114Y-37229D01*
X35172Y-37171D01*
X35257Y-37143D01*
X35314Y-37143D01*
X35400Y-37171D01*
X35429Y-37200D01*
X35886Y-37429D02*
X35972Y-37457D01*
X36000Y-37486D01*
X36029Y-37543D01*
X36029Y-37629D01*
X36000Y-37686D01*
X35972Y-37714D01*
X35914Y-37743D01*
X35686Y-37743D01*
X35686Y-37143D01*
X35886Y-37143D01*
X35943Y-37171D01*
X35972Y-37200D01*
X36000Y-37257D01*
X36000Y-37314D01*
X35972Y-37371D01*
X35943Y-37400D01*
X35886Y-37429D01*
X35686Y-37429D01*
X36600Y-37171D02*
X36543Y-37143D01*
X36457Y-37143D01*
X36372Y-37171D01*
X36314Y-37229D01*
X36286Y-37286D01*
X36257Y-37400D01*
X36257Y-37486D01*
X36286Y-37600D01*
X36314Y-37657D01*
X36372Y-37714D01*
X36457Y-37743D01*
X36514Y-37743D01*
X36600Y-37714D01*
X36629Y-37686D01*
X36629Y-37486D01*
X36514Y-37486D01*
M02*
