G04 (created by PCBNEW-RS274X (2011-05-25)-stable) date Wed 28 Mar 2012 01:03:15 CEST*
G01*
G70*
G90*
%MOIN*%
G04 Gerber Fmt 3.4, Leading zero omitted, Abs format*
%FSLAX34Y34*%
G04 APERTURE LIST*
%ADD10C,0.006000*%
%ADD11R,0.080000X0.060000*%
%ADD12R,0.060000X0.080000*%
%ADD13R,0.036000X0.036000*%
%ADD14C,0.055000*%
%ADD15R,0.017700X0.078700*%
%ADD16R,0.078700X0.017700*%
%ADD17C,0.040000*%
%ADD18R,0.035400X0.059100*%
%ADD19C,0.035000*%
%ADD20C,0.011800*%
%ADD21C,0.010000*%
G04 APERTURE END LIST*
G54D10*
G54D11*
X31600Y-39350D03*
X31600Y-40650D03*
X30400Y-39350D03*
X30400Y-40650D03*
X29200Y-39350D03*
X29200Y-40650D03*
X30050Y-32550D03*
X30050Y-33850D03*
X31250Y-33850D03*
X31250Y-32550D03*
X25450Y-31400D03*
X25450Y-30100D03*
X28900Y-32700D03*
X28900Y-31400D03*
G54D12*
X30000Y-35400D03*
X31300Y-35400D03*
G54D11*
X26600Y-31400D03*
X26600Y-30100D03*
X27750Y-31400D03*
X27750Y-30100D03*
G54D13*
X32200Y-43000D03*
X31500Y-43000D03*
X31850Y-42200D03*
X30750Y-43000D03*
X30050Y-43000D03*
X30400Y-42200D03*
X29300Y-43000D03*
X28600Y-43000D03*
X28950Y-42200D03*
G54D14*
X29350Y-54100D03*
X29350Y-52100D03*
X26350Y-54100D03*
X26350Y-52100D03*
X34650Y-54100D03*
X34650Y-52100D03*
X31650Y-54100D03*
X31650Y-52100D03*
G54D15*
X25907Y-32704D03*
X26222Y-32704D03*
X26537Y-32704D03*
X26852Y-32704D03*
X27167Y-32704D03*
X27482Y-32704D03*
X27797Y-32704D03*
X28112Y-32704D03*
X28110Y-36470D03*
X25900Y-36470D03*
X26220Y-36470D03*
X26540Y-36470D03*
X26850Y-36470D03*
X27170Y-36470D03*
X27480Y-36470D03*
X27800Y-36470D03*
G54D16*
X28900Y-33488D03*
X28900Y-33802D03*
X28900Y-34118D03*
X28900Y-34432D03*
X28900Y-34748D03*
X28900Y-35062D03*
X28900Y-35378D03*
X28900Y-35692D03*
X25120Y-33490D03*
X25120Y-33800D03*
X25120Y-34120D03*
X25120Y-34430D03*
X25120Y-34740D03*
X25120Y-35060D03*
X25120Y-35380D03*
X25120Y-35700D03*
G54D17*
X29811Y-30500D03*
X31189Y-30500D03*
G54D11*
X25800Y-45550D03*
X25800Y-46850D03*
X28200Y-45550D03*
X28200Y-46850D03*
X27000Y-45550D03*
X27000Y-46850D03*
X35200Y-40650D03*
X35200Y-39350D03*
X32800Y-40650D03*
X32800Y-39350D03*
X34000Y-40650D03*
X34000Y-39350D03*
G54D13*
X30850Y-29750D03*
X30150Y-29750D03*
X30500Y-28950D03*
G54D18*
X34630Y-36166D03*
X34000Y-36166D03*
X33370Y-36166D03*
X33370Y-38134D03*
X34000Y-38134D03*
X34630Y-38134D03*
X26370Y-50034D03*
X27000Y-50034D03*
X27630Y-50034D03*
X27630Y-48066D03*
X27000Y-48066D03*
X26370Y-48066D03*
G54D19*
X32200Y-43700D03*
X31850Y-44950D03*
X35200Y-41950D03*
X25800Y-41950D03*
X30750Y-44150D03*
X32800Y-41950D03*
X27750Y-41950D03*
X29300Y-44550D03*
X34000Y-41950D03*
X27000Y-41950D03*
X34000Y-35100D03*
X27650Y-35250D03*
X28900Y-31400D03*
X31350Y-29150D03*
X28950Y-36450D03*
X26000Y-34750D03*
X29550Y-29550D03*
X31500Y-30050D03*
X32000Y-41550D03*
X29450Y-41500D03*
X31000Y-41550D03*
X27700Y-33900D03*
G54D20*
X32200Y-43700D02*
X32200Y-43000D01*
X31850Y-44950D02*
X34700Y-44950D01*
X35200Y-44450D02*
X35200Y-41950D01*
X34700Y-44950D02*
X35200Y-44450D01*
X31850Y-44950D02*
X31850Y-44950D01*
X35200Y-40650D02*
X35200Y-41950D01*
X25800Y-41950D02*
X25800Y-45550D01*
X30750Y-44150D02*
X32350Y-44150D01*
X32800Y-43700D02*
X32800Y-41950D01*
X32350Y-44150D02*
X32800Y-43700D01*
X30750Y-44150D02*
X30750Y-43000D01*
X32800Y-40650D02*
X32800Y-41950D01*
X28200Y-45350D02*
X28200Y-45550D01*
X27750Y-41950D02*
X27750Y-44900D01*
X27750Y-44900D02*
X28200Y-45350D01*
X31600Y-39350D02*
X31600Y-38392D01*
X31600Y-38392D02*
X28900Y-35692D01*
X30400Y-39350D02*
X30400Y-38650D01*
X27800Y-37150D02*
X27800Y-36470D01*
X28550Y-37900D02*
X27800Y-37150D01*
X29650Y-37900D02*
X28550Y-37900D01*
X30400Y-38650D02*
X29650Y-37900D01*
X27170Y-36470D02*
X27170Y-36970D01*
X29200Y-38600D02*
X29200Y-39350D01*
X28800Y-38200D02*
X29200Y-38600D01*
X28400Y-38200D02*
X28800Y-38200D01*
X27170Y-36970D02*
X28400Y-38200D01*
X29300Y-44550D02*
X29300Y-43000D01*
X34000Y-44150D02*
X34000Y-41950D01*
X33600Y-44550D02*
X34000Y-44150D01*
X29300Y-44550D02*
X33600Y-44550D01*
X34000Y-41950D02*
X34000Y-40650D01*
X27000Y-41950D02*
X27000Y-45550D01*
X34000Y-36166D02*
X34000Y-35100D01*
X28900Y-34748D02*
X28152Y-34748D01*
X28152Y-34748D02*
X27650Y-35250D01*
X30500Y-28950D02*
X31150Y-28950D01*
X31150Y-28950D02*
X31350Y-29150D01*
X27482Y-32704D02*
X27482Y-32168D01*
X27482Y-32168D02*
X27650Y-32000D01*
X29500Y-34750D02*
X28902Y-34750D01*
X28902Y-34750D02*
X28900Y-34748D01*
X32800Y-39350D02*
X32800Y-38704D01*
X32800Y-38704D02*
X33370Y-38134D01*
X35200Y-39350D02*
X35200Y-38704D01*
X35200Y-38704D02*
X34630Y-38134D01*
X34000Y-39350D02*
X34000Y-38134D01*
X28900Y-35062D02*
X29962Y-35062D01*
X29962Y-35062D02*
X30000Y-35400D01*
X30400Y-40650D02*
X30400Y-41350D01*
X29900Y-42850D02*
X30050Y-43000D01*
X29900Y-41850D02*
X29900Y-42850D01*
X30400Y-41350D02*
X29900Y-41850D01*
X28110Y-36470D02*
X28930Y-36470D01*
X28930Y-36470D02*
X28950Y-36450D01*
X31500Y-43000D02*
X31500Y-42700D01*
X31600Y-41350D02*
X31600Y-40650D01*
X31350Y-41600D02*
X31600Y-41350D01*
X31350Y-42550D02*
X31350Y-41600D01*
X31500Y-42700D02*
X31350Y-42550D01*
X29200Y-40650D02*
X29200Y-41100D01*
X28450Y-42850D02*
X28600Y-43000D01*
X28450Y-41850D02*
X28450Y-42850D01*
X29200Y-41100D02*
X28450Y-41850D01*
X28900Y-34432D02*
X30818Y-34432D01*
X31250Y-34000D02*
X31250Y-33850D01*
X30818Y-34432D02*
X31250Y-34000D01*
X28900Y-34118D02*
X29782Y-34118D01*
X29782Y-34118D02*
X30050Y-33850D01*
X25990Y-34740D02*
X25120Y-34740D01*
X26000Y-34750D02*
X25990Y-34740D01*
X30150Y-29750D02*
X30150Y-30300D01*
X30300Y-32300D02*
X30050Y-32550D01*
X30300Y-30450D02*
X30300Y-32300D01*
X30150Y-30300D02*
X30300Y-30450D01*
X29750Y-29750D02*
X30150Y-29750D01*
X29550Y-29550D02*
X29750Y-29750D01*
X30850Y-29750D02*
X30850Y-30300D01*
X30800Y-32100D02*
X31250Y-32550D01*
X30800Y-30350D02*
X30800Y-32100D01*
X30850Y-30300D02*
X30800Y-30350D01*
X31200Y-29750D02*
X30850Y-29750D01*
X31500Y-30050D02*
X31200Y-29750D01*
X25800Y-46850D02*
X25800Y-47496D01*
X25800Y-47496D02*
X26370Y-48066D01*
X27000Y-46850D02*
X27000Y-48066D01*
X28200Y-46850D02*
X28200Y-47496D01*
X28200Y-47496D02*
X27630Y-48066D01*
X31850Y-41700D02*
X31850Y-42200D01*
X32000Y-41550D02*
X31850Y-41700D01*
X28950Y-42000D02*
X28950Y-42200D01*
X29450Y-41500D02*
X28950Y-42000D01*
X30400Y-42150D02*
X30400Y-42200D01*
X31000Y-41550D02*
X30400Y-42150D01*
X27167Y-32704D02*
X27167Y-33367D01*
X27167Y-33367D02*
X27700Y-33900D01*
X28900Y-32700D02*
X27700Y-33900D01*
X26600Y-31400D02*
X25450Y-31400D01*
X27167Y-31967D02*
X27183Y-31967D01*
X27183Y-31967D02*
X27750Y-31400D01*
X27167Y-32704D02*
X27167Y-31967D01*
X27167Y-31967D02*
X26600Y-31400D01*
X28900Y-33802D02*
X28900Y-33488D01*
X28900Y-33488D02*
X28900Y-32700D01*
G54D21*
X26064Y-33337D02*
X26064Y-33337D01*
X26379Y-33337D02*
X26379Y-33337D01*
X26694Y-33337D02*
X26694Y-33337D01*
X25762Y-33417D02*
X26869Y-33417D01*
X25762Y-33497D02*
X26891Y-33497D01*
X25762Y-33577D02*
X26944Y-33577D01*
X25759Y-33657D02*
X27021Y-33657D01*
X25762Y-33737D02*
X27101Y-33737D01*
X25762Y-33817D02*
X27181Y-33817D01*
X28219Y-33817D02*
X28258Y-33817D01*
X25762Y-33897D02*
X27261Y-33897D01*
X28139Y-33897D02*
X28258Y-33897D01*
X25759Y-33977D02*
X27275Y-33977D01*
X28125Y-33977D02*
X28259Y-33977D01*
X25762Y-34057D02*
X27305Y-34057D01*
X28095Y-34057D02*
X28258Y-34057D01*
X25762Y-34137D02*
X27338Y-34137D01*
X28062Y-34137D02*
X28258Y-34137D01*
X25762Y-34217D02*
X27416Y-34217D01*
X27984Y-34217D02*
X28258Y-34217D01*
X25762Y-34297D02*
X27548Y-34297D01*
X27853Y-34297D02*
X28258Y-34297D01*
X25762Y-34377D02*
X25788Y-34377D01*
X26209Y-34377D02*
X28258Y-34377D01*
X26308Y-34457D02*
X28258Y-34457D01*
X26372Y-34537D02*
X28258Y-34537D01*
X26404Y-34617D02*
X28257Y-34617D01*
X26425Y-34697D02*
X28312Y-34697D01*
X26425Y-34777D02*
X28352Y-34777D01*
X26416Y-34857D02*
X28258Y-34857D01*
X26383Y-34937D02*
X28258Y-34937D01*
X26334Y-35017D02*
X28258Y-35017D01*
X26254Y-35097D02*
X28258Y-35097D01*
X25762Y-35177D02*
X28258Y-35177D01*
X25762Y-35257D02*
X28258Y-35257D01*
X25762Y-35337D02*
X28258Y-35337D01*
X25762Y-35417D02*
X28258Y-35417D01*
X25762Y-35497D02*
X28258Y-35497D01*
X25762Y-35577D02*
X28258Y-35577D01*
X25762Y-35657D02*
X28258Y-35657D01*
X25762Y-35737D02*
X28258Y-35737D01*
X25762Y-35817D02*
X28258Y-35817D01*
X24325Y-27825D02*
X24675Y-27825D01*
X36325Y-27825D02*
X36675Y-27825D01*
X24325Y-27905D02*
X24675Y-27905D01*
X36325Y-27905D02*
X36675Y-27905D01*
X24325Y-27985D02*
X24675Y-27985D01*
X36325Y-27985D02*
X36675Y-27985D01*
X24325Y-28065D02*
X24675Y-28065D01*
X36325Y-28065D02*
X36675Y-28065D01*
X24325Y-28145D02*
X24675Y-28145D01*
X36325Y-28145D02*
X36675Y-28145D01*
X24325Y-28225D02*
X24675Y-28225D01*
X36325Y-28225D02*
X36675Y-28225D01*
X24325Y-28305D02*
X24675Y-28305D01*
X36325Y-28305D02*
X36675Y-28305D01*
X24325Y-28385D02*
X24675Y-28385D01*
X36325Y-28385D02*
X36675Y-28385D01*
X24325Y-28465D02*
X24675Y-28465D01*
X36325Y-28465D02*
X36675Y-28465D01*
X24325Y-28545D02*
X24685Y-28545D01*
X36316Y-28545D02*
X36675Y-28545D01*
X24325Y-28625D02*
X24700Y-28625D01*
X36300Y-28625D02*
X36675Y-28625D01*
X24325Y-28705D02*
X24700Y-28705D01*
X36300Y-28705D02*
X36675Y-28705D01*
X24325Y-28785D02*
X24700Y-28785D01*
X36300Y-28785D02*
X36675Y-28785D01*
X24325Y-28865D02*
X30097Y-28865D01*
X30903Y-28865D02*
X36675Y-28865D01*
X24325Y-28945D02*
X36675Y-28945D01*
X24325Y-29025D02*
X30107Y-29025D01*
X30450Y-29025D02*
X30550Y-29025D01*
X30893Y-29025D02*
X36675Y-29025D01*
X24325Y-29105D02*
X30071Y-29105D01*
X30450Y-29105D02*
X30550Y-29105D01*
X30929Y-29105D02*
X36675Y-29105D01*
X24325Y-29185D02*
X29319Y-29185D01*
X29779Y-29185D02*
X30074Y-29185D01*
X30450Y-29185D02*
X30550Y-29185D01*
X30927Y-29185D02*
X36675Y-29185D01*
X24325Y-29265D02*
X29234Y-29265D01*
X29866Y-29265D02*
X30107Y-29265D01*
X30450Y-29265D02*
X30550Y-29265D01*
X30894Y-29265D02*
X36675Y-29265D01*
X24325Y-29345D02*
X29175Y-29345D01*
X30438Y-29345D02*
X30560Y-29345D01*
X31137Y-29345D02*
X36675Y-29345D01*
X24325Y-29425D02*
X29141Y-29425D01*
X31237Y-29425D02*
X36675Y-29425D01*
X24325Y-29505D02*
X29125Y-29505D01*
X31377Y-29505D02*
X36675Y-29505D01*
X24325Y-29585D02*
X24918Y-29585D01*
X25373Y-29585D02*
X25527Y-29585D01*
X25981Y-29585D02*
X26068Y-29585D01*
X26523Y-29585D02*
X26677Y-29585D01*
X27131Y-29585D02*
X27218Y-29585D01*
X27673Y-29585D02*
X27827Y-29585D01*
X28281Y-29585D02*
X29125Y-29585D01*
X31471Y-29585D02*
X36675Y-29585D01*
X24325Y-29665D02*
X24836Y-29665D01*
X25400Y-29665D02*
X25500Y-29665D01*
X26550Y-29665D02*
X26650Y-29665D01*
X27700Y-29665D02*
X27800Y-29665D01*
X28363Y-29665D02*
X29138Y-29665D01*
X31681Y-29665D02*
X36675Y-29665D01*
X24325Y-29745D02*
X24803Y-29745D01*
X25400Y-29745D02*
X25500Y-29745D01*
X26550Y-29745D02*
X26650Y-29745D01*
X27700Y-29745D02*
X27800Y-29745D01*
X28396Y-29745D02*
X29171Y-29745D01*
X31796Y-29745D02*
X36675Y-29745D01*
X24325Y-29825D02*
X24800Y-29825D01*
X25400Y-29825D02*
X25500Y-29825D01*
X26550Y-29825D02*
X26650Y-29825D01*
X27700Y-29825D02*
X27800Y-29825D01*
X28399Y-29825D02*
X29224Y-29825D01*
X31867Y-29825D02*
X36675Y-29825D01*
X24325Y-29905D02*
X24800Y-29905D01*
X25400Y-29905D02*
X25500Y-29905D01*
X26550Y-29905D02*
X26650Y-29905D01*
X27700Y-29905D02*
X27800Y-29905D01*
X28399Y-29905D02*
X29304Y-29905D01*
X31899Y-29905D02*
X36675Y-29905D01*
X24325Y-29985D02*
X24800Y-29985D01*
X25400Y-29985D02*
X25500Y-29985D01*
X26550Y-29985D02*
X26650Y-29985D01*
X27700Y-29985D02*
X27800Y-29985D01*
X28399Y-29985D02*
X29558Y-29985D01*
X31925Y-29985D02*
X36675Y-29985D01*
X24325Y-30065D02*
X25400Y-30065D01*
X25400Y-30065D02*
X26550Y-30065D01*
X26550Y-30065D02*
X27700Y-30065D01*
X27700Y-30065D02*
X28400Y-30065D01*
X28400Y-30065D02*
X29686Y-30065D01*
X31925Y-30065D02*
X36675Y-30065D01*
X24325Y-30145D02*
X25400Y-30145D01*
X25400Y-30145D02*
X26550Y-30145D01*
X26550Y-30145D02*
X27700Y-30145D01*
X27700Y-30145D02*
X28400Y-30145D01*
X28400Y-30145D02*
X29531Y-30145D01*
X31921Y-30145D02*
X36675Y-30145D01*
X24325Y-30225D02*
X24801Y-30225D01*
X25400Y-30225D02*
X25500Y-30225D01*
X26550Y-30225D02*
X26650Y-30225D01*
X27700Y-30225D02*
X27800Y-30225D01*
X28400Y-30225D02*
X28400Y-30225D01*
X28400Y-30225D02*
X29451Y-30225D01*
X31888Y-30225D02*
X36675Y-30225D01*
X24325Y-30305D02*
X24801Y-30305D01*
X25400Y-30305D02*
X25500Y-30305D01*
X26550Y-30305D02*
X26650Y-30305D01*
X27700Y-30305D02*
X27800Y-30305D01*
X28400Y-30305D02*
X28400Y-30305D01*
X28400Y-30305D02*
X29405Y-30305D01*
X31846Y-30305D02*
X36675Y-30305D01*
X24325Y-30385D02*
X24801Y-30385D01*
X25400Y-30385D02*
X25500Y-30385D01*
X26550Y-30385D02*
X26650Y-30385D01*
X27700Y-30385D02*
X27800Y-30385D01*
X28400Y-30385D02*
X28400Y-30385D01*
X28400Y-30385D02*
X29372Y-30385D01*
X31766Y-30385D02*
X36675Y-30385D01*
X24325Y-30465D02*
X24808Y-30465D01*
X25400Y-30465D02*
X25500Y-30465D01*
X26550Y-30465D02*
X26650Y-30465D01*
X27700Y-30465D02*
X27800Y-30465D01*
X28393Y-30465D02*
X28400Y-30465D01*
X28400Y-30465D02*
X29362Y-30465D01*
X31638Y-30465D02*
X36675Y-30465D01*
X24325Y-30545D02*
X24843Y-30545D01*
X25400Y-30545D02*
X25500Y-30545D01*
X26550Y-30545D02*
X26650Y-30545D01*
X27700Y-30545D02*
X27800Y-30545D01*
X28357Y-30545D02*
X28400Y-30545D01*
X28400Y-30545D02*
X29362Y-30545D01*
X31638Y-30545D02*
X36675Y-30545D01*
X24325Y-30625D02*
X24943Y-30625D01*
X25363Y-30625D02*
X25400Y-30625D01*
X25400Y-30625D02*
X25537Y-30625D01*
X25958Y-30625D02*
X26093Y-30625D01*
X26513Y-30625D02*
X26550Y-30625D01*
X26550Y-30625D02*
X26687Y-30625D01*
X27108Y-30625D02*
X27243Y-30625D01*
X27663Y-30625D02*
X27700Y-30625D01*
X27700Y-30625D02*
X27837Y-30625D01*
X28258Y-30625D02*
X28400Y-30625D01*
X28400Y-30625D02*
X29377Y-30625D01*
X31624Y-30625D02*
X36675Y-30625D01*
X24325Y-30705D02*
X25400Y-30705D01*
X25400Y-30705D02*
X26550Y-30705D01*
X26550Y-30705D02*
X27700Y-30705D01*
X27700Y-30705D02*
X28400Y-30705D01*
X28400Y-30705D02*
X29410Y-30705D01*
X31590Y-30705D02*
X36675Y-30705D01*
X24325Y-30785D02*
X25400Y-30785D01*
X25400Y-30785D02*
X26550Y-30785D01*
X26550Y-30785D02*
X27700Y-30785D01*
X27700Y-30785D02*
X28400Y-30785D01*
X28400Y-30785D02*
X29461Y-30785D01*
X31539Y-30785D02*
X36675Y-30785D01*
X24325Y-30865D02*
X24967Y-30865D01*
X25933Y-30865D02*
X26117Y-30865D01*
X27083Y-30865D02*
X27267Y-30865D01*
X28233Y-30865D02*
X28400Y-30865D01*
X28400Y-30865D02*
X28415Y-30865D01*
X28803Y-30865D02*
X28997Y-30865D01*
X29383Y-30865D02*
X29541Y-30865D01*
X31459Y-30865D02*
X36675Y-30865D01*
X24325Y-30945D02*
X24853Y-30945D01*
X28850Y-30945D02*
X28950Y-30945D01*
X29497Y-30945D02*
X29712Y-30945D01*
X29910Y-30945D02*
X29991Y-30945D01*
X31288Y-30945D02*
X36675Y-30945D01*
X24325Y-31025D02*
X24811Y-31025D01*
X28850Y-31025D02*
X28950Y-31025D01*
X29538Y-31025D02*
X29991Y-31025D01*
X31109Y-31025D02*
X36675Y-31025D01*
X24325Y-31105D02*
X24801Y-31105D01*
X28850Y-31105D02*
X28950Y-31105D01*
X29549Y-31105D02*
X29991Y-31105D01*
X31109Y-31105D02*
X36675Y-31105D01*
X24325Y-31185D02*
X24801Y-31185D01*
X28850Y-31185D02*
X28950Y-31185D01*
X29549Y-31185D02*
X29991Y-31185D01*
X31109Y-31185D02*
X36675Y-31185D01*
X24325Y-31265D02*
X24801Y-31265D01*
X28850Y-31265D02*
X28950Y-31265D01*
X29549Y-31265D02*
X29991Y-31265D01*
X31109Y-31265D02*
X36675Y-31265D01*
X24325Y-31345D02*
X24801Y-31345D01*
X28850Y-31345D02*
X28950Y-31345D01*
X29493Y-31345D02*
X29550Y-31345D01*
X29550Y-31345D02*
X29991Y-31345D01*
X31109Y-31345D02*
X36675Y-31345D01*
X24325Y-31425D02*
X24801Y-31425D01*
X28850Y-31425D02*
X29550Y-31425D01*
X29550Y-31425D02*
X29991Y-31425D01*
X31109Y-31425D02*
X36675Y-31425D01*
X24325Y-31505D02*
X24801Y-31505D01*
X28850Y-31505D02*
X28950Y-31505D01*
X29543Y-31505D02*
X29550Y-31505D01*
X29550Y-31505D02*
X29991Y-31505D01*
X31109Y-31505D02*
X36675Y-31505D01*
X24325Y-31585D02*
X24801Y-31585D01*
X28850Y-31585D02*
X28950Y-31585D01*
X29550Y-31585D02*
X29550Y-31585D01*
X29550Y-31585D02*
X29991Y-31585D01*
X31109Y-31585D02*
X36675Y-31585D01*
X24325Y-31665D02*
X24801Y-31665D01*
X28850Y-31665D02*
X28950Y-31665D01*
X29550Y-31665D02*
X29550Y-31665D01*
X29550Y-31665D02*
X29991Y-31665D01*
X31109Y-31665D02*
X36675Y-31665D01*
X24325Y-31745D02*
X24801Y-31745D01*
X28850Y-31745D02*
X28950Y-31745D01*
X29550Y-31745D02*
X29550Y-31745D01*
X29550Y-31745D02*
X29991Y-31745D01*
X31109Y-31745D02*
X36675Y-31745D01*
X24325Y-31825D02*
X24833Y-31825D01*
X28850Y-31825D02*
X28950Y-31825D01*
X29518Y-31825D02*
X29550Y-31825D01*
X29550Y-31825D02*
X29991Y-31825D01*
X31109Y-31825D02*
X36675Y-31825D01*
X24325Y-31905D02*
X24903Y-31905D01*
X25997Y-31905D02*
X26053Y-31905D01*
X28297Y-31905D02*
X28353Y-31905D01*
X28833Y-31905D02*
X28967Y-31905D01*
X29447Y-31905D02*
X29550Y-31905D01*
X29550Y-31905D02*
X29991Y-31905D01*
X31109Y-31905D02*
X36675Y-31905D01*
X24325Y-31985D02*
X26748Y-31985D01*
X27601Y-31985D02*
X29550Y-31985D01*
X29550Y-31985D02*
X29991Y-31985D01*
X31121Y-31985D02*
X36675Y-31985D01*
X24325Y-32065D02*
X25762Y-32065D01*
X26052Y-32065D02*
X26077Y-32065D01*
X26367Y-32065D02*
X26392Y-32065D01*
X26682Y-32065D02*
X26707Y-32065D01*
X27582Y-32065D02*
X27584Y-32065D01*
X27627Y-32065D02*
X27652Y-32065D01*
X27942Y-32065D02*
X27967Y-32065D01*
X28257Y-32065D02*
X29483Y-32065D01*
X31817Y-32065D02*
X36675Y-32065D01*
X24325Y-32145D02*
X25633Y-32145D01*
X28386Y-32145D02*
X29423Y-32145D01*
X31875Y-32145D02*
X36675Y-32145D01*
X24325Y-32225D02*
X25585Y-32225D01*
X31899Y-32225D02*
X36675Y-32225D01*
X24325Y-32305D02*
X25570Y-32305D01*
X31899Y-32305D02*
X36675Y-32305D01*
X24325Y-32385D02*
X25570Y-32385D01*
X31899Y-32385D02*
X36675Y-32385D01*
X24325Y-32465D02*
X25570Y-32465D01*
X31899Y-32465D02*
X36675Y-32465D01*
X24325Y-32545D02*
X25570Y-32545D01*
X31899Y-32545D02*
X36675Y-32545D01*
X24325Y-32625D02*
X25570Y-32625D01*
X31899Y-32625D02*
X36675Y-32625D01*
X24325Y-32705D02*
X25570Y-32705D01*
X31899Y-32705D02*
X36675Y-32705D01*
X24325Y-32785D02*
X25570Y-32785D01*
X31899Y-32785D02*
X36675Y-32785D01*
X24325Y-32865D02*
X25570Y-32865D01*
X31899Y-32865D02*
X36675Y-32865D01*
X24325Y-32945D02*
X25570Y-32945D01*
X31881Y-32945D02*
X36675Y-32945D01*
X24325Y-33025D02*
X25570Y-33025D01*
X30627Y-33025D02*
X30673Y-33025D01*
X31827Y-33025D02*
X36675Y-33025D01*
X24325Y-33105D02*
X25570Y-33105D01*
X29526Y-33105D02*
X36675Y-33105D01*
X24325Y-33185D02*
X24600Y-33185D01*
X29467Y-33185D02*
X36675Y-33185D01*
X24325Y-33265D02*
X24514Y-33265D01*
X29506Y-33265D02*
X36675Y-33265D01*
X24325Y-33345D02*
X24480Y-33345D01*
X30597Y-33345D02*
X30703Y-33345D01*
X31797Y-33345D02*
X36675Y-33345D01*
X24325Y-33425D02*
X24478Y-33425D01*
X31867Y-33425D02*
X36675Y-33425D01*
X24325Y-33505D02*
X24478Y-33505D01*
X31899Y-33505D02*
X36675Y-33505D01*
X24325Y-33585D02*
X24478Y-33585D01*
X31899Y-33585D02*
X36675Y-33585D01*
X24325Y-33665D02*
X24478Y-33665D01*
X31899Y-33665D02*
X36675Y-33665D01*
X24325Y-33745D02*
X24478Y-33745D01*
X31899Y-33745D02*
X36675Y-33745D01*
X24325Y-33825D02*
X24478Y-33825D01*
X31899Y-33825D02*
X36675Y-33825D01*
X24325Y-33905D02*
X24478Y-33905D01*
X31899Y-33905D02*
X36675Y-33905D01*
X24325Y-33985D02*
X24478Y-33985D01*
X31899Y-33985D02*
X36675Y-33985D01*
X24325Y-34065D02*
X24478Y-34065D01*
X31899Y-34065D02*
X36675Y-34065D01*
X24325Y-34145D02*
X24478Y-34145D01*
X31899Y-34145D02*
X36675Y-34145D01*
X24325Y-34225D02*
X24478Y-34225D01*
X31889Y-34225D02*
X36675Y-34225D01*
X24325Y-34305D02*
X24478Y-34305D01*
X31847Y-34305D02*
X36675Y-34305D01*
X24325Y-34385D02*
X24478Y-34385D01*
X31733Y-34385D02*
X36675Y-34385D01*
X24325Y-34465D02*
X24478Y-34465D01*
X31221Y-34465D02*
X36675Y-34465D01*
X24325Y-34545D02*
X24478Y-34545D01*
X31141Y-34545D02*
X36675Y-34545D01*
X24325Y-34625D02*
X24478Y-34625D01*
X31061Y-34625D02*
X36675Y-34625D01*
X24325Y-34705D02*
X24478Y-34705D01*
X30954Y-34705D02*
X36675Y-34705D01*
X24325Y-34785D02*
X24478Y-34785D01*
X30431Y-34785D02*
X30868Y-34785D01*
X31223Y-34785D02*
X31377Y-34785D01*
X31731Y-34785D02*
X36675Y-34785D01*
X24325Y-34865D02*
X24478Y-34865D01*
X30513Y-34865D02*
X30786Y-34865D01*
X31250Y-34865D02*
X31350Y-34865D01*
X31813Y-34865D02*
X36675Y-34865D01*
X24325Y-34945D02*
X24478Y-34945D01*
X30546Y-34945D02*
X30753Y-34945D01*
X31250Y-34945D02*
X31350Y-34945D01*
X31846Y-34945D02*
X36675Y-34945D01*
X24325Y-35025D02*
X24478Y-35025D01*
X30549Y-35025D02*
X30751Y-35025D01*
X31250Y-35025D02*
X31350Y-35025D01*
X31849Y-35025D02*
X36675Y-35025D01*
X24325Y-35105D02*
X24478Y-35105D01*
X30549Y-35105D02*
X30750Y-35105D01*
X31250Y-35105D02*
X31350Y-35105D01*
X31849Y-35105D02*
X36675Y-35105D01*
X24325Y-35185D02*
X24478Y-35185D01*
X30549Y-35185D02*
X30750Y-35185D01*
X31250Y-35185D02*
X31350Y-35185D01*
X31849Y-35185D02*
X36675Y-35185D01*
X24325Y-35265D02*
X24478Y-35265D01*
X30549Y-35265D02*
X30750Y-35265D01*
X31250Y-35265D02*
X31350Y-35265D01*
X31849Y-35265D02*
X36675Y-35265D01*
X24325Y-35345D02*
X24478Y-35345D01*
X30549Y-35345D02*
X30807Y-35345D01*
X31250Y-35345D02*
X31350Y-35345D01*
X31793Y-35345D02*
X31850Y-35345D01*
X31850Y-35345D02*
X36675Y-35345D01*
X24325Y-35425D02*
X24478Y-35425D01*
X30549Y-35425D02*
X31250Y-35425D01*
X31250Y-35425D02*
X31850Y-35425D01*
X31850Y-35425D02*
X36675Y-35425D01*
X24325Y-35505D02*
X24478Y-35505D01*
X30549Y-35505D02*
X30757Y-35505D01*
X31250Y-35505D02*
X31350Y-35505D01*
X31843Y-35505D02*
X31850Y-35505D01*
X31850Y-35505D02*
X36675Y-35505D01*
X24325Y-35585D02*
X24478Y-35585D01*
X30549Y-35585D02*
X30751Y-35585D01*
X31250Y-35585D02*
X31350Y-35585D01*
X31850Y-35585D02*
X31850Y-35585D01*
X31850Y-35585D02*
X36675Y-35585D01*
X24325Y-35665D02*
X24478Y-35665D01*
X30549Y-35665D02*
X30751Y-35665D01*
X31250Y-35665D02*
X31350Y-35665D01*
X31850Y-35665D02*
X31850Y-35665D01*
X31850Y-35665D02*
X33047Y-35665D01*
X33302Y-35665D02*
X33438Y-35665D01*
X33932Y-35665D02*
X34068Y-35665D01*
X34562Y-35665D02*
X34698Y-35665D01*
X34953Y-35665D02*
X36675Y-35665D01*
X24325Y-35745D02*
X24478Y-35745D01*
X30549Y-35745D02*
X30751Y-35745D01*
X31250Y-35745D02*
X31350Y-35745D01*
X31850Y-35745D02*
X31850Y-35745D01*
X31850Y-35745D02*
X32975Y-35745D01*
X33320Y-35745D02*
X33420Y-35745D01*
X33950Y-35745D02*
X34050Y-35745D01*
X34580Y-35745D02*
X34680Y-35745D01*
X35024Y-35745D02*
X36675Y-35745D01*
X24325Y-35825D02*
X24478Y-35825D01*
X30549Y-35825D02*
X30751Y-35825D01*
X31250Y-35825D02*
X31350Y-35825D01*
X31849Y-35825D02*
X31850Y-35825D01*
X31850Y-35825D02*
X32944Y-35825D01*
X33320Y-35825D02*
X33420Y-35825D01*
X33950Y-35825D02*
X34050Y-35825D01*
X34580Y-35825D02*
X34680Y-35825D01*
X35056Y-35825D02*
X36675Y-35825D01*
X24325Y-35905D02*
X24507Y-35905D01*
X30527Y-35905D02*
X30774Y-35905D01*
X31250Y-35905D02*
X31350Y-35905D01*
X31827Y-35905D02*
X31850Y-35905D01*
X31850Y-35905D02*
X32944Y-35905D01*
X33320Y-35905D02*
X33420Y-35905D01*
X33950Y-35905D02*
X34050Y-35905D01*
X34580Y-35905D02*
X34680Y-35905D01*
X35056Y-35905D02*
X36675Y-35905D01*
X24325Y-35985D02*
X24572Y-35985D01*
X30467Y-35985D02*
X30833Y-35985D01*
X31250Y-35985D02*
X31350Y-35985D01*
X31767Y-35985D02*
X31850Y-35985D01*
X31850Y-35985D02*
X32943Y-35985D01*
X33320Y-35985D02*
X33420Y-35985D01*
X33950Y-35985D02*
X34050Y-35985D01*
X34580Y-35985D02*
X34680Y-35985D01*
X35056Y-35985D02*
X36675Y-35985D01*
X24325Y-36065D02*
X25563Y-36065D01*
X29709Y-36065D02*
X31250Y-36065D01*
X31250Y-36065D02*
X31850Y-36065D01*
X31850Y-36065D02*
X32954Y-36065D01*
X33320Y-36065D02*
X33420Y-36065D01*
X33950Y-36065D02*
X34050Y-36065D01*
X34580Y-36065D02*
X34680Y-36065D01*
X35046Y-36065D02*
X35057Y-36065D01*
X35057Y-36065D02*
X36675Y-36065D01*
X24325Y-36145D02*
X25563Y-36145D01*
X29789Y-36145D02*
X31250Y-36145D01*
X31250Y-36145D02*
X31850Y-36145D01*
X31850Y-36145D02*
X33320Y-36145D01*
X33320Y-36145D02*
X33950Y-36145D01*
X33950Y-36145D02*
X34580Y-36145D01*
X34580Y-36145D02*
X35057Y-36145D01*
X35057Y-36145D02*
X36675Y-36145D01*
X24325Y-36225D02*
X25563Y-36225D01*
X29869Y-36225D02*
X31250Y-36225D01*
X31250Y-36225D02*
X31850Y-36225D01*
X31850Y-36225D02*
X32996Y-36225D01*
X33320Y-36225D02*
X33420Y-36225D01*
X33950Y-36225D02*
X34050Y-36225D01*
X34580Y-36225D02*
X34680Y-36225D01*
X35004Y-36225D02*
X35057Y-36225D01*
X35057Y-36225D02*
X36675Y-36225D01*
X24325Y-36305D02*
X25563Y-36305D01*
X29949Y-36305D02*
X31250Y-36305D01*
X31250Y-36305D02*
X31850Y-36305D01*
X31850Y-36305D02*
X32944Y-36305D01*
X33320Y-36305D02*
X33420Y-36305D01*
X33950Y-36305D02*
X34050Y-36305D01*
X34580Y-36305D02*
X34680Y-36305D01*
X35057Y-36305D02*
X35057Y-36305D01*
X35057Y-36305D02*
X36675Y-36305D01*
X24325Y-36385D02*
X25563Y-36385D01*
X30029Y-36385D02*
X31250Y-36385D01*
X31250Y-36385D02*
X31850Y-36385D01*
X31850Y-36385D02*
X32944Y-36385D01*
X33320Y-36385D02*
X33420Y-36385D01*
X33950Y-36385D02*
X34050Y-36385D01*
X34580Y-36385D02*
X34680Y-36385D01*
X35057Y-36385D02*
X35057Y-36385D01*
X35057Y-36385D02*
X36675Y-36385D01*
X24325Y-36465D02*
X25563Y-36465D01*
X30109Y-36465D02*
X31250Y-36465D01*
X31250Y-36465D02*
X31850Y-36465D01*
X31850Y-36465D02*
X32944Y-36465D01*
X33320Y-36465D02*
X33420Y-36465D01*
X33950Y-36465D02*
X34050Y-36465D01*
X34580Y-36465D02*
X34680Y-36465D01*
X35056Y-36465D02*
X35057Y-36465D01*
X35057Y-36465D02*
X36675Y-36465D01*
X24325Y-36545D02*
X25563Y-36545D01*
X30189Y-36545D02*
X31250Y-36545D01*
X31250Y-36545D02*
X31850Y-36545D01*
X31850Y-36545D02*
X32959Y-36545D01*
X33320Y-36545D02*
X33420Y-36545D01*
X33950Y-36545D02*
X34050Y-36545D01*
X34580Y-36545D02*
X34680Y-36545D01*
X35042Y-36545D02*
X35057Y-36545D01*
X35057Y-36545D02*
X36675Y-36545D01*
X24325Y-36625D02*
X25563Y-36625D01*
X30269Y-36625D02*
X31250Y-36625D01*
X31250Y-36625D02*
X31850Y-36625D01*
X31850Y-36625D02*
X33005Y-36625D01*
X33320Y-36625D02*
X33420Y-36625D01*
X33950Y-36625D02*
X34050Y-36625D01*
X34580Y-36625D02*
X34680Y-36625D01*
X34995Y-36625D02*
X35057Y-36625D01*
X35057Y-36625D02*
X36675Y-36625D01*
X24325Y-36705D02*
X25563Y-36705D01*
X30349Y-36705D02*
X31250Y-36705D01*
X31250Y-36705D02*
X31850Y-36705D01*
X31850Y-36705D02*
X33132Y-36705D01*
X33264Y-36705D02*
X33320Y-36705D01*
X33320Y-36705D02*
X33476Y-36705D01*
X33609Y-36705D02*
X33762Y-36705D01*
X33894Y-36705D02*
X33950Y-36705D01*
X33950Y-36705D02*
X34106Y-36705D01*
X34239Y-36705D02*
X34392Y-36705D01*
X34524Y-36705D02*
X34580Y-36705D01*
X34580Y-36705D02*
X34736Y-36705D01*
X34869Y-36705D02*
X35057Y-36705D01*
X35057Y-36705D02*
X36675Y-36705D01*
X24325Y-36785D02*
X25563Y-36785D01*
X30429Y-36785D02*
X31250Y-36785D01*
X31250Y-36785D02*
X31850Y-36785D01*
X31850Y-36785D02*
X33320Y-36785D01*
X33320Y-36785D02*
X33950Y-36785D01*
X33950Y-36785D02*
X34580Y-36785D01*
X34580Y-36785D02*
X35057Y-36785D01*
X35057Y-36785D02*
X36675Y-36785D01*
X24325Y-36865D02*
X25563Y-36865D01*
X30509Y-36865D02*
X31250Y-36865D01*
X31250Y-36865D02*
X31850Y-36865D01*
X31850Y-36865D02*
X33320Y-36865D01*
X33320Y-36865D02*
X33950Y-36865D01*
X33950Y-36865D02*
X34580Y-36865D01*
X34580Y-36865D02*
X35057Y-36865D01*
X35057Y-36865D02*
X36675Y-36865D01*
X24325Y-36945D02*
X25577Y-36945D01*
X30589Y-36945D02*
X31250Y-36945D01*
X31250Y-36945D02*
X31850Y-36945D01*
X31850Y-36945D02*
X33320Y-36945D01*
X33320Y-36945D02*
X33950Y-36945D01*
X33950Y-36945D02*
X34580Y-36945D01*
X34580Y-36945D02*
X35057Y-36945D01*
X35057Y-36945D02*
X36675Y-36945D01*
X24325Y-37025D02*
X25622Y-37025D01*
X30669Y-37025D02*
X31250Y-37025D01*
X31250Y-37025D02*
X31850Y-37025D01*
X31850Y-37025D02*
X33320Y-37025D01*
X33320Y-37025D02*
X33950Y-37025D01*
X33950Y-37025D02*
X34580Y-37025D01*
X34580Y-37025D02*
X35057Y-37025D01*
X35057Y-37025D02*
X36675Y-37025D01*
X24325Y-37105D02*
X25746Y-37105D01*
X26053Y-37105D02*
X26066Y-37105D01*
X26373Y-37105D02*
X26386Y-37105D01*
X26692Y-37105D02*
X26697Y-37105D01*
X30749Y-37105D02*
X31250Y-37105D01*
X31250Y-37105D02*
X31850Y-37105D01*
X31850Y-37105D02*
X33320Y-37105D01*
X33320Y-37105D02*
X33950Y-37105D01*
X33950Y-37105D02*
X34580Y-37105D01*
X34580Y-37105D02*
X35057Y-37105D01*
X35057Y-37105D02*
X36675Y-37105D01*
X24325Y-37185D02*
X26950Y-37185D01*
X30829Y-37185D02*
X31250Y-37185D01*
X31250Y-37185D02*
X31850Y-37185D01*
X31850Y-37185D02*
X33320Y-37185D01*
X33320Y-37185D02*
X33950Y-37185D01*
X33950Y-37185D02*
X34580Y-37185D01*
X34580Y-37185D02*
X35057Y-37185D01*
X35057Y-37185D02*
X36675Y-37185D01*
X24325Y-37265D02*
X27029Y-37265D01*
X30909Y-37265D02*
X31250Y-37265D01*
X31250Y-37265D02*
X31850Y-37265D01*
X31850Y-37265D02*
X33320Y-37265D01*
X33320Y-37265D02*
X33950Y-37265D01*
X33950Y-37265D02*
X34580Y-37265D01*
X34580Y-37265D02*
X35057Y-37265D01*
X35057Y-37265D02*
X36675Y-37265D01*
X24325Y-37345D02*
X27109Y-37345D01*
X30989Y-37345D02*
X31250Y-37345D01*
X31250Y-37345D02*
X31850Y-37345D01*
X31850Y-37345D02*
X33320Y-37345D01*
X33320Y-37345D02*
X33950Y-37345D01*
X33950Y-37345D02*
X34580Y-37345D01*
X34580Y-37345D02*
X35057Y-37345D01*
X35057Y-37345D02*
X36675Y-37345D01*
X24325Y-37425D02*
X27189Y-37425D01*
X31069Y-37425D02*
X31250Y-37425D01*
X31250Y-37425D02*
X31850Y-37425D01*
X31850Y-37425D02*
X33320Y-37425D01*
X33320Y-37425D02*
X33950Y-37425D01*
X33950Y-37425D02*
X34580Y-37425D01*
X34580Y-37425D02*
X35057Y-37425D01*
X35057Y-37425D02*
X36675Y-37425D01*
X24325Y-37505D02*
X27269Y-37505D01*
X31149Y-37505D02*
X31250Y-37505D01*
X31250Y-37505D02*
X31850Y-37505D01*
X31850Y-37505D02*
X33320Y-37505D01*
X33320Y-37505D02*
X33950Y-37505D01*
X33950Y-37505D02*
X34580Y-37505D01*
X34580Y-37505D02*
X35057Y-37505D01*
X35057Y-37505D02*
X36675Y-37505D01*
X24325Y-37585D02*
X27349Y-37585D01*
X31229Y-37585D02*
X31250Y-37585D01*
X31250Y-37585D02*
X31850Y-37585D01*
X31850Y-37585D02*
X33320Y-37585D01*
X33320Y-37585D02*
X33950Y-37585D01*
X33950Y-37585D02*
X34580Y-37585D01*
X34580Y-37585D02*
X35057Y-37585D01*
X35057Y-37585D02*
X36675Y-37585D01*
X24325Y-37665D02*
X27429Y-37665D01*
X31310Y-37665D02*
X31850Y-37665D01*
X31850Y-37665D02*
X33015Y-37665D01*
X34985Y-37665D02*
X35057Y-37665D01*
X35057Y-37665D02*
X36675Y-37665D01*
X24325Y-37745D02*
X27509Y-37745D01*
X31390Y-37745D02*
X31850Y-37745D01*
X31850Y-37745D02*
X32962Y-37745D01*
X35037Y-37745D02*
X35057Y-37745D01*
X35057Y-37745D02*
X36675Y-37745D01*
X24325Y-37825D02*
X27589Y-37825D01*
X31470Y-37825D02*
X31850Y-37825D01*
X31850Y-37825D02*
X32944Y-37825D01*
X35056Y-37825D02*
X35057Y-37825D01*
X35057Y-37825D02*
X36675Y-37825D01*
X24325Y-37905D02*
X27669Y-37905D01*
X31550Y-37905D02*
X31850Y-37905D01*
X31850Y-37905D02*
X32944Y-37905D01*
X35056Y-37905D02*
X35057Y-37905D01*
X35057Y-37905D02*
X36675Y-37905D01*
X24325Y-37985D02*
X27749Y-37985D01*
X31630Y-37985D02*
X31850Y-37985D01*
X31850Y-37985D02*
X32944Y-37985D01*
X35056Y-37985D02*
X35057Y-37985D01*
X35057Y-37985D02*
X36675Y-37985D01*
X24325Y-38065D02*
X27829Y-38065D01*
X31710Y-38065D02*
X31850Y-38065D01*
X31850Y-38065D02*
X32944Y-38065D01*
X35056Y-38065D02*
X35057Y-38065D01*
X35057Y-38065D02*
X36675Y-38065D01*
X24325Y-38145D02*
X27909Y-38145D01*
X31790Y-38145D02*
X31850Y-38145D01*
X31850Y-38145D02*
X32922Y-38145D01*
X35078Y-38145D02*
X36675Y-38145D01*
X24325Y-38225D02*
X27989Y-38225D01*
X31852Y-38225D02*
X32842Y-38225D01*
X35158Y-38225D02*
X36675Y-38225D01*
X24325Y-38305D02*
X28069Y-38305D01*
X31891Y-38305D02*
X32762Y-38305D01*
X35238Y-38305D02*
X36675Y-38305D01*
X24325Y-38385D02*
X28149Y-38385D01*
X31907Y-38385D02*
X32682Y-38385D01*
X35318Y-38385D02*
X36675Y-38385D01*
X24325Y-38465D02*
X28253Y-38465D01*
X31909Y-38465D02*
X32602Y-38465D01*
X35398Y-38465D02*
X36675Y-38465D01*
X24325Y-38545D02*
X28709Y-38545D01*
X31909Y-38545D02*
X32542Y-38545D01*
X35457Y-38545D02*
X36675Y-38545D01*
X24325Y-38625D02*
X28789Y-38625D01*
X31909Y-38625D02*
X32507Y-38625D01*
X35492Y-38625D02*
X36675Y-38625D01*
X24325Y-38705D02*
X28869Y-38705D01*
X31909Y-38705D02*
X32491Y-38705D01*
X35509Y-38705D02*
X36675Y-38705D01*
X24325Y-38785D02*
X28891Y-38785D01*
X31909Y-38785D02*
X32491Y-38785D01*
X35509Y-38785D02*
X36675Y-38785D01*
X24325Y-38865D02*
X28633Y-38865D01*
X32167Y-38865D02*
X32233Y-38865D01*
X35767Y-38865D02*
X36675Y-38865D01*
X24325Y-38945D02*
X28573Y-38945D01*
X35825Y-38945D02*
X36675Y-38945D01*
X24325Y-39025D02*
X28551Y-39025D01*
X35849Y-39025D02*
X36675Y-39025D01*
X24325Y-39105D02*
X28551Y-39105D01*
X35849Y-39105D02*
X36675Y-39105D01*
X24325Y-39185D02*
X28551Y-39185D01*
X35849Y-39185D02*
X36675Y-39185D01*
X24325Y-39265D02*
X28551Y-39265D01*
X35849Y-39265D02*
X36675Y-39265D01*
X24325Y-39345D02*
X28551Y-39345D01*
X35849Y-39345D02*
X36675Y-39345D01*
X24325Y-39425D02*
X28551Y-39425D01*
X35849Y-39425D02*
X36675Y-39425D01*
X24325Y-39505D02*
X28551Y-39505D01*
X35849Y-39505D02*
X36675Y-39505D01*
X24325Y-39585D02*
X28551Y-39585D01*
X35849Y-39585D02*
X36675Y-39585D01*
X24325Y-39665D02*
X28551Y-39665D01*
X35849Y-39665D02*
X36675Y-39665D01*
X24325Y-39745D02*
X28570Y-39745D01*
X35831Y-39745D02*
X35849Y-39745D01*
X35849Y-39745D02*
X36675Y-39745D01*
X24325Y-39825D02*
X28623Y-39825D01*
X29777Y-39825D02*
X29823Y-39825D01*
X30977Y-39825D02*
X31023Y-39825D01*
X32177Y-39825D02*
X32223Y-39825D01*
X33377Y-39825D02*
X33423Y-39825D01*
X34577Y-39825D02*
X34623Y-39825D01*
X35777Y-39825D02*
X35849Y-39825D01*
X35849Y-39825D02*
X36675Y-39825D01*
X24325Y-39905D02*
X35849Y-39905D01*
X35849Y-39905D02*
X36675Y-39905D01*
X24325Y-39985D02*
X35849Y-39985D01*
X35849Y-39985D02*
X36675Y-39985D01*
X24325Y-40065D02*
X35849Y-40065D01*
X35849Y-40065D02*
X36675Y-40065D01*
X24325Y-40145D02*
X28653Y-40145D01*
X29747Y-40145D02*
X29853Y-40145D01*
X30947Y-40145D02*
X31053Y-40145D01*
X32147Y-40145D02*
X32253Y-40145D01*
X33347Y-40145D02*
X33453Y-40145D01*
X34547Y-40145D02*
X34653Y-40145D01*
X35747Y-40145D02*
X35849Y-40145D01*
X35849Y-40145D02*
X36675Y-40145D01*
X24325Y-40225D02*
X28582Y-40225D01*
X35817Y-40225D02*
X35849Y-40225D01*
X35849Y-40225D02*
X36675Y-40225D01*
X24325Y-40305D02*
X28551Y-40305D01*
X35849Y-40305D02*
X36675Y-40305D01*
X24325Y-40385D02*
X28551Y-40385D01*
X35849Y-40385D02*
X36675Y-40385D01*
X24325Y-40465D02*
X28551Y-40465D01*
X35849Y-40465D02*
X36675Y-40465D01*
X24325Y-40545D02*
X28551Y-40545D01*
X35849Y-40545D02*
X36675Y-40545D01*
X24325Y-40625D02*
X28551Y-40625D01*
X35849Y-40625D02*
X36675Y-40625D01*
X24325Y-40705D02*
X28551Y-40705D01*
X35849Y-40705D02*
X36675Y-40705D01*
X24325Y-40785D02*
X28551Y-40785D01*
X35849Y-40785D02*
X36675Y-40785D01*
X24325Y-40865D02*
X28551Y-40865D01*
X35849Y-40865D02*
X36675Y-40865D01*
X24325Y-40945D02*
X28551Y-40945D01*
X35849Y-40945D02*
X36675Y-40945D01*
X24325Y-41025D02*
X28562Y-41025D01*
X35839Y-41025D02*
X35849Y-41025D01*
X35849Y-41025D02*
X36675Y-41025D01*
X24325Y-41105D02*
X28603Y-41105D01*
X35797Y-41105D02*
X35849Y-41105D01*
X35849Y-41105D02*
X36675Y-41105D01*
X24325Y-41185D02*
X28677Y-41185D01*
X35683Y-41185D02*
X35849Y-41185D01*
X35849Y-41185D02*
X36675Y-41185D01*
X24325Y-41265D02*
X28597Y-41265D01*
X35509Y-41265D02*
X35849Y-41265D01*
X35849Y-41265D02*
X36675Y-41265D01*
X24325Y-41345D02*
X28517Y-41345D01*
X35509Y-41345D02*
X35849Y-41345D01*
X35849Y-41345D02*
X36675Y-41345D01*
X24325Y-41425D02*
X28438Y-41425D01*
X35509Y-41425D02*
X35849Y-41425D01*
X35849Y-41425D02*
X36675Y-41425D01*
X24325Y-41505D02*
X28358Y-41505D01*
X35509Y-41505D02*
X35849Y-41505D01*
X35849Y-41505D02*
X36675Y-41505D01*
X24325Y-41585D02*
X25569Y-41585D01*
X26029Y-41585D02*
X26769Y-41585D01*
X27229Y-41585D02*
X27519Y-41585D01*
X27979Y-41585D02*
X28278Y-41585D01*
X35509Y-41585D02*
X35849Y-41585D01*
X35849Y-41585D02*
X36675Y-41585D01*
X24325Y-41665D02*
X25484Y-41665D01*
X26116Y-41665D02*
X26684Y-41665D01*
X27316Y-41665D02*
X27434Y-41665D01*
X28066Y-41665D02*
X28209Y-41665D01*
X35516Y-41665D02*
X35849Y-41665D01*
X35849Y-41665D02*
X36675Y-41665D01*
X24325Y-41745D02*
X25425Y-41745D01*
X26175Y-41745D02*
X26625Y-41745D01*
X28125Y-41745D02*
X28162Y-41745D01*
X35575Y-41745D02*
X35849Y-41745D01*
X35849Y-41745D02*
X36675Y-41745D01*
X24325Y-41825D02*
X25391Y-41825D01*
X26208Y-41825D02*
X26591Y-41825D01*
X35608Y-41825D02*
X35849Y-41825D01*
X35849Y-41825D02*
X36675Y-41825D01*
X24325Y-41905D02*
X25375Y-41905D01*
X26225Y-41905D02*
X26575Y-41905D01*
X35625Y-41905D02*
X35849Y-41905D01*
X35849Y-41905D02*
X36675Y-41905D01*
X24325Y-41985D02*
X25375Y-41985D01*
X26225Y-41985D02*
X26575Y-41985D01*
X35625Y-41985D02*
X35849Y-41985D01*
X35849Y-41985D02*
X36675Y-41985D01*
X24325Y-42065D02*
X25388Y-42065D01*
X26213Y-42065D02*
X26588Y-42065D01*
X35613Y-42065D02*
X35849Y-42065D01*
X35849Y-42065D02*
X36675Y-42065D01*
X24325Y-42145D02*
X25421Y-42145D01*
X26180Y-42145D02*
X26621Y-42145D01*
X28130Y-42145D02*
X28141Y-42145D01*
X35580Y-42145D02*
X35849Y-42145D01*
X35849Y-42145D02*
X36675Y-42145D01*
X24325Y-42225D02*
X25474Y-42225D01*
X26126Y-42225D02*
X26674Y-42225D01*
X28076Y-42225D02*
X28141Y-42225D01*
X35526Y-42225D02*
X35849Y-42225D01*
X35849Y-42225D02*
X36675Y-42225D01*
X24325Y-42305D02*
X25491Y-42305D01*
X26109Y-42305D02*
X26691Y-42305D01*
X28059Y-42305D02*
X28141Y-42305D01*
X35509Y-42305D02*
X35849Y-42305D01*
X35849Y-42305D02*
X36675Y-42305D01*
X24325Y-42385D02*
X25491Y-42385D01*
X26109Y-42385D02*
X26691Y-42385D01*
X28059Y-42385D02*
X28141Y-42385D01*
X35509Y-42385D02*
X35849Y-42385D01*
X35849Y-42385D02*
X36675Y-42385D01*
X24325Y-42465D02*
X25491Y-42465D01*
X26109Y-42465D02*
X26691Y-42465D01*
X28059Y-42465D02*
X28141Y-42465D01*
X35509Y-42465D02*
X35849Y-42465D01*
X35849Y-42465D02*
X36675Y-42465D01*
X24325Y-42545D02*
X25491Y-42545D01*
X26109Y-42545D02*
X26691Y-42545D01*
X28059Y-42545D02*
X28141Y-42545D01*
X35509Y-42545D02*
X35849Y-42545D01*
X35849Y-42545D02*
X36675Y-42545D01*
X24325Y-42625D02*
X25491Y-42625D01*
X26109Y-42625D02*
X26691Y-42625D01*
X28059Y-42625D02*
X28141Y-42625D01*
X35509Y-42625D02*
X35849Y-42625D01*
X35849Y-42625D02*
X36675Y-42625D01*
X24325Y-42705D02*
X25491Y-42705D01*
X26109Y-42705D02*
X26691Y-42705D01*
X28059Y-42705D02*
X28141Y-42705D01*
X35509Y-42705D02*
X35849Y-42705D01*
X35849Y-42705D02*
X36675Y-42705D01*
X24325Y-42785D02*
X25491Y-42785D01*
X26109Y-42785D02*
X26691Y-42785D01*
X28059Y-42785D02*
X28141Y-42785D01*
X35509Y-42785D02*
X35849Y-42785D01*
X35849Y-42785D02*
X36675Y-42785D01*
X24325Y-42865D02*
X25491Y-42865D01*
X26109Y-42865D02*
X26691Y-42865D01*
X28059Y-42865D02*
X28145Y-42865D01*
X35509Y-42865D02*
X35849Y-42865D01*
X35849Y-42865D02*
X36675Y-42865D01*
X24325Y-42945D02*
X25491Y-42945D01*
X26109Y-42945D02*
X26691Y-42945D01*
X28059Y-42945D02*
X28161Y-42945D01*
X35509Y-42945D02*
X35849Y-42945D01*
X35849Y-42945D02*
X36675Y-42945D01*
X24325Y-43025D02*
X25491Y-43025D01*
X26109Y-43025D02*
X26691Y-43025D01*
X28059Y-43025D02*
X28171Y-43025D01*
X35509Y-43025D02*
X35849Y-43025D01*
X35849Y-43025D02*
X36675Y-43025D01*
X24325Y-43105D02*
X25491Y-43105D01*
X26109Y-43105D02*
X26691Y-43105D01*
X28059Y-43105D02*
X28171Y-43105D01*
X35509Y-43105D02*
X35849Y-43105D01*
X35849Y-43105D02*
X36675Y-43105D01*
X24325Y-43185D02*
X25491Y-43185D01*
X26109Y-43185D02*
X26691Y-43185D01*
X28059Y-43185D02*
X28171Y-43185D01*
X35509Y-43185D02*
X35849Y-43185D01*
X35849Y-43185D02*
X36675Y-43185D01*
X24325Y-43265D02*
X25491Y-43265D01*
X26109Y-43265D02*
X26691Y-43265D01*
X28059Y-43265D02*
X28186Y-43265D01*
X35509Y-43265D02*
X35849Y-43265D01*
X35849Y-43265D02*
X36675Y-43265D01*
X24325Y-43345D02*
X25491Y-43345D01*
X26109Y-43345D02*
X26691Y-43345D01*
X28059Y-43345D02*
X28233Y-43345D01*
X35509Y-43345D02*
X35849Y-43345D01*
X35849Y-43345D02*
X36675Y-43345D01*
X24325Y-43425D02*
X25491Y-43425D01*
X26109Y-43425D02*
X26691Y-43425D01*
X28059Y-43425D02*
X28361Y-43425D01*
X28839Y-43425D02*
X28991Y-43425D01*
X35509Y-43425D02*
X35849Y-43425D01*
X35849Y-43425D02*
X36675Y-43425D01*
X24325Y-43505D02*
X25491Y-43505D01*
X26109Y-43505D02*
X26691Y-43505D01*
X28059Y-43505D02*
X28991Y-43505D01*
X35509Y-43505D02*
X35849Y-43505D01*
X35849Y-43505D02*
X36675Y-43505D01*
X24325Y-43585D02*
X25491Y-43585D01*
X26109Y-43585D02*
X26691Y-43585D01*
X28059Y-43585D02*
X28991Y-43585D01*
X35509Y-43585D02*
X35849Y-43585D01*
X35849Y-43585D02*
X36675Y-43585D01*
X24325Y-43665D02*
X25491Y-43665D01*
X26109Y-43665D02*
X26691Y-43665D01*
X28059Y-43665D02*
X28991Y-43665D01*
X35509Y-43665D02*
X35849Y-43665D01*
X35849Y-43665D02*
X36675Y-43665D01*
X24325Y-43745D02*
X25491Y-43745D01*
X26109Y-43745D02*
X26691Y-43745D01*
X28059Y-43745D02*
X28991Y-43745D01*
X35509Y-43745D02*
X35849Y-43745D01*
X35849Y-43745D02*
X36675Y-43745D01*
X24325Y-43825D02*
X25491Y-43825D01*
X26109Y-43825D02*
X26691Y-43825D01*
X28059Y-43825D02*
X28991Y-43825D01*
X35509Y-43825D02*
X35849Y-43825D01*
X35849Y-43825D02*
X36675Y-43825D01*
X24325Y-43905D02*
X25491Y-43905D01*
X26109Y-43905D02*
X26691Y-43905D01*
X28059Y-43905D02*
X28991Y-43905D01*
X35509Y-43905D02*
X35849Y-43905D01*
X35849Y-43905D02*
X36675Y-43905D01*
X24325Y-43985D02*
X25491Y-43985D01*
X26109Y-43985D02*
X26691Y-43985D01*
X28059Y-43985D02*
X28991Y-43985D01*
X35509Y-43985D02*
X35849Y-43985D01*
X35849Y-43985D02*
X36675Y-43985D01*
X24325Y-44065D02*
X25491Y-44065D01*
X26109Y-44065D02*
X26691Y-44065D01*
X28059Y-44065D02*
X28991Y-44065D01*
X35509Y-44065D02*
X35849Y-44065D01*
X35849Y-44065D02*
X36675Y-44065D01*
X24325Y-44145D02*
X25491Y-44145D01*
X26109Y-44145D02*
X26691Y-44145D01*
X28059Y-44145D02*
X28991Y-44145D01*
X35509Y-44145D02*
X35849Y-44145D01*
X35849Y-44145D02*
X36675Y-44145D01*
X24325Y-44225D02*
X25491Y-44225D01*
X26109Y-44225D02*
X26691Y-44225D01*
X28059Y-44225D02*
X28991Y-44225D01*
X35509Y-44225D02*
X35849Y-44225D01*
X35849Y-44225D02*
X36675Y-44225D01*
X24325Y-44305D02*
X25491Y-44305D01*
X26109Y-44305D02*
X26691Y-44305D01*
X28059Y-44305D02*
X28944Y-44305D01*
X35509Y-44305D02*
X35849Y-44305D01*
X35849Y-44305D02*
X36675Y-44305D01*
X24325Y-44385D02*
X25491Y-44385D01*
X26109Y-44385D02*
X26691Y-44385D01*
X28059Y-44385D02*
X28908Y-44385D01*
X35509Y-44385D02*
X35849Y-44385D01*
X35849Y-44385D02*
X36675Y-44385D01*
X24325Y-44465D02*
X25491Y-44465D01*
X26109Y-44465D02*
X26691Y-44465D01*
X28059Y-44465D02*
X28875Y-44465D01*
X35506Y-44465D02*
X35849Y-44465D01*
X35849Y-44465D02*
X36675Y-44465D01*
X24325Y-44545D02*
X25491Y-44545D01*
X26109Y-44545D02*
X26691Y-44545D01*
X28059Y-44545D02*
X28875Y-44545D01*
X35490Y-44545D02*
X35849Y-44545D01*
X35849Y-44545D02*
X36675Y-44545D01*
X24325Y-44625D02*
X25491Y-44625D01*
X26109Y-44625D02*
X26691Y-44625D01*
X28059Y-44625D02*
X28875Y-44625D01*
X35447Y-44625D02*
X35849Y-44625D01*
X35849Y-44625D02*
X36675Y-44625D01*
X24325Y-44705D02*
X25491Y-44705D01*
X26109Y-44705D02*
X26691Y-44705D01*
X28059Y-44705D02*
X28905Y-44705D01*
X35382Y-44705D02*
X35849Y-44705D01*
X35849Y-44705D02*
X36675Y-44705D01*
X24325Y-44785D02*
X25491Y-44785D01*
X26109Y-44785D02*
X26691Y-44785D01*
X28071Y-44785D02*
X28937Y-44785D01*
X35302Y-44785D02*
X35849Y-44785D01*
X35849Y-44785D02*
X36675Y-44785D01*
X24325Y-44865D02*
X25491Y-44865D01*
X26109Y-44865D02*
X26691Y-44865D01*
X28151Y-44865D02*
X29014Y-44865D01*
X29586Y-44865D02*
X31425Y-44865D01*
X35222Y-44865D02*
X35849Y-44865D01*
X35849Y-44865D02*
X36675Y-44865D01*
X24325Y-44945D02*
X25491Y-44945D01*
X26109Y-44945D02*
X26691Y-44945D01*
X28231Y-44945D02*
X29143Y-44945D01*
X29458Y-44945D02*
X31425Y-44945D01*
X35142Y-44945D02*
X35849Y-44945D01*
X35849Y-44945D02*
X36675Y-44945D01*
X24325Y-45025D02*
X25292Y-45025D01*
X26307Y-45025D02*
X26492Y-45025D01*
X28707Y-45025D02*
X31425Y-45025D01*
X35062Y-45025D02*
X35849Y-45025D01*
X35849Y-45025D02*
X36675Y-45025D01*
X24325Y-45105D02*
X25193Y-45105D01*
X28807Y-45105D02*
X31455Y-45105D01*
X34982Y-45105D02*
X35849Y-45105D01*
X35849Y-45105D02*
X36675Y-45105D01*
X24325Y-45185D02*
X25157Y-45185D01*
X28842Y-45185D02*
X31487Y-45185D01*
X34893Y-45185D02*
X35849Y-45185D01*
X35849Y-45185D02*
X36675Y-45185D01*
X24325Y-45265D02*
X25151Y-45265D01*
X28849Y-45265D02*
X31564Y-45265D01*
X32136Y-45265D02*
X35849Y-45265D01*
X35849Y-45265D02*
X36675Y-45265D01*
X24325Y-45345D02*
X25151Y-45345D01*
X28849Y-45345D02*
X31693Y-45345D01*
X32008Y-45345D02*
X35849Y-45345D01*
X35849Y-45345D02*
X36675Y-45345D01*
X24325Y-45425D02*
X25151Y-45425D01*
X28849Y-45425D02*
X35849Y-45425D01*
X35849Y-45425D02*
X36675Y-45425D01*
X24325Y-45505D02*
X25151Y-45505D01*
X28849Y-45505D02*
X35849Y-45505D01*
X35849Y-45505D02*
X36675Y-45505D01*
X24325Y-45585D02*
X25151Y-45585D01*
X28849Y-45585D02*
X35849Y-45585D01*
X35849Y-45585D02*
X36675Y-45585D01*
X24325Y-45665D02*
X25151Y-45665D01*
X28849Y-45665D02*
X35849Y-45665D01*
X35849Y-45665D02*
X36675Y-45665D01*
X24325Y-45745D02*
X25151Y-45745D01*
X28849Y-45745D02*
X35849Y-45745D01*
X35849Y-45745D02*
X36675Y-45745D01*
X24325Y-45825D02*
X25151Y-45825D01*
X28849Y-45825D02*
X35849Y-45825D01*
X35849Y-45825D02*
X36675Y-45825D01*
X24325Y-45905D02*
X25154Y-45905D01*
X28847Y-45905D02*
X35849Y-45905D01*
X35849Y-45905D02*
X36675Y-45905D01*
X24325Y-45985D02*
X25187Y-45985D01*
X28814Y-45985D02*
X35849Y-45985D01*
X35849Y-45985D02*
X36675Y-45985D01*
X24325Y-46065D02*
X25269Y-46065D01*
X26332Y-46065D02*
X26469Y-46065D01*
X27532Y-46065D02*
X27669Y-46065D01*
X28732Y-46065D02*
X35849Y-46065D01*
X35849Y-46065D02*
X36675Y-46065D01*
X24325Y-46145D02*
X35849Y-46145D01*
X35849Y-46145D02*
X36675Y-46145D01*
X24325Y-46225D02*
X35849Y-46225D01*
X35849Y-46225D02*
X36675Y-46225D01*
X24325Y-46305D02*
X25341Y-46305D01*
X26259Y-46305D02*
X26541Y-46305D01*
X27459Y-46305D02*
X27741Y-46305D01*
X28659Y-46305D02*
X35849Y-46305D01*
X35849Y-46305D02*
X36675Y-46305D01*
X24325Y-46385D02*
X25213Y-46385D01*
X26387Y-46385D02*
X26413Y-46385D01*
X27587Y-46385D02*
X27613Y-46385D01*
X28787Y-46385D02*
X35849Y-46385D01*
X35849Y-46385D02*
X36675Y-46385D01*
X24325Y-46465D02*
X25165Y-46465D01*
X28834Y-46465D02*
X35849Y-46465D01*
X35849Y-46465D02*
X36675Y-46465D01*
X24325Y-46545D02*
X25151Y-46545D01*
X28849Y-46545D02*
X35849Y-46545D01*
X35849Y-46545D02*
X36675Y-46545D01*
X24325Y-46625D02*
X25151Y-46625D01*
X28849Y-46625D02*
X35849Y-46625D01*
X35849Y-46625D02*
X36675Y-46625D01*
X24325Y-46705D02*
X25151Y-46705D01*
X28849Y-46705D02*
X35849Y-46705D01*
X35849Y-46705D02*
X36675Y-46705D01*
X24325Y-46785D02*
X25151Y-46785D01*
X28849Y-46785D02*
X35849Y-46785D01*
X35849Y-46785D02*
X36675Y-46785D01*
X24325Y-46865D02*
X25151Y-46865D01*
X28849Y-46865D02*
X35849Y-46865D01*
X35849Y-46865D02*
X36675Y-46865D01*
X24325Y-46945D02*
X25151Y-46945D01*
X28849Y-46945D02*
X35849Y-46945D01*
X35849Y-46945D02*
X36675Y-46945D01*
X24325Y-47025D02*
X25151Y-47025D01*
X28849Y-47025D02*
X35849Y-47025D01*
X35849Y-47025D02*
X36675Y-47025D01*
X24325Y-47105D02*
X25151Y-47105D01*
X28849Y-47105D02*
X35849Y-47105D01*
X35849Y-47105D02*
X36675Y-47105D01*
X24325Y-47185D02*
X25151Y-47185D01*
X28849Y-47185D02*
X35849Y-47185D01*
X35849Y-47185D02*
X36675Y-47185D01*
X24325Y-47265D02*
X25179Y-47265D01*
X28822Y-47265D02*
X28849Y-47265D01*
X28849Y-47265D02*
X35849Y-47265D01*
X35849Y-47265D02*
X36675Y-47265D01*
X24325Y-47345D02*
X25243Y-47345D01*
X28757Y-47345D02*
X28849Y-47345D01*
X28849Y-47345D02*
X35849Y-47345D01*
X35849Y-47345D02*
X36675Y-47345D01*
X24325Y-47425D02*
X25491Y-47425D01*
X28509Y-47425D02*
X28849Y-47425D01*
X28849Y-47425D02*
X35849Y-47425D01*
X35849Y-47425D02*
X36675Y-47425D01*
X24325Y-47505D02*
X25493Y-47505D01*
X28507Y-47505D02*
X28849Y-47505D01*
X28849Y-47505D02*
X35849Y-47505D01*
X35849Y-47505D02*
X36675Y-47505D01*
X24325Y-47585D02*
X25510Y-47585D01*
X28491Y-47585D02*
X28849Y-47585D01*
X28849Y-47585D02*
X35849Y-47585D01*
X35849Y-47585D02*
X36675Y-47585D01*
X24325Y-47665D02*
X25550Y-47665D01*
X28451Y-47665D02*
X28849Y-47665D01*
X28849Y-47665D02*
X35849Y-47665D01*
X35849Y-47665D02*
X36675Y-47665D01*
X24325Y-47745D02*
X25613Y-47745D01*
X28388Y-47745D02*
X28849Y-47745D01*
X28849Y-47745D02*
X35849Y-47745D01*
X35849Y-47745D02*
X36675Y-47745D01*
X24325Y-47825D02*
X25693Y-47825D01*
X28308Y-47825D02*
X28849Y-47825D01*
X28849Y-47825D02*
X35849Y-47825D01*
X35849Y-47825D02*
X36675Y-47825D01*
X24325Y-47905D02*
X25773Y-47905D01*
X28228Y-47905D02*
X28849Y-47905D01*
X28849Y-47905D02*
X35849Y-47905D01*
X35849Y-47905D02*
X36675Y-47905D01*
X24325Y-47985D02*
X25853Y-47985D01*
X28148Y-47985D02*
X28849Y-47985D01*
X28849Y-47985D02*
X35849Y-47985D01*
X35849Y-47985D02*
X36675Y-47985D01*
X24325Y-48065D02*
X25933Y-48065D01*
X28068Y-48065D02*
X28849Y-48065D01*
X28849Y-48065D02*
X35849Y-48065D01*
X35849Y-48065D02*
X36675Y-48065D01*
X24325Y-48145D02*
X25944Y-48145D01*
X28056Y-48145D02*
X28849Y-48145D01*
X28849Y-48145D02*
X35849Y-48145D01*
X35849Y-48145D02*
X36675Y-48145D01*
X24325Y-48225D02*
X25944Y-48225D01*
X28056Y-48225D02*
X28849Y-48225D01*
X28849Y-48225D02*
X35849Y-48225D01*
X35849Y-48225D02*
X36675Y-48225D01*
X24325Y-48305D02*
X25944Y-48305D01*
X28056Y-48305D02*
X28849Y-48305D01*
X28849Y-48305D02*
X35849Y-48305D01*
X35849Y-48305D02*
X36675Y-48305D01*
X24325Y-48385D02*
X25944Y-48385D01*
X28056Y-48385D02*
X28849Y-48385D01*
X28849Y-48385D02*
X35849Y-48385D01*
X35849Y-48385D02*
X36675Y-48385D01*
X24325Y-48465D02*
X25967Y-48465D01*
X28034Y-48465D02*
X28849Y-48465D01*
X28849Y-48465D02*
X35849Y-48465D01*
X35849Y-48465D02*
X36675Y-48465D01*
X24325Y-48545D02*
X26025Y-48545D01*
X27975Y-48545D02*
X28849Y-48545D01*
X28849Y-48545D02*
X35849Y-48545D01*
X35849Y-48545D02*
X36675Y-48545D01*
X24325Y-48625D02*
X28849Y-48625D01*
X28849Y-48625D02*
X35849Y-48625D01*
X35849Y-48625D02*
X36675Y-48625D01*
X24325Y-48705D02*
X28849Y-48705D01*
X28849Y-48705D02*
X35849Y-48705D01*
X35849Y-48705D02*
X36675Y-48705D01*
X24325Y-48785D02*
X28849Y-48785D01*
X28849Y-48785D02*
X35849Y-48785D01*
X35849Y-48785D02*
X36675Y-48785D01*
X24325Y-48865D02*
X28849Y-48865D01*
X28849Y-48865D02*
X35849Y-48865D01*
X35849Y-48865D02*
X36675Y-48865D01*
X24325Y-48945D02*
X28849Y-48945D01*
X28849Y-48945D02*
X35849Y-48945D01*
X35849Y-48945D02*
X36675Y-48945D01*
X24325Y-49025D02*
X28849Y-49025D01*
X28849Y-49025D02*
X35849Y-49025D01*
X35849Y-49025D02*
X36675Y-49025D01*
X24325Y-49105D02*
X28849Y-49105D01*
X28849Y-49105D02*
X35849Y-49105D01*
X35849Y-49105D02*
X36675Y-49105D01*
X24325Y-49185D02*
X28849Y-49185D01*
X28849Y-49185D02*
X35849Y-49185D01*
X35849Y-49185D02*
X36675Y-49185D01*
X24325Y-49265D02*
X28849Y-49265D01*
X28849Y-49265D02*
X35849Y-49265D01*
X35849Y-49265D02*
X36675Y-49265D01*
X24325Y-49345D02*
X28849Y-49345D01*
X28849Y-49345D02*
X35849Y-49345D01*
X35849Y-49345D02*
X36675Y-49345D01*
X24325Y-49425D02*
X28849Y-49425D01*
X28849Y-49425D02*
X35849Y-49425D01*
X35849Y-49425D02*
X36675Y-49425D01*
X24325Y-49505D02*
X26107Y-49505D01*
X26274Y-49505D02*
X26466Y-49505D01*
X26633Y-49505D02*
X26736Y-49505D01*
X26904Y-49505D02*
X27096Y-49505D01*
X27263Y-49505D02*
X27366Y-49505D01*
X27534Y-49505D02*
X27726Y-49505D01*
X27892Y-49505D02*
X28849Y-49505D01*
X28849Y-49505D02*
X35849Y-49505D01*
X35849Y-49505D02*
X36675Y-49505D01*
X24325Y-49585D02*
X25995Y-49585D01*
X26320Y-49585D02*
X26420Y-49585D01*
X26950Y-49585D02*
X27050Y-49585D01*
X27580Y-49585D02*
X27680Y-49585D01*
X28005Y-49585D02*
X28849Y-49585D01*
X28849Y-49585D02*
X35849Y-49585D01*
X35849Y-49585D02*
X36675Y-49585D01*
X24325Y-49665D02*
X25954Y-49665D01*
X26320Y-49665D02*
X26420Y-49665D01*
X26950Y-49665D02*
X27050Y-49665D01*
X27580Y-49665D02*
X27680Y-49665D01*
X28045Y-49665D02*
X28849Y-49665D01*
X28849Y-49665D02*
X35849Y-49665D01*
X35849Y-49665D02*
X36675Y-49665D01*
X24325Y-49745D02*
X25944Y-49745D01*
X26320Y-49745D02*
X26420Y-49745D01*
X26950Y-49745D02*
X27050Y-49745D01*
X27580Y-49745D02*
X27680Y-49745D01*
X28056Y-49745D02*
X28849Y-49745D01*
X28849Y-49745D02*
X35849Y-49745D01*
X35849Y-49745D02*
X36675Y-49745D01*
X24325Y-49825D02*
X25943Y-49825D01*
X26320Y-49825D02*
X26420Y-49825D01*
X26950Y-49825D02*
X27050Y-49825D01*
X27580Y-49825D02*
X27680Y-49825D01*
X28056Y-49825D02*
X28849Y-49825D01*
X28849Y-49825D02*
X35849Y-49825D01*
X35849Y-49825D02*
X36675Y-49825D01*
X24325Y-49905D02*
X25943Y-49905D01*
X26320Y-49905D02*
X26420Y-49905D01*
X26950Y-49905D02*
X27050Y-49905D01*
X27580Y-49905D02*
X27680Y-49905D01*
X28056Y-49905D02*
X28849Y-49905D01*
X28849Y-49905D02*
X35849Y-49905D01*
X35849Y-49905D02*
X36675Y-49905D01*
X24325Y-49985D02*
X26320Y-49985D01*
X26320Y-49985D02*
X26950Y-49985D01*
X26950Y-49985D02*
X27580Y-49985D01*
X27580Y-49985D02*
X28057Y-49985D01*
X28057Y-49985D02*
X28849Y-49985D01*
X28849Y-49985D02*
X35849Y-49985D01*
X35849Y-49985D02*
X36675Y-49985D01*
X24325Y-50065D02*
X26320Y-50065D01*
X26320Y-50065D02*
X26950Y-50065D01*
X26950Y-50065D02*
X27580Y-50065D01*
X27580Y-50065D02*
X28057Y-50065D01*
X28057Y-50065D02*
X28849Y-50065D01*
X28849Y-50065D02*
X35849Y-50065D01*
X35849Y-50065D02*
X36675Y-50065D01*
X24325Y-50145D02*
X25944Y-50145D01*
X26320Y-50145D02*
X26420Y-50145D01*
X26950Y-50145D02*
X27050Y-50145D01*
X27580Y-50145D02*
X27680Y-50145D01*
X28056Y-50145D02*
X28057Y-50145D01*
X28057Y-50145D02*
X28849Y-50145D01*
X28849Y-50145D02*
X35849Y-50145D01*
X35849Y-50145D02*
X36675Y-50145D01*
X24325Y-50225D02*
X25944Y-50225D01*
X26320Y-50225D02*
X26420Y-50225D01*
X26950Y-50225D02*
X27050Y-50225D01*
X27580Y-50225D02*
X27680Y-50225D01*
X28057Y-50225D02*
X28057Y-50225D01*
X28057Y-50225D02*
X28849Y-50225D01*
X28849Y-50225D02*
X35849Y-50225D01*
X35849Y-50225D02*
X36675Y-50225D01*
X24325Y-50305D02*
X25944Y-50305D01*
X26320Y-50305D02*
X26420Y-50305D01*
X26950Y-50305D02*
X27050Y-50305D01*
X27580Y-50305D02*
X27680Y-50305D01*
X28056Y-50305D02*
X28057Y-50305D01*
X28057Y-50305D02*
X28849Y-50305D01*
X28849Y-50305D02*
X35849Y-50305D01*
X35849Y-50305D02*
X36675Y-50305D01*
X24325Y-50385D02*
X25947Y-50385D01*
X26320Y-50385D02*
X26420Y-50385D01*
X26950Y-50385D02*
X27050Y-50385D01*
X27580Y-50385D02*
X27680Y-50385D01*
X28054Y-50385D02*
X28057Y-50385D01*
X28057Y-50385D02*
X28849Y-50385D01*
X28849Y-50385D02*
X35849Y-50385D01*
X35849Y-50385D02*
X36675Y-50385D01*
X24325Y-50465D02*
X25980Y-50465D01*
X26320Y-50465D02*
X26420Y-50465D01*
X26950Y-50465D02*
X27050Y-50465D01*
X27580Y-50465D02*
X27680Y-50465D01*
X28021Y-50465D02*
X28057Y-50465D01*
X28057Y-50465D02*
X28849Y-50465D01*
X28849Y-50465D02*
X35849Y-50465D01*
X35849Y-50465D02*
X36675Y-50465D01*
X24325Y-50545D02*
X26065Y-50545D01*
X26292Y-50545D02*
X26320Y-50545D01*
X26320Y-50545D02*
X26448Y-50545D01*
X26676Y-50545D02*
X26695Y-50545D01*
X26922Y-50545D02*
X26950Y-50545D01*
X26950Y-50545D02*
X27078Y-50545D01*
X27306Y-50545D02*
X27325Y-50545D01*
X27552Y-50545D02*
X27580Y-50545D01*
X27580Y-50545D02*
X27708Y-50545D01*
X27936Y-50545D02*
X28057Y-50545D01*
X28057Y-50545D02*
X28849Y-50545D01*
X28849Y-50545D02*
X35849Y-50545D01*
X35849Y-50545D02*
X36675Y-50545D01*
X24325Y-50625D02*
X26320Y-50625D01*
X26320Y-50625D02*
X26950Y-50625D01*
X26950Y-50625D02*
X27580Y-50625D01*
X27580Y-50625D02*
X28057Y-50625D01*
X28057Y-50625D02*
X28849Y-50625D01*
X28849Y-50625D02*
X35849Y-50625D01*
X35849Y-50625D02*
X36675Y-50625D01*
X24325Y-50705D02*
X26320Y-50705D01*
X26320Y-50705D02*
X26950Y-50705D01*
X26950Y-50705D02*
X27580Y-50705D01*
X27580Y-50705D02*
X28057Y-50705D01*
X28057Y-50705D02*
X28849Y-50705D01*
X28849Y-50705D02*
X35849Y-50705D01*
X35849Y-50705D02*
X36675Y-50705D01*
X24325Y-50785D02*
X26320Y-50785D01*
X26320Y-50785D02*
X26950Y-50785D01*
X26950Y-50785D02*
X27580Y-50785D01*
X27580Y-50785D02*
X28057Y-50785D01*
X28057Y-50785D02*
X28849Y-50785D01*
X28849Y-50785D02*
X35849Y-50785D01*
X35849Y-50785D02*
X36675Y-50785D01*
X24325Y-50865D02*
X26320Y-50865D01*
X26320Y-50865D02*
X26950Y-50865D01*
X26950Y-50865D02*
X27580Y-50865D01*
X27580Y-50865D02*
X28057Y-50865D01*
X28057Y-50865D02*
X28849Y-50865D01*
X28849Y-50865D02*
X35849Y-50865D01*
X35849Y-50865D02*
X36675Y-50865D01*
X24325Y-50945D02*
X26320Y-50945D01*
X26320Y-50945D02*
X26950Y-50945D01*
X26950Y-50945D02*
X27580Y-50945D01*
X27580Y-50945D02*
X28057Y-50945D01*
X28057Y-50945D02*
X28849Y-50945D01*
X28849Y-50945D02*
X35849Y-50945D01*
X35849Y-50945D02*
X36675Y-50945D01*
X24325Y-51025D02*
X26320Y-51025D01*
X26320Y-51025D02*
X26950Y-51025D01*
X26950Y-51025D02*
X27580Y-51025D01*
X27580Y-51025D02*
X28057Y-51025D01*
X28057Y-51025D02*
X28849Y-51025D01*
X28849Y-51025D02*
X35849Y-51025D01*
X35849Y-51025D02*
X36675Y-51025D01*
X24325Y-51105D02*
X26320Y-51105D01*
X26320Y-51105D02*
X26950Y-51105D01*
X26950Y-51105D02*
X27580Y-51105D01*
X27580Y-51105D02*
X28057Y-51105D01*
X28057Y-51105D02*
X28849Y-51105D01*
X28849Y-51105D02*
X35849Y-51105D01*
X35849Y-51105D02*
X36675Y-51105D01*
X24325Y-51185D02*
X26320Y-51185D01*
X26320Y-51185D02*
X26950Y-51185D01*
X26950Y-51185D02*
X27580Y-51185D01*
X27580Y-51185D02*
X28057Y-51185D01*
X28057Y-51185D02*
X28849Y-51185D01*
X28849Y-51185D02*
X35849Y-51185D01*
X35849Y-51185D02*
X36675Y-51185D01*
X24325Y-51265D02*
X26320Y-51265D01*
X26320Y-51265D02*
X26950Y-51265D01*
X26950Y-51265D02*
X27580Y-51265D01*
X27580Y-51265D02*
X28057Y-51265D01*
X28057Y-51265D02*
X28849Y-51265D01*
X28849Y-51265D02*
X35849Y-51265D01*
X35849Y-51265D02*
X36675Y-51265D01*
X24325Y-51345D02*
X26320Y-51345D01*
X26320Y-51345D02*
X26950Y-51345D01*
X26950Y-51345D02*
X27580Y-51345D01*
X27580Y-51345D02*
X28057Y-51345D01*
X28057Y-51345D02*
X28849Y-51345D01*
X28849Y-51345D02*
X35849Y-51345D01*
X35849Y-51345D02*
X36675Y-51345D01*
X24325Y-51425D02*
X26320Y-51425D01*
X26320Y-51425D02*
X26950Y-51425D01*
X26950Y-51425D02*
X27580Y-51425D01*
X27580Y-51425D02*
X28057Y-51425D01*
X28057Y-51425D02*
X28849Y-51425D01*
X28849Y-51425D02*
X35849Y-51425D01*
X35849Y-51425D02*
X36675Y-51425D01*
X24325Y-51505D02*
X26320Y-51505D01*
X26320Y-51505D02*
X26950Y-51505D01*
X26950Y-51505D02*
X27580Y-51505D01*
X27580Y-51505D02*
X28057Y-51505D01*
X28057Y-51505D02*
X28849Y-51505D01*
X28849Y-51505D02*
X35849Y-51505D01*
X35849Y-51505D02*
X36675Y-51505D01*
X24325Y-51585D02*
X26221Y-51585D01*
X26479Y-51585D02*
X26950Y-51585D01*
X26950Y-51585D02*
X27580Y-51585D01*
X27580Y-51585D02*
X28057Y-51585D01*
X28057Y-51585D02*
X28849Y-51585D01*
X28849Y-51585D02*
X29221Y-51585D01*
X29479Y-51585D02*
X31521Y-51585D01*
X31779Y-51585D02*
X34521Y-51585D01*
X34779Y-51585D02*
X35849Y-51585D01*
X35849Y-51585D02*
X36675Y-51585D01*
X24325Y-51665D02*
X26042Y-51665D01*
X26657Y-51665D02*
X26950Y-51665D01*
X26950Y-51665D02*
X27580Y-51665D01*
X27580Y-51665D02*
X28057Y-51665D01*
X28057Y-51665D02*
X28849Y-51665D01*
X28849Y-51665D02*
X29042Y-51665D01*
X29657Y-51665D02*
X31342Y-51665D01*
X31957Y-51665D02*
X34342Y-51665D01*
X34957Y-51665D02*
X35849Y-51665D01*
X35849Y-51665D02*
X36675Y-51665D01*
X24325Y-51745D02*
X25962Y-51745D01*
X26737Y-51745D02*
X26950Y-51745D01*
X26950Y-51745D02*
X27580Y-51745D01*
X27580Y-51745D02*
X28057Y-51745D01*
X28057Y-51745D02*
X28849Y-51745D01*
X28849Y-51745D02*
X28962Y-51745D01*
X29737Y-51745D02*
X31262Y-51745D01*
X32037Y-51745D02*
X34262Y-51745D01*
X35037Y-51745D02*
X35849Y-51745D01*
X35849Y-51745D02*
X36675Y-51745D01*
X24325Y-51825D02*
X25895Y-51825D01*
X26804Y-51825D02*
X26950Y-51825D01*
X26950Y-51825D02*
X27580Y-51825D01*
X27580Y-51825D02*
X28057Y-51825D01*
X28057Y-51825D02*
X28849Y-51825D01*
X28849Y-51825D02*
X28895Y-51825D01*
X29804Y-51825D02*
X31195Y-51825D01*
X32104Y-51825D02*
X34195Y-51825D01*
X35104Y-51825D02*
X35849Y-51825D01*
X35849Y-51825D02*
X36675Y-51825D01*
X24325Y-51905D02*
X25862Y-51905D01*
X26837Y-51905D02*
X26950Y-51905D01*
X26950Y-51905D02*
X27580Y-51905D01*
X27580Y-51905D02*
X28057Y-51905D01*
X28057Y-51905D02*
X28849Y-51905D01*
X28849Y-51905D02*
X28862Y-51905D01*
X29837Y-51905D02*
X31162Y-51905D01*
X32137Y-51905D02*
X34162Y-51905D01*
X35137Y-51905D02*
X35849Y-51905D01*
X35849Y-51905D02*
X36675Y-51905D01*
X24325Y-51985D02*
X25829Y-51985D01*
X26870Y-51985D02*
X26950Y-51985D01*
X26950Y-51985D02*
X27580Y-51985D01*
X27580Y-51985D02*
X28057Y-51985D01*
X28057Y-51985D02*
X28829Y-51985D01*
X29870Y-51985D02*
X31129Y-51985D01*
X32170Y-51985D02*
X34129Y-51985D01*
X35170Y-51985D02*
X35849Y-51985D01*
X35849Y-51985D02*
X36675Y-51985D01*
X24325Y-52065D02*
X25825Y-52065D01*
X26875Y-52065D02*
X26950Y-52065D01*
X26950Y-52065D02*
X27580Y-52065D01*
X27580Y-52065D02*
X28057Y-52065D01*
X28057Y-52065D02*
X28825Y-52065D01*
X29875Y-52065D02*
X31125Y-52065D01*
X32175Y-52065D02*
X34125Y-52065D01*
X35175Y-52065D02*
X35849Y-52065D01*
X35849Y-52065D02*
X36675Y-52065D01*
X24325Y-52145D02*
X25825Y-52145D01*
X26875Y-52145D02*
X26950Y-52145D01*
X26950Y-52145D02*
X27580Y-52145D01*
X27580Y-52145D02*
X28057Y-52145D01*
X28057Y-52145D02*
X28825Y-52145D01*
X29875Y-52145D02*
X31125Y-52145D01*
X32175Y-52145D02*
X34125Y-52145D01*
X35175Y-52145D02*
X35849Y-52145D01*
X35849Y-52145D02*
X36675Y-52145D01*
X24325Y-52225D02*
X25834Y-52225D01*
X26867Y-52225D02*
X26875Y-52225D01*
X26875Y-52225D02*
X26950Y-52225D01*
X26950Y-52225D02*
X27580Y-52225D01*
X27580Y-52225D02*
X28057Y-52225D01*
X28057Y-52225D02*
X28834Y-52225D01*
X29867Y-52225D02*
X29875Y-52225D01*
X29875Y-52225D02*
X31134Y-52225D01*
X32167Y-52225D02*
X32175Y-52225D01*
X32175Y-52225D02*
X34134Y-52225D01*
X35167Y-52225D02*
X35175Y-52225D01*
X35175Y-52225D02*
X35849Y-52225D01*
X35849Y-52225D02*
X36675Y-52225D01*
X24325Y-52305D02*
X25867Y-52305D01*
X26834Y-52305D02*
X26875Y-52305D01*
X26875Y-52305D02*
X26950Y-52305D01*
X26950Y-52305D02*
X27580Y-52305D01*
X27580Y-52305D02*
X28057Y-52305D01*
X28057Y-52305D02*
X28867Y-52305D01*
X29834Y-52305D02*
X29875Y-52305D01*
X29875Y-52305D02*
X31167Y-52305D01*
X32134Y-52305D02*
X32175Y-52305D01*
X32175Y-52305D02*
X34167Y-52305D01*
X35134Y-52305D02*
X35175Y-52305D01*
X35175Y-52305D02*
X35849Y-52305D01*
X35849Y-52305D02*
X36675Y-52305D01*
X24325Y-52385D02*
X25901Y-52385D01*
X26801Y-52385D02*
X26875Y-52385D01*
X26875Y-52385D02*
X26950Y-52385D01*
X26950Y-52385D02*
X27580Y-52385D01*
X27580Y-52385D02*
X28057Y-52385D01*
X28057Y-52385D02*
X28901Y-52385D01*
X29801Y-52385D02*
X29875Y-52385D01*
X29875Y-52385D02*
X31201Y-52385D01*
X32101Y-52385D02*
X32175Y-52385D01*
X32175Y-52385D02*
X34201Y-52385D01*
X35101Y-52385D02*
X35175Y-52385D01*
X35175Y-52385D02*
X35849Y-52385D01*
X35849Y-52385D02*
X36675Y-52385D01*
X24325Y-52465D02*
X25973Y-52465D01*
X26728Y-52465D02*
X26875Y-52465D01*
X26875Y-52465D02*
X26950Y-52465D01*
X26950Y-52465D02*
X27580Y-52465D01*
X27580Y-52465D02*
X28057Y-52465D01*
X28057Y-52465D02*
X28973Y-52465D01*
X29728Y-52465D02*
X29875Y-52465D01*
X29875Y-52465D02*
X31273Y-52465D01*
X32028Y-52465D02*
X32175Y-52465D01*
X32175Y-52465D02*
X34273Y-52465D01*
X35028Y-52465D02*
X35175Y-52465D01*
X35175Y-52465D02*
X35849Y-52465D01*
X35849Y-52465D02*
X36675Y-52465D01*
X24325Y-52545D02*
X26052Y-52545D01*
X26647Y-52545D02*
X26875Y-52545D01*
X26875Y-52545D02*
X26950Y-52545D01*
X26950Y-52545D02*
X27580Y-52545D01*
X27580Y-52545D02*
X28057Y-52545D01*
X28057Y-52545D02*
X29052Y-52545D01*
X29647Y-52545D02*
X29875Y-52545D01*
X29875Y-52545D02*
X31352Y-52545D01*
X31947Y-52545D02*
X32175Y-52545D01*
X32175Y-52545D02*
X34352Y-52545D01*
X34947Y-52545D02*
X35175Y-52545D01*
X35175Y-52545D02*
X35849Y-52545D01*
X35849Y-52545D02*
X36675Y-52545D01*
X24325Y-52625D02*
X26875Y-52625D01*
X26875Y-52625D02*
X26950Y-52625D01*
X26950Y-52625D02*
X27580Y-52625D01*
X27580Y-52625D02*
X28057Y-52625D01*
X28057Y-52625D02*
X29875Y-52625D01*
X29875Y-52625D02*
X32175Y-52625D01*
X32175Y-52625D02*
X35175Y-52625D01*
X35175Y-52625D02*
X35849Y-52625D01*
X35849Y-52625D02*
X36675Y-52625D01*
X24325Y-52705D02*
X26875Y-52705D01*
X26875Y-52705D02*
X26950Y-52705D01*
X26950Y-52705D02*
X27580Y-52705D01*
X27580Y-52705D02*
X28057Y-52705D01*
X28057Y-52705D02*
X29875Y-52705D01*
X29875Y-52705D02*
X32175Y-52705D01*
X32175Y-52705D02*
X35175Y-52705D01*
X35175Y-52705D02*
X35849Y-52705D01*
X35849Y-52705D02*
X36675Y-52705D01*
X24325Y-52785D02*
X26875Y-52785D01*
X26875Y-52785D02*
X26950Y-52785D01*
X26950Y-52785D02*
X27580Y-52785D01*
X27580Y-52785D02*
X28057Y-52785D01*
X28057Y-52785D02*
X29875Y-52785D01*
X29875Y-52785D02*
X32175Y-52785D01*
X32175Y-52785D02*
X35175Y-52785D01*
X35175Y-52785D02*
X35849Y-52785D01*
X35849Y-52785D02*
X36675Y-52785D01*
X24325Y-52865D02*
X26875Y-52865D01*
X26875Y-52865D02*
X26950Y-52865D01*
X26950Y-52865D02*
X27580Y-52865D01*
X27580Y-52865D02*
X28057Y-52865D01*
X28057Y-52865D02*
X29875Y-52865D01*
X29875Y-52865D02*
X32175Y-52865D01*
X32175Y-52865D02*
X35175Y-52865D01*
X35175Y-52865D02*
X35849Y-52865D01*
X35849Y-52865D02*
X36675Y-52865D01*
X24325Y-52945D02*
X26875Y-52945D01*
X26875Y-52945D02*
X26950Y-52945D01*
X26950Y-52945D02*
X27580Y-52945D01*
X27580Y-52945D02*
X28057Y-52945D01*
X28057Y-52945D02*
X29875Y-52945D01*
X29875Y-52945D02*
X32175Y-52945D01*
X32175Y-52945D02*
X35175Y-52945D01*
X35175Y-52945D02*
X35849Y-52945D01*
X35849Y-52945D02*
X36675Y-52945D01*
X24325Y-53025D02*
X26875Y-53025D01*
X26875Y-53025D02*
X26950Y-53025D01*
X26950Y-53025D02*
X27580Y-53025D01*
X27580Y-53025D02*
X28057Y-53025D01*
X28057Y-53025D02*
X29875Y-53025D01*
X29875Y-53025D02*
X32175Y-53025D01*
X32175Y-53025D02*
X35175Y-53025D01*
X35175Y-53025D02*
X35849Y-53025D01*
X35849Y-53025D02*
X36675Y-53025D01*
X24325Y-53105D02*
X26875Y-53105D01*
X26875Y-53105D02*
X26950Y-53105D01*
X26950Y-53105D02*
X27580Y-53105D01*
X27580Y-53105D02*
X28057Y-53105D01*
X28057Y-53105D02*
X29875Y-53105D01*
X29875Y-53105D02*
X32175Y-53105D01*
X32175Y-53105D02*
X35175Y-53105D01*
X35175Y-53105D02*
X35849Y-53105D01*
X35849Y-53105D02*
X36675Y-53105D01*
X24325Y-53185D02*
X26875Y-53185D01*
X26875Y-53185D02*
X26950Y-53185D01*
X26950Y-53185D02*
X27580Y-53185D01*
X27580Y-53185D02*
X28057Y-53185D01*
X28057Y-53185D02*
X29875Y-53185D01*
X29875Y-53185D02*
X32175Y-53185D01*
X32175Y-53185D02*
X35175Y-53185D01*
X35175Y-53185D02*
X35849Y-53185D01*
X35849Y-53185D02*
X36675Y-53185D01*
X24325Y-53265D02*
X26875Y-53265D01*
X26875Y-53265D02*
X26950Y-53265D01*
X26950Y-53265D02*
X27580Y-53265D01*
X27580Y-53265D02*
X28057Y-53265D01*
X28057Y-53265D02*
X29875Y-53265D01*
X29875Y-53265D02*
X32175Y-53265D01*
X32175Y-53265D02*
X35175Y-53265D01*
X35175Y-53265D02*
X35849Y-53265D01*
X35849Y-53265D02*
X36675Y-53265D01*
X24325Y-53345D02*
X26875Y-53345D01*
X26875Y-53345D02*
X26950Y-53345D01*
X26950Y-53345D02*
X27580Y-53345D01*
X27580Y-53345D02*
X28057Y-53345D01*
X28057Y-53345D02*
X29875Y-53345D01*
X29875Y-53345D02*
X32175Y-53345D01*
X32175Y-53345D02*
X35175Y-53345D01*
X35175Y-53345D02*
X35849Y-53345D01*
X35849Y-53345D02*
X36675Y-53345D01*
X24325Y-53425D02*
X26875Y-53425D01*
X26875Y-53425D02*
X26950Y-53425D01*
X26950Y-53425D02*
X27580Y-53425D01*
X27580Y-53425D02*
X28057Y-53425D01*
X28057Y-53425D02*
X29875Y-53425D01*
X29875Y-53425D02*
X32175Y-53425D01*
X32175Y-53425D02*
X35175Y-53425D01*
X35175Y-53425D02*
X35849Y-53425D01*
X35849Y-53425D02*
X36675Y-53425D01*
X24325Y-53505D02*
X26875Y-53505D01*
X26875Y-53505D02*
X26950Y-53505D01*
X26950Y-53505D02*
X27580Y-53505D01*
X27580Y-53505D02*
X28057Y-53505D01*
X28057Y-53505D02*
X29875Y-53505D01*
X29875Y-53505D02*
X32175Y-53505D01*
X32175Y-53505D02*
X35175Y-53505D01*
X35175Y-53505D02*
X35849Y-53505D01*
X35849Y-53505D02*
X36675Y-53505D01*
X24325Y-53585D02*
X26349Y-53585D01*
X26435Y-53585D02*
X26875Y-53585D01*
X26875Y-53585D02*
X26950Y-53585D01*
X26950Y-53585D02*
X27580Y-53585D01*
X27580Y-53585D02*
X28057Y-53585D01*
X28057Y-53585D02*
X29349Y-53585D01*
X29435Y-53585D02*
X29875Y-53585D01*
X29875Y-53585D02*
X31649Y-53585D01*
X31735Y-53585D02*
X32175Y-53585D01*
X32175Y-53585D02*
X34649Y-53585D01*
X34735Y-53585D02*
X35175Y-53585D01*
X35175Y-53585D02*
X35849Y-53585D01*
X35849Y-53585D02*
X36675Y-53585D01*
X24325Y-53665D02*
X26078Y-53665D01*
X26621Y-53665D02*
X26875Y-53665D01*
X26875Y-53665D02*
X26950Y-53665D01*
X26950Y-53665D02*
X27580Y-53665D01*
X27580Y-53665D02*
X28057Y-53665D01*
X28057Y-53665D02*
X29078Y-53665D01*
X29621Y-53665D02*
X29875Y-53665D01*
X29875Y-53665D02*
X31378Y-53665D01*
X31921Y-53665D02*
X32175Y-53665D01*
X32175Y-53665D02*
X34378Y-53665D01*
X34921Y-53665D02*
X35175Y-53665D01*
X35175Y-53665D02*
X35849Y-53665D01*
X35849Y-53665D02*
X36675Y-53665D01*
X25800Y-53745D02*
X26066Y-53745D01*
X26634Y-53745D02*
X26640Y-53745D01*
X26640Y-53745D02*
X26875Y-53745D01*
X26875Y-53745D02*
X26950Y-53745D01*
X26950Y-53745D02*
X27580Y-53745D01*
X27580Y-53745D02*
X28057Y-53745D01*
X28057Y-53745D02*
X29066Y-53745D01*
X29634Y-53745D02*
X29640Y-53745D01*
X29640Y-53745D02*
X29875Y-53745D01*
X29875Y-53745D02*
X31366Y-53745D01*
X31934Y-53745D02*
X31940Y-53745D01*
X31940Y-53745D02*
X32175Y-53745D01*
X32175Y-53745D02*
X34366Y-53745D01*
X34934Y-53745D02*
X34940Y-53745D01*
X34940Y-53745D02*
X35175Y-53745D01*
X35175Y-53745D02*
X35200Y-53745D01*
X25800Y-53825D02*
X25929Y-53825D01*
X26004Y-53825D02*
X26146Y-53825D01*
X26554Y-53825D02*
X26640Y-53825D01*
X26640Y-53825D02*
X26696Y-53825D01*
X26770Y-53825D02*
X26875Y-53825D01*
X26875Y-53825D02*
X26950Y-53825D01*
X26950Y-53825D02*
X27580Y-53825D01*
X27580Y-53825D02*
X28057Y-53825D01*
X28057Y-53825D02*
X28929Y-53825D01*
X29004Y-53825D02*
X29146Y-53825D01*
X29554Y-53825D02*
X29640Y-53825D01*
X29640Y-53825D02*
X29696Y-53825D01*
X29770Y-53825D02*
X29875Y-53825D01*
X29875Y-53825D02*
X31229Y-53825D01*
X31304Y-53825D02*
X31446Y-53825D01*
X31854Y-53825D02*
X31940Y-53825D01*
X31940Y-53825D02*
X31996Y-53825D01*
X32070Y-53825D02*
X32175Y-53825D01*
X32175Y-53825D02*
X34229Y-53825D01*
X34304Y-53825D02*
X34446Y-53825D01*
X34854Y-53825D02*
X34940Y-53825D01*
X34940Y-53825D02*
X34996Y-53825D01*
X35070Y-53825D02*
X35175Y-53825D01*
X35175Y-53825D02*
X35200Y-53825D01*
X25805Y-53905D02*
X25873Y-53905D01*
X26084Y-53905D02*
X26226Y-53905D01*
X26474Y-53905D02*
X26616Y-53905D01*
X26831Y-53905D02*
X26875Y-53905D01*
X26875Y-53905D02*
X26950Y-53905D01*
X26950Y-53905D02*
X27580Y-53905D01*
X27580Y-53905D02*
X28057Y-53905D01*
X28057Y-53905D02*
X28873Y-53905D01*
X29084Y-53905D02*
X29226Y-53905D01*
X29474Y-53905D02*
X29616Y-53905D01*
X29831Y-53905D02*
X29875Y-53905D01*
X29875Y-53905D02*
X31173Y-53905D01*
X31384Y-53905D02*
X31526Y-53905D01*
X31774Y-53905D02*
X31916Y-53905D01*
X32131Y-53905D02*
X32175Y-53905D01*
X32175Y-53905D02*
X34173Y-53905D01*
X34384Y-53905D02*
X34526Y-53905D01*
X34774Y-53905D02*
X34916Y-53905D01*
X35131Y-53905D02*
X35175Y-53905D01*
X35175Y-53905D02*
X35194Y-53905D01*
X25821Y-53985D02*
X25845Y-53985D01*
X26164Y-53985D02*
X26306Y-53985D01*
X26394Y-53985D02*
X26536Y-53985D01*
X26858Y-53985D02*
X26875Y-53985D01*
X26875Y-53985D02*
X26950Y-53985D01*
X26950Y-53985D02*
X27580Y-53985D01*
X27580Y-53985D02*
X28057Y-53985D01*
X28057Y-53985D02*
X28845Y-53985D01*
X29164Y-53985D02*
X29306Y-53985D01*
X29394Y-53985D02*
X29536Y-53985D01*
X29858Y-53985D02*
X29875Y-53985D01*
X29875Y-53985D02*
X31145Y-53985D01*
X31464Y-53985D02*
X31606Y-53985D01*
X31694Y-53985D02*
X31836Y-53985D01*
X32158Y-53985D02*
X32175Y-53985D01*
X32175Y-53985D02*
X34145Y-53985D01*
X34464Y-53985D02*
X34606Y-53985D01*
X34694Y-53985D02*
X34836Y-53985D01*
X35158Y-53985D02*
X35175Y-53985D01*
X35175Y-53985D02*
X35178Y-53985D01*
X25825Y-54065D02*
X25834Y-54065D01*
X26244Y-54065D02*
X26456Y-54065D01*
X26863Y-54065D02*
X26875Y-54065D01*
X26875Y-54065D02*
X26950Y-54065D01*
X26950Y-54065D02*
X27580Y-54065D01*
X27580Y-54065D02*
X28057Y-54065D01*
X28057Y-54065D02*
X28834Y-54065D01*
X29244Y-54065D02*
X29456Y-54065D01*
X29863Y-54065D02*
X29875Y-54065D01*
X29875Y-54065D02*
X31134Y-54065D01*
X31544Y-54065D02*
X31756Y-54065D01*
X32163Y-54065D02*
X32175Y-54065D01*
X32175Y-54065D02*
X34134Y-54065D01*
X34544Y-54065D02*
X34756Y-54065D01*
X35163Y-54065D02*
X35175Y-54065D01*
X25825Y-54145D02*
X25838Y-54145D01*
X26234Y-54145D02*
X26279Y-54145D01*
X26279Y-54145D02*
X26466Y-54145D01*
X26867Y-54145D02*
X26875Y-54145D01*
X26875Y-54145D02*
X26950Y-54145D01*
X26950Y-54145D02*
X27580Y-54145D01*
X27580Y-54145D02*
X28057Y-54145D01*
X28057Y-54145D02*
X28838Y-54145D01*
X29234Y-54145D02*
X29279Y-54145D01*
X29279Y-54145D02*
X29466Y-54145D01*
X29867Y-54145D02*
X29875Y-54145D01*
X29875Y-54145D02*
X31138Y-54145D01*
X31534Y-54145D02*
X31579Y-54145D01*
X31579Y-54145D02*
X31766Y-54145D01*
X32167Y-54145D02*
X32175Y-54145D01*
X32175Y-54145D02*
X34138Y-54145D01*
X34534Y-54145D02*
X34579Y-54145D01*
X34579Y-54145D02*
X34766Y-54145D01*
X35167Y-54145D02*
X35175Y-54145D01*
X25825Y-54225D02*
X25842Y-54225D01*
X26154Y-54225D02*
X26279Y-54225D01*
X26279Y-54225D02*
X26296Y-54225D01*
X26404Y-54225D02*
X26546Y-54225D01*
X26852Y-54225D02*
X26869Y-54225D01*
X26869Y-54225D02*
X26875Y-54225D01*
X26875Y-54225D02*
X26950Y-54225D01*
X26950Y-54225D02*
X27580Y-54225D01*
X27580Y-54225D02*
X28057Y-54225D01*
X28057Y-54225D02*
X28842Y-54225D01*
X29154Y-54225D02*
X29279Y-54225D01*
X29279Y-54225D02*
X29296Y-54225D01*
X29404Y-54225D02*
X29546Y-54225D01*
X29852Y-54225D02*
X29869Y-54225D01*
X29869Y-54225D02*
X29875Y-54225D01*
X29875Y-54225D02*
X31142Y-54225D01*
X31454Y-54225D02*
X31579Y-54225D01*
X31579Y-54225D02*
X31596Y-54225D01*
X31704Y-54225D02*
X31846Y-54225D01*
X32152Y-54225D02*
X32169Y-54225D01*
X32169Y-54225D02*
X32175Y-54225D01*
X32175Y-54225D02*
X34142Y-54225D01*
X34454Y-54225D02*
X34579Y-54225D01*
X34579Y-54225D02*
X34596Y-54225D01*
X34704Y-54225D02*
X34846Y-54225D01*
X35152Y-54225D02*
X35169Y-54225D01*
X35169Y-54225D02*
X35175Y-54225D01*
X25825Y-54305D02*
X25873Y-54305D01*
X26074Y-54305D02*
X26216Y-54305D01*
X26484Y-54305D02*
X26626Y-54305D01*
X26824Y-54305D02*
X26869Y-54305D01*
X26869Y-54305D02*
X26875Y-54305D01*
X26875Y-54305D02*
X26950Y-54305D01*
X26950Y-54305D02*
X27580Y-54305D01*
X27580Y-54305D02*
X28057Y-54305D01*
X28057Y-54305D02*
X28873Y-54305D01*
X29074Y-54305D02*
X29216Y-54305D01*
X29484Y-54305D02*
X29626Y-54305D01*
X29824Y-54305D02*
X29869Y-54305D01*
X29869Y-54305D02*
X29875Y-54305D01*
X29875Y-54305D02*
X31173Y-54305D01*
X31374Y-54305D02*
X31516Y-54305D01*
X31784Y-54305D02*
X31926Y-54305D01*
X32124Y-54305D02*
X32169Y-54305D01*
X32169Y-54305D02*
X32175Y-54305D01*
X32175Y-54305D02*
X34173Y-54305D01*
X34374Y-54305D02*
X34516Y-54305D01*
X34784Y-54305D02*
X34926Y-54305D01*
X35124Y-54305D02*
X35169Y-54305D01*
X35169Y-54305D02*
X35175Y-54305D01*
X25825Y-54385D02*
X25970Y-54385D01*
X25994Y-54385D02*
X26136Y-54385D01*
X26564Y-54385D02*
X26706Y-54385D01*
X26731Y-54385D02*
X26869Y-54385D01*
X26869Y-54385D02*
X26875Y-54385D01*
X26875Y-54385D02*
X26950Y-54385D01*
X26950Y-54385D02*
X27580Y-54385D01*
X27580Y-54385D02*
X28057Y-54385D01*
X28057Y-54385D02*
X28970Y-54385D01*
X28994Y-54385D02*
X29136Y-54385D01*
X29564Y-54385D02*
X29706Y-54385D01*
X29731Y-54385D02*
X29869Y-54385D01*
X29869Y-54385D02*
X29875Y-54385D01*
X29875Y-54385D02*
X31270Y-54385D01*
X31294Y-54385D02*
X31436Y-54385D01*
X31864Y-54385D02*
X32006Y-54385D01*
X32031Y-54385D02*
X32169Y-54385D01*
X32169Y-54385D02*
X32175Y-54385D01*
X32175Y-54385D02*
X34270Y-54385D01*
X34294Y-54385D02*
X34436Y-54385D01*
X34864Y-54385D02*
X35006Y-54385D01*
X35031Y-54385D02*
X35169Y-54385D01*
X35169Y-54385D02*
X35175Y-54385D01*
X25825Y-54465D02*
X26062Y-54465D01*
X26639Y-54465D02*
X26640Y-54465D01*
X26640Y-54465D02*
X26869Y-54465D01*
X26869Y-54465D02*
X26875Y-54465D01*
X26875Y-54465D02*
X26950Y-54465D01*
X26950Y-54465D02*
X27580Y-54465D01*
X27580Y-54465D02*
X28057Y-54465D01*
X28057Y-54465D02*
X29062Y-54465D01*
X29639Y-54465D02*
X29640Y-54465D01*
X29640Y-54465D02*
X29869Y-54465D01*
X29869Y-54465D02*
X29875Y-54465D01*
X29875Y-54465D02*
X31362Y-54465D01*
X31939Y-54465D02*
X31940Y-54465D01*
X31940Y-54465D02*
X32169Y-54465D01*
X32169Y-54465D02*
X32175Y-54465D01*
X32175Y-54465D02*
X34362Y-54465D01*
X34939Y-54465D02*
X34940Y-54465D01*
X34940Y-54465D02*
X35169Y-54465D01*
X35169Y-54465D02*
X35175Y-54465D01*
X25825Y-54545D02*
X26082Y-54545D01*
X26619Y-54545D02*
X26640Y-54545D01*
X26640Y-54545D02*
X26869Y-54545D01*
X26869Y-54545D02*
X26875Y-54545D01*
X26875Y-54545D02*
X26950Y-54545D01*
X26950Y-54545D02*
X27580Y-54545D01*
X27580Y-54545D02*
X28057Y-54545D01*
X28057Y-54545D02*
X29082Y-54545D01*
X29619Y-54545D02*
X29640Y-54545D01*
X29640Y-54545D02*
X29869Y-54545D01*
X29869Y-54545D02*
X29875Y-54545D01*
X29875Y-54545D02*
X31382Y-54545D01*
X31919Y-54545D02*
X31940Y-54545D01*
X31940Y-54545D02*
X32169Y-54545D01*
X32169Y-54545D02*
X32175Y-54545D01*
X32175Y-54545D02*
X34382Y-54545D01*
X34919Y-54545D02*
X34940Y-54545D01*
X34940Y-54545D02*
X35169Y-54545D01*
X35169Y-54545D02*
X35175Y-54545D01*
X25825Y-54625D02*
X26640Y-54625D01*
X26640Y-54625D02*
X26869Y-54625D01*
X26869Y-54625D02*
X26875Y-54625D01*
X26875Y-54625D02*
X26950Y-54625D01*
X26950Y-54625D02*
X27580Y-54625D01*
X27580Y-54625D02*
X28057Y-54625D01*
X28057Y-54625D02*
X29640Y-54625D01*
X29640Y-54625D02*
X29869Y-54625D01*
X29869Y-54625D02*
X29875Y-54625D01*
X29875Y-54625D02*
X31940Y-54625D01*
X31940Y-54625D02*
X32169Y-54625D01*
X32169Y-54625D02*
X32175Y-54625D01*
X32175Y-54625D02*
X34940Y-54625D01*
X34940Y-54625D02*
X35169Y-54625D01*
X35169Y-54625D02*
X35175Y-54625D01*
X28404Y-34747D02*
X28366Y-34763D01*
X28337Y-34792D01*
X28319Y-34792D01*
X28257Y-34854D01*
X28258Y-34885D01*
X28266Y-34904D01*
X28258Y-34924D01*
X28258Y-35023D01*
X28258Y-35199D01*
X28266Y-35219D01*
X28258Y-35240D01*
X28258Y-35339D01*
X28258Y-35515D01*
X28266Y-35534D01*
X28258Y-35554D01*
X28258Y-35653D01*
X28258Y-35829D01*
X28259Y-35832D01*
X28248Y-35828D01*
X28149Y-35828D01*
X27973Y-35828D01*
X27955Y-35835D01*
X27938Y-35828D01*
X27839Y-35828D01*
X27663Y-35828D01*
X27640Y-35837D01*
X27618Y-35828D01*
X27519Y-35828D01*
X27343Y-35828D01*
X27325Y-35835D01*
X27308Y-35828D01*
X27209Y-35828D01*
X27033Y-35828D01*
X27010Y-35837D01*
X26988Y-35828D01*
X26889Y-35828D01*
X26713Y-35828D01*
X26695Y-35835D01*
X26678Y-35828D01*
X26579Y-35828D01*
X26403Y-35828D01*
X26380Y-35837D01*
X26358Y-35828D01*
X26259Y-35828D01*
X26083Y-35828D01*
X26060Y-35837D01*
X26038Y-35828D01*
X25939Y-35828D01*
X25763Y-35828D01*
X25762Y-35828D01*
X25762Y-35739D01*
X25762Y-35563D01*
X25752Y-35540D01*
X25762Y-35518D01*
X25762Y-35419D01*
X25762Y-35243D01*
X25752Y-35220D01*
X25762Y-35198D01*
X25762Y-35111D01*
X25915Y-35175D01*
X26084Y-35175D01*
X26240Y-35111D01*
X26360Y-34991D01*
X26425Y-34835D01*
X26425Y-34666D01*
X26361Y-34510D01*
X26241Y-34390D01*
X26085Y-34325D01*
X25916Y-34325D01*
X25762Y-34388D01*
X25762Y-34293D01*
X25754Y-34275D01*
X25762Y-34258D01*
X25762Y-34159D01*
X25762Y-33983D01*
X25752Y-33960D01*
X25762Y-33938D01*
X25762Y-33839D01*
X25762Y-33663D01*
X25754Y-33645D01*
X25762Y-33628D01*
X25762Y-33529D01*
X25762Y-33353D01*
X25757Y-33341D01*
X25769Y-33346D01*
X25868Y-33346D01*
X26044Y-33346D01*
X26064Y-33337D01*
X26084Y-33346D01*
X26183Y-33346D01*
X26359Y-33346D01*
X26379Y-33337D01*
X26399Y-33346D01*
X26498Y-33346D01*
X26674Y-33346D01*
X26694Y-33337D01*
X26714Y-33346D01*
X26813Y-33346D01*
X26858Y-33346D01*
X26858Y-33367D01*
X26882Y-33485D01*
X26949Y-33585D01*
X27275Y-33911D01*
X27275Y-33984D01*
X27339Y-34140D01*
X27459Y-34260D01*
X27615Y-34325D01*
X27784Y-34325D01*
X27940Y-34261D01*
X28060Y-34141D01*
X28125Y-33985D01*
X28125Y-33911D01*
X28258Y-33778D01*
X28258Y-33939D01*
X28266Y-33959D01*
X28258Y-33980D01*
X28258Y-34079D01*
X28258Y-34255D01*
X28266Y-34274D01*
X28258Y-34294D01*
X28258Y-34393D01*
X28258Y-34569D01*
X28266Y-34590D01*
X28258Y-34611D01*
X28257Y-34642D01*
X28319Y-34704D01*
X28339Y-34704D01*
X28366Y-34731D01*
X28404Y-34747D01*
X26064Y-33337D02*
X26064Y-33337D01*
X26379Y-33337D02*
X26379Y-33337D01*
X26694Y-33337D02*
X26694Y-33337D01*
X25762Y-33417D02*
X26869Y-33417D01*
X25762Y-33497D02*
X26891Y-33497D01*
X25762Y-33577D02*
X26944Y-33577D01*
X25759Y-33657D02*
X27021Y-33657D01*
X25762Y-33737D02*
X27101Y-33737D01*
X25762Y-33817D02*
X27181Y-33817D01*
X28219Y-33817D02*
X28258Y-33817D01*
X25762Y-33897D02*
X27261Y-33897D01*
X28139Y-33897D02*
X28258Y-33897D01*
X25759Y-33977D02*
X27275Y-33977D01*
X28125Y-33977D02*
X28259Y-33977D01*
X25762Y-34057D02*
X27305Y-34057D01*
X28095Y-34057D02*
X28258Y-34057D01*
X25762Y-34137D02*
X27338Y-34137D01*
X28062Y-34137D02*
X28258Y-34137D01*
X25762Y-34217D02*
X27416Y-34217D01*
X27984Y-34217D02*
X28258Y-34217D01*
X25762Y-34297D02*
X27548Y-34297D01*
X27853Y-34297D02*
X28258Y-34297D01*
X25762Y-34377D02*
X25788Y-34377D01*
X26209Y-34377D02*
X28258Y-34377D01*
X26308Y-34457D02*
X28258Y-34457D01*
X26372Y-34537D02*
X28258Y-34537D01*
X26404Y-34617D02*
X28257Y-34617D01*
X26425Y-34697D02*
X28312Y-34697D01*
X26425Y-34777D02*
X28352Y-34777D01*
X26416Y-34857D02*
X28258Y-34857D01*
X26383Y-34937D02*
X28258Y-34937D01*
X26334Y-35017D02*
X28258Y-35017D01*
X26254Y-35097D02*
X28258Y-35097D01*
X25762Y-35177D02*
X28258Y-35177D01*
X25762Y-35257D02*
X28258Y-35257D01*
X25762Y-35337D02*
X28258Y-35337D01*
X25762Y-35417D02*
X28258Y-35417D01*
X25762Y-35497D02*
X28258Y-35497D01*
X25762Y-35577D02*
X28258Y-35577D01*
X25762Y-35657D02*
X28258Y-35657D01*
X25762Y-35737D02*
X28258Y-35737D01*
X25762Y-35817D02*
X28258Y-35817D01*
X24325Y-27825D02*
X24675Y-27825D01*
X36325Y-27825D02*
X36675Y-27825D01*
X24325Y-27905D02*
X24675Y-27905D01*
X36325Y-27905D02*
X36675Y-27905D01*
X24325Y-27985D02*
X24675Y-27985D01*
X36325Y-27985D02*
X36675Y-27985D01*
X24325Y-28065D02*
X24675Y-28065D01*
X36325Y-28065D02*
X36675Y-28065D01*
X24325Y-28145D02*
X24675Y-28145D01*
X36325Y-28145D02*
X36675Y-28145D01*
X24325Y-28225D02*
X24675Y-28225D01*
X36325Y-28225D02*
X36675Y-28225D01*
X24325Y-28305D02*
X24675Y-28305D01*
X36325Y-28305D02*
X36675Y-28305D01*
X24325Y-28385D02*
X24675Y-28385D01*
X36325Y-28385D02*
X36675Y-28385D01*
X24325Y-28465D02*
X24675Y-28465D01*
X36325Y-28465D02*
X36675Y-28465D01*
X24325Y-28545D02*
X24685Y-28545D01*
X36316Y-28545D02*
X36675Y-28545D01*
X24325Y-28625D02*
X24700Y-28625D01*
X36300Y-28625D02*
X36675Y-28625D01*
X24325Y-28705D02*
X24700Y-28705D01*
X36300Y-28705D02*
X36675Y-28705D01*
X24325Y-28785D02*
X24700Y-28785D01*
X36300Y-28785D02*
X36675Y-28785D01*
X24325Y-28865D02*
X30097Y-28865D01*
X30903Y-28865D02*
X36675Y-28865D01*
X24325Y-28945D02*
X36675Y-28945D01*
X24325Y-29025D02*
X30107Y-29025D01*
X30450Y-29025D02*
X30550Y-29025D01*
X30893Y-29025D02*
X36675Y-29025D01*
X24325Y-29105D02*
X30071Y-29105D01*
X30450Y-29105D02*
X30550Y-29105D01*
X30929Y-29105D02*
X36675Y-29105D01*
X24325Y-29185D02*
X29319Y-29185D01*
X29779Y-29185D02*
X30074Y-29185D01*
X30450Y-29185D02*
X30550Y-29185D01*
X30927Y-29185D02*
X36675Y-29185D01*
X24325Y-29265D02*
X29234Y-29265D01*
X29866Y-29265D02*
X30107Y-29265D01*
X30450Y-29265D02*
X30550Y-29265D01*
X30894Y-29265D02*
X36675Y-29265D01*
X24325Y-29345D02*
X29175Y-29345D01*
X30438Y-29345D02*
X30560Y-29345D01*
X31137Y-29345D02*
X36675Y-29345D01*
X24325Y-29425D02*
X29141Y-29425D01*
X31237Y-29425D02*
X36675Y-29425D01*
X24325Y-29505D02*
X29125Y-29505D01*
X31377Y-29505D02*
X36675Y-29505D01*
X24325Y-29585D02*
X24918Y-29585D01*
X25373Y-29585D02*
X25527Y-29585D01*
X25981Y-29585D02*
X26068Y-29585D01*
X26523Y-29585D02*
X26677Y-29585D01*
X27131Y-29585D02*
X27218Y-29585D01*
X27673Y-29585D02*
X27827Y-29585D01*
X28281Y-29585D02*
X29125Y-29585D01*
X31471Y-29585D02*
X36675Y-29585D01*
X24325Y-29665D02*
X24836Y-29665D01*
X25400Y-29665D02*
X25500Y-29665D01*
X26550Y-29665D02*
X26650Y-29665D01*
X27700Y-29665D02*
X27800Y-29665D01*
X28363Y-29665D02*
X29138Y-29665D01*
X31681Y-29665D02*
X36675Y-29665D01*
X24325Y-29745D02*
X24803Y-29745D01*
X25400Y-29745D02*
X25500Y-29745D01*
X26550Y-29745D02*
X26650Y-29745D01*
X27700Y-29745D02*
X27800Y-29745D01*
X28396Y-29745D02*
X29171Y-29745D01*
X31796Y-29745D02*
X36675Y-29745D01*
X24325Y-29825D02*
X24800Y-29825D01*
X25400Y-29825D02*
X25500Y-29825D01*
X26550Y-29825D02*
X26650Y-29825D01*
X27700Y-29825D02*
X27800Y-29825D01*
X28399Y-29825D02*
X29224Y-29825D01*
X31867Y-29825D02*
X36675Y-29825D01*
X24325Y-29905D02*
X24800Y-29905D01*
X25400Y-29905D02*
X25500Y-29905D01*
X26550Y-29905D02*
X26650Y-29905D01*
X27700Y-29905D02*
X27800Y-29905D01*
X28399Y-29905D02*
X29304Y-29905D01*
X31899Y-29905D02*
X36675Y-29905D01*
X24325Y-29985D02*
X24800Y-29985D01*
X25400Y-29985D02*
X25500Y-29985D01*
X26550Y-29985D02*
X26650Y-29985D01*
X27700Y-29985D02*
X27800Y-29985D01*
X28399Y-29985D02*
X29558Y-29985D01*
X31925Y-29985D02*
X36675Y-29985D01*
X24325Y-30065D02*
X25400Y-30065D01*
X25400Y-30065D02*
X26550Y-30065D01*
X26550Y-30065D02*
X27700Y-30065D01*
X27700Y-30065D02*
X28400Y-30065D01*
X28400Y-30065D02*
X29686Y-30065D01*
X31925Y-30065D02*
X36675Y-30065D01*
X24325Y-30145D02*
X25400Y-30145D01*
X25400Y-30145D02*
X26550Y-30145D01*
X26550Y-30145D02*
X27700Y-30145D01*
X27700Y-30145D02*
X28400Y-30145D01*
X28400Y-30145D02*
X29531Y-30145D01*
X31921Y-30145D02*
X36675Y-30145D01*
X24325Y-30225D02*
X24801Y-30225D01*
X25400Y-30225D02*
X25500Y-30225D01*
X26550Y-30225D02*
X26650Y-30225D01*
X27700Y-30225D02*
X27800Y-30225D01*
X28400Y-30225D02*
X28400Y-30225D01*
X28400Y-30225D02*
X29451Y-30225D01*
X31888Y-30225D02*
X36675Y-30225D01*
X24325Y-30305D02*
X24801Y-30305D01*
X25400Y-30305D02*
X25500Y-30305D01*
X26550Y-30305D02*
X26650Y-30305D01*
X27700Y-30305D02*
X27800Y-30305D01*
X28400Y-30305D02*
X28400Y-30305D01*
X28400Y-30305D02*
X29405Y-30305D01*
X31846Y-30305D02*
X36675Y-30305D01*
X24325Y-30385D02*
X24801Y-30385D01*
X25400Y-30385D02*
X25500Y-30385D01*
X26550Y-30385D02*
X26650Y-30385D01*
X27700Y-30385D02*
X27800Y-30385D01*
X28400Y-30385D02*
X28400Y-30385D01*
X28400Y-30385D02*
X29372Y-30385D01*
X31766Y-30385D02*
X36675Y-30385D01*
X24325Y-30465D02*
X24808Y-30465D01*
X25400Y-30465D02*
X25500Y-30465D01*
X26550Y-30465D02*
X26650Y-30465D01*
X27700Y-30465D02*
X27800Y-30465D01*
X28393Y-30465D02*
X28400Y-30465D01*
X28400Y-30465D02*
X29362Y-30465D01*
X31638Y-30465D02*
X36675Y-30465D01*
X24325Y-30545D02*
X24843Y-30545D01*
X25400Y-30545D02*
X25500Y-30545D01*
X26550Y-30545D02*
X26650Y-30545D01*
X27700Y-30545D02*
X27800Y-30545D01*
X28357Y-30545D02*
X28400Y-30545D01*
X28400Y-30545D02*
X29362Y-30545D01*
X31638Y-30545D02*
X36675Y-30545D01*
X24325Y-30625D02*
X24943Y-30625D01*
X25363Y-30625D02*
X25400Y-30625D01*
X25400Y-30625D02*
X25537Y-30625D01*
X25958Y-30625D02*
X26093Y-30625D01*
X26513Y-30625D02*
X26550Y-30625D01*
X26550Y-30625D02*
X26687Y-30625D01*
X27108Y-30625D02*
X27243Y-30625D01*
X27663Y-30625D02*
X27700Y-30625D01*
X27700Y-30625D02*
X27837Y-30625D01*
X28258Y-30625D02*
X28400Y-30625D01*
X28400Y-30625D02*
X29377Y-30625D01*
X31624Y-30625D02*
X36675Y-30625D01*
X24325Y-30705D02*
X25400Y-30705D01*
X25400Y-30705D02*
X26550Y-30705D01*
X26550Y-30705D02*
X27700Y-30705D01*
X27700Y-30705D02*
X28400Y-30705D01*
X28400Y-30705D02*
X29410Y-30705D01*
X31590Y-30705D02*
X36675Y-30705D01*
X24325Y-30785D02*
X25400Y-30785D01*
X25400Y-30785D02*
X26550Y-30785D01*
X26550Y-30785D02*
X27700Y-30785D01*
X27700Y-30785D02*
X28400Y-30785D01*
X28400Y-30785D02*
X29461Y-30785D01*
X31539Y-30785D02*
X36675Y-30785D01*
X24325Y-30865D02*
X24967Y-30865D01*
X25933Y-30865D02*
X26117Y-30865D01*
X27083Y-30865D02*
X27267Y-30865D01*
X28233Y-30865D02*
X28400Y-30865D01*
X28400Y-30865D02*
X28415Y-30865D01*
X28803Y-30865D02*
X28997Y-30865D01*
X29383Y-30865D02*
X29541Y-30865D01*
X31459Y-30865D02*
X36675Y-30865D01*
X24325Y-30945D02*
X24853Y-30945D01*
X28850Y-30945D02*
X28950Y-30945D01*
X29497Y-30945D02*
X29712Y-30945D01*
X29910Y-30945D02*
X29991Y-30945D01*
X31288Y-30945D02*
X36675Y-30945D01*
X24325Y-31025D02*
X24811Y-31025D01*
X28850Y-31025D02*
X28950Y-31025D01*
X29538Y-31025D02*
X29991Y-31025D01*
X31109Y-31025D02*
X36675Y-31025D01*
X24325Y-31105D02*
X24801Y-31105D01*
X28850Y-31105D02*
X28950Y-31105D01*
X29549Y-31105D02*
X29991Y-31105D01*
X31109Y-31105D02*
X36675Y-31105D01*
X24325Y-31185D02*
X24801Y-31185D01*
X28850Y-31185D02*
X28950Y-31185D01*
X29549Y-31185D02*
X29991Y-31185D01*
X31109Y-31185D02*
X36675Y-31185D01*
X24325Y-31265D02*
X24801Y-31265D01*
X28850Y-31265D02*
X28950Y-31265D01*
X29549Y-31265D02*
X29991Y-31265D01*
X31109Y-31265D02*
X36675Y-31265D01*
X24325Y-31345D02*
X24801Y-31345D01*
X28850Y-31345D02*
X28950Y-31345D01*
X29493Y-31345D02*
X29550Y-31345D01*
X29550Y-31345D02*
X29991Y-31345D01*
X31109Y-31345D02*
X36675Y-31345D01*
X24325Y-31425D02*
X24801Y-31425D01*
X28850Y-31425D02*
X29550Y-31425D01*
X29550Y-31425D02*
X29991Y-31425D01*
X31109Y-31425D02*
X36675Y-31425D01*
X24325Y-31505D02*
X24801Y-31505D01*
X28850Y-31505D02*
X28950Y-31505D01*
X29543Y-31505D02*
X29550Y-31505D01*
X29550Y-31505D02*
X29991Y-31505D01*
X31109Y-31505D02*
X36675Y-31505D01*
X24325Y-31585D02*
X24801Y-31585D01*
X28850Y-31585D02*
X28950Y-31585D01*
X29550Y-31585D02*
X29550Y-31585D01*
X29550Y-31585D02*
X29991Y-31585D01*
X31109Y-31585D02*
X36675Y-31585D01*
X24325Y-31665D02*
X24801Y-31665D01*
X28850Y-31665D02*
X28950Y-31665D01*
X29550Y-31665D02*
X29550Y-31665D01*
X29550Y-31665D02*
X29991Y-31665D01*
X31109Y-31665D02*
X36675Y-31665D01*
X24325Y-31745D02*
X24801Y-31745D01*
X28850Y-31745D02*
X28950Y-31745D01*
X29550Y-31745D02*
X29550Y-31745D01*
X29550Y-31745D02*
X29991Y-31745D01*
X31109Y-31745D02*
X36675Y-31745D01*
X24325Y-31825D02*
X24833Y-31825D01*
X28850Y-31825D02*
X28950Y-31825D01*
X29518Y-31825D02*
X29550Y-31825D01*
X29550Y-31825D02*
X29991Y-31825D01*
X31109Y-31825D02*
X36675Y-31825D01*
X24325Y-31905D02*
X24903Y-31905D01*
X25997Y-31905D02*
X26053Y-31905D01*
X28297Y-31905D02*
X28353Y-31905D01*
X28833Y-31905D02*
X28967Y-31905D01*
X29447Y-31905D02*
X29550Y-31905D01*
X29550Y-31905D02*
X29991Y-31905D01*
X31109Y-31905D02*
X36675Y-31905D01*
X24325Y-31985D02*
X26748Y-31985D01*
X27601Y-31985D02*
X29550Y-31985D01*
X29550Y-31985D02*
X29991Y-31985D01*
X31121Y-31985D02*
X36675Y-31985D01*
X24325Y-32065D02*
X25762Y-32065D01*
X26052Y-32065D02*
X26077Y-32065D01*
X26367Y-32065D02*
X26392Y-32065D01*
X26682Y-32065D02*
X26707Y-32065D01*
X27582Y-32065D02*
X27584Y-32065D01*
X27627Y-32065D02*
X27652Y-32065D01*
X27942Y-32065D02*
X27967Y-32065D01*
X28257Y-32065D02*
X29483Y-32065D01*
X31817Y-32065D02*
X36675Y-32065D01*
X24325Y-32145D02*
X25633Y-32145D01*
X28386Y-32145D02*
X29423Y-32145D01*
X31875Y-32145D02*
X36675Y-32145D01*
X24325Y-32225D02*
X25585Y-32225D01*
X31899Y-32225D02*
X36675Y-32225D01*
X24325Y-32305D02*
X25570Y-32305D01*
X31899Y-32305D02*
X36675Y-32305D01*
X24325Y-32385D02*
X25570Y-32385D01*
X31899Y-32385D02*
X36675Y-32385D01*
X24325Y-32465D02*
X25570Y-32465D01*
X31899Y-32465D02*
X36675Y-32465D01*
X24325Y-32545D02*
X25570Y-32545D01*
X31899Y-32545D02*
X36675Y-32545D01*
X24325Y-32625D02*
X25570Y-32625D01*
X31899Y-32625D02*
X36675Y-32625D01*
X24325Y-32705D02*
X25570Y-32705D01*
X31899Y-32705D02*
X36675Y-32705D01*
X24325Y-32785D02*
X25570Y-32785D01*
X31899Y-32785D02*
X36675Y-32785D01*
X24325Y-32865D02*
X25570Y-32865D01*
X31899Y-32865D02*
X36675Y-32865D01*
X24325Y-32945D02*
X25570Y-32945D01*
X31881Y-32945D02*
X36675Y-32945D01*
X24325Y-33025D02*
X25570Y-33025D01*
X30627Y-33025D02*
X30673Y-33025D01*
X31827Y-33025D02*
X36675Y-33025D01*
X24325Y-33105D02*
X25570Y-33105D01*
X29526Y-33105D02*
X36675Y-33105D01*
X24325Y-33185D02*
X24600Y-33185D01*
X29467Y-33185D02*
X36675Y-33185D01*
X24325Y-33265D02*
X24514Y-33265D01*
X29506Y-33265D02*
X36675Y-33265D01*
X24325Y-33345D02*
X24480Y-33345D01*
X30597Y-33345D02*
X30703Y-33345D01*
X31797Y-33345D02*
X36675Y-33345D01*
X24325Y-33425D02*
X24478Y-33425D01*
X31867Y-33425D02*
X36675Y-33425D01*
X24325Y-33505D02*
X24478Y-33505D01*
X31899Y-33505D02*
X36675Y-33505D01*
X24325Y-33585D02*
X24478Y-33585D01*
X31899Y-33585D02*
X36675Y-33585D01*
X24325Y-33665D02*
X24478Y-33665D01*
X31899Y-33665D02*
X36675Y-33665D01*
X24325Y-33745D02*
X24478Y-33745D01*
X31899Y-33745D02*
X36675Y-33745D01*
X24325Y-33825D02*
X24478Y-33825D01*
X31899Y-33825D02*
X36675Y-33825D01*
X24325Y-33905D02*
X24478Y-33905D01*
X31899Y-33905D02*
X36675Y-33905D01*
X24325Y-33985D02*
X24478Y-33985D01*
X31899Y-33985D02*
X36675Y-33985D01*
X24325Y-34065D02*
X24478Y-34065D01*
X31899Y-34065D02*
X36675Y-34065D01*
X24325Y-34145D02*
X24478Y-34145D01*
X31899Y-34145D02*
X36675Y-34145D01*
X24325Y-34225D02*
X24478Y-34225D01*
X31889Y-34225D02*
X36675Y-34225D01*
X24325Y-34305D02*
X24478Y-34305D01*
X31847Y-34305D02*
X36675Y-34305D01*
X24325Y-34385D02*
X24478Y-34385D01*
X31733Y-34385D02*
X36675Y-34385D01*
X24325Y-34465D02*
X24478Y-34465D01*
X31221Y-34465D02*
X36675Y-34465D01*
X24325Y-34545D02*
X24478Y-34545D01*
X31141Y-34545D02*
X36675Y-34545D01*
X24325Y-34625D02*
X24478Y-34625D01*
X31061Y-34625D02*
X36675Y-34625D01*
X24325Y-34705D02*
X24478Y-34705D01*
X30954Y-34705D02*
X36675Y-34705D01*
X24325Y-34785D02*
X24478Y-34785D01*
X30431Y-34785D02*
X30868Y-34785D01*
X31223Y-34785D02*
X31377Y-34785D01*
X31731Y-34785D02*
X36675Y-34785D01*
X24325Y-34865D02*
X24478Y-34865D01*
X30513Y-34865D02*
X30786Y-34865D01*
X31250Y-34865D02*
X31350Y-34865D01*
X31813Y-34865D02*
X36675Y-34865D01*
X24325Y-34945D02*
X24478Y-34945D01*
X30546Y-34945D02*
X30753Y-34945D01*
X31250Y-34945D02*
X31350Y-34945D01*
X31846Y-34945D02*
X36675Y-34945D01*
X24325Y-35025D02*
X24478Y-35025D01*
X30549Y-35025D02*
X30751Y-35025D01*
X31250Y-35025D02*
X31350Y-35025D01*
X31849Y-35025D02*
X36675Y-35025D01*
X24325Y-35105D02*
X24478Y-35105D01*
X30549Y-35105D02*
X30750Y-35105D01*
X31250Y-35105D02*
X31350Y-35105D01*
X31849Y-35105D02*
X36675Y-35105D01*
X24325Y-35185D02*
X24478Y-35185D01*
X30549Y-35185D02*
X30750Y-35185D01*
X31250Y-35185D02*
X31350Y-35185D01*
X31849Y-35185D02*
X36675Y-35185D01*
X24325Y-35265D02*
X24478Y-35265D01*
X30549Y-35265D02*
X30750Y-35265D01*
X31250Y-35265D02*
X31350Y-35265D01*
X31849Y-35265D02*
X36675Y-35265D01*
X24325Y-35345D02*
X24478Y-35345D01*
X30549Y-35345D02*
X30807Y-35345D01*
X31250Y-35345D02*
X31350Y-35345D01*
X31793Y-35345D02*
X31850Y-35345D01*
X31850Y-35345D02*
X36675Y-35345D01*
X24325Y-35425D02*
X24478Y-35425D01*
X30549Y-35425D02*
X31250Y-35425D01*
X31250Y-35425D02*
X31850Y-35425D01*
X31850Y-35425D02*
X36675Y-35425D01*
X24325Y-35505D02*
X24478Y-35505D01*
X30549Y-35505D02*
X30757Y-35505D01*
X31250Y-35505D02*
X31350Y-35505D01*
X31843Y-35505D02*
X31850Y-35505D01*
X31850Y-35505D02*
X36675Y-35505D01*
X24325Y-35585D02*
X24478Y-35585D01*
X30549Y-35585D02*
X30751Y-35585D01*
X31250Y-35585D02*
X31350Y-35585D01*
X31850Y-35585D02*
X31850Y-35585D01*
X31850Y-35585D02*
X36675Y-35585D01*
X24325Y-35665D02*
X24478Y-35665D01*
X30549Y-35665D02*
X30751Y-35665D01*
X31250Y-35665D02*
X31350Y-35665D01*
X31850Y-35665D02*
X31850Y-35665D01*
X31850Y-35665D02*
X33047Y-35665D01*
X33302Y-35665D02*
X33438Y-35665D01*
X33932Y-35665D02*
X34068Y-35665D01*
X34562Y-35665D02*
X34698Y-35665D01*
X34953Y-35665D02*
X36675Y-35665D01*
X24325Y-35745D02*
X24478Y-35745D01*
X30549Y-35745D02*
X30751Y-35745D01*
X31250Y-35745D02*
X31350Y-35745D01*
X31850Y-35745D02*
X31850Y-35745D01*
X31850Y-35745D02*
X32975Y-35745D01*
X33320Y-35745D02*
X33420Y-35745D01*
X33950Y-35745D02*
X34050Y-35745D01*
X34580Y-35745D02*
X34680Y-35745D01*
X35024Y-35745D02*
X36675Y-35745D01*
X24325Y-35825D02*
X24478Y-35825D01*
X30549Y-35825D02*
X30751Y-35825D01*
X31250Y-35825D02*
X31350Y-35825D01*
X31849Y-35825D02*
X31850Y-35825D01*
X31850Y-35825D02*
X32944Y-35825D01*
X33320Y-35825D02*
X33420Y-35825D01*
X33950Y-35825D02*
X34050Y-35825D01*
X34580Y-35825D02*
X34680Y-35825D01*
X35056Y-35825D02*
X36675Y-35825D01*
X24325Y-35905D02*
X24507Y-35905D01*
X30527Y-35905D02*
X30774Y-35905D01*
X31250Y-35905D02*
X31350Y-35905D01*
X31827Y-35905D02*
X31850Y-35905D01*
X31850Y-35905D02*
X32944Y-35905D01*
X33320Y-35905D02*
X33420Y-35905D01*
X33950Y-35905D02*
X34050Y-35905D01*
X34580Y-35905D02*
X34680Y-35905D01*
X35056Y-35905D02*
X36675Y-35905D01*
X24325Y-35985D02*
X24572Y-35985D01*
X30467Y-35985D02*
X30833Y-35985D01*
X31250Y-35985D02*
X31350Y-35985D01*
X31767Y-35985D02*
X31850Y-35985D01*
X31850Y-35985D02*
X32943Y-35985D01*
X33320Y-35985D02*
X33420Y-35985D01*
X33950Y-35985D02*
X34050Y-35985D01*
X34580Y-35985D02*
X34680Y-35985D01*
X35056Y-35985D02*
X36675Y-35985D01*
X24325Y-36065D02*
X25563Y-36065D01*
X29709Y-36065D02*
X31250Y-36065D01*
X31250Y-36065D02*
X31850Y-36065D01*
X31850Y-36065D02*
X32954Y-36065D01*
X33320Y-36065D02*
X33420Y-36065D01*
X33950Y-36065D02*
X34050Y-36065D01*
X34580Y-36065D02*
X34680Y-36065D01*
X35046Y-36065D02*
X35057Y-36065D01*
X35057Y-36065D02*
X36675Y-36065D01*
X24325Y-36145D02*
X25563Y-36145D01*
X29789Y-36145D02*
X31250Y-36145D01*
X31250Y-36145D02*
X31850Y-36145D01*
X31850Y-36145D02*
X33320Y-36145D01*
X33320Y-36145D02*
X33950Y-36145D01*
X33950Y-36145D02*
X34580Y-36145D01*
X34580Y-36145D02*
X35057Y-36145D01*
X35057Y-36145D02*
X36675Y-36145D01*
X24325Y-36225D02*
X25563Y-36225D01*
X29869Y-36225D02*
X31250Y-36225D01*
X31250Y-36225D02*
X31850Y-36225D01*
X31850Y-36225D02*
X32996Y-36225D01*
X33320Y-36225D02*
X33420Y-36225D01*
X33950Y-36225D02*
X34050Y-36225D01*
X34580Y-36225D02*
X34680Y-36225D01*
X35004Y-36225D02*
X35057Y-36225D01*
X35057Y-36225D02*
X36675Y-36225D01*
X24325Y-36305D02*
X25563Y-36305D01*
X29949Y-36305D02*
X31250Y-36305D01*
X31250Y-36305D02*
X31850Y-36305D01*
X31850Y-36305D02*
X32944Y-36305D01*
X33320Y-36305D02*
X33420Y-36305D01*
X33950Y-36305D02*
X34050Y-36305D01*
X34580Y-36305D02*
X34680Y-36305D01*
X35057Y-36305D02*
X35057Y-36305D01*
X35057Y-36305D02*
X36675Y-36305D01*
X24325Y-36385D02*
X25563Y-36385D01*
X30029Y-36385D02*
X31250Y-36385D01*
X31250Y-36385D02*
X31850Y-36385D01*
X31850Y-36385D02*
X32944Y-36385D01*
X33320Y-36385D02*
X33420Y-36385D01*
X33950Y-36385D02*
X34050Y-36385D01*
X34580Y-36385D02*
X34680Y-36385D01*
X35057Y-36385D02*
X35057Y-36385D01*
X35057Y-36385D02*
X36675Y-36385D01*
X24325Y-36465D02*
X25563Y-36465D01*
X30109Y-36465D02*
X31250Y-36465D01*
X31250Y-36465D02*
X31850Y-36465D01*
X31850Y-36465D02*
X32944Y-36465D01*
X33320Y-36465D02*
X33420Y-36465D01*
X33950Y-36465D02*
X34050Y-36465D01*
X34580Y-36465D02*
X34680Y-36465D01*
X35056Y-36465D02*
X35057Y-36465D01*
X35057Y-36465D02*
X36675Y-36465D01*
X24325Y-36545D02*
X25563Y-36545D01*
X30189Y-36545D02*
X31250Y-36545D01*
X31250Y-36545D02*
X31850Y-36545D01*
X31850Y-36545D02*
X32959Y-36545D01*
X33320Y-36545D02*
X33420Y-36545D01*
X33950Y-36545D02*
X34050Y-36545D01*
X34580Y-36545D02*
X34680Y-36545D01*
X35042Y-36545D02*
X35057Y-36545D01*
X35057Y-36545D02*
X36675Y-36545D01*
X24325Y-36625D02*
X25563Y-36625D01*
X30269Y-36625D02*
X31250Y-36625D01*
X31250Y-36625D02*
X31850Y-36625D01*
X31850Y-36625D02*
X33005Y-36625D01*
X33320Y-36625D02*
X33420Y-36625D01*
X33950Y-36625D02*
X34050Y-36625D01*
X34580Y-36625D02*
X34680Y-36625D01*
X34995Y-36625D02*
X35057Y-36625D01*
X35057Y-36625D02*
X36675Y-36625D01*
X24325Y-36705D02*
X25563Y-36705D01*
X30349Y-36705D02*
X31250Y-36705D01*
X31250Y-36705D02*
X31850Y-36705D01*
X31850Y-36705D02*
X33132Y-36705D01*
X33264Y-36705D02*
X33320Y-36705D01*
X33320Y-36705D02*
X33476Y-36705D01*
X33609Y-36705D02*
X33762Y-36705D01*
X33894Y-36705D02*
X33950Y-36705D01*
X33950Y-36705D02*
X34106Y-36705D01*
X34239Y-36705D02*
X34392Y-36705D01*
X34524Y-36705D02*
X34580Y-36705D01*
X34580Y-36705D02*
X34736Y-36705D01*
X34869Y-36705D02*
X35057Y-36705D01*
X35057Y-36705D02*
X36675Y-36705D01*
X24325Y-36785D02*
X25563Y-36785D01*
X30429Y-36785D02*
X31250Y-36785D01*
X31250Y-36785D02*
X31850Y-36785D01*
X31850Y-36785D02*
X33320Y-36785D01*
X33320Y-36785D02*
X33950Y-36785D01*
X33950Y-36785D02*
X34580Y-36785D01*
X34580Y-36785D02*
X35057Y-36785D01*
X35057Y-36785D02*
X36675Y-36785D01*
X24325Y-36865D02*
X25563Y-36865D01*
X30509Y-36865D02*
X31250Y-36865D01*
X31250Y-36865D02*
X31850Y-36865D01*
X31850Y-36865D02*
X33320Y-36865D01*
X33320Y-36865D02*
X33950Y-36865D01*
X33950Y-36865D02*
X34580Y-36865D01*
X34580Y-36865D02*
X35057Y-36865D01*
X35057Y-36865D02*
X36675Y-36865D01*
X24325Y-36945D02*
X25577Y-36945D01*
X30589Y-36945D02*
X31250Y-36945D01*
X31250Y-36945D02*
X31850Y-36945D01*
X31850Y-36945D02*
X33320Y-36945D01*
X33320Y-36945D02*
X33950Y-36945D01*
X33950Y-36945D02*
X34580Y-36945D01*
X34580Y-36945D02*
X35057Y-36945D01*
X35057Y-36945D02*
X36675Y-36945D01*
X24325Y-37025D02*
X25622Y-37025D01*
X30669Y-37025D02*
X31250Y-37025D01*
X31250Y-37025D02*
X31850Y-37025D01*
X31850Y-37025D02*
X33320Y-37025D01*
X33320Y-37025D02*
X33950Y-37025D01*
X33950Y-37025D02*
X34580Y-37025D01*
X34580Y-37025D02*
X35057Y-37025D01*
X35057Y-37025D02*
X36675Y-37025D01*
X24325Y-37105D02*
X25746Y-37105D01*
X26053Y-37105D02*
X26066Y-37105D01*
X26373Y-37105D02*
X26386Y-37105D01*
X26692Y-37105D02*
X26697Y-37105D01*
X30749Y-37105D02*
X31250Y-37105D01*
X31250Y-37105D02*
X31850Y-37105D01*
X31850Y-37105D02*
X33320Y-37105D01*
X33320Y-37105D02*
X33950Y-37105D01*
X33950Y-37105D02*
X34580Y-37105D01*
X34580Y-37105D02*
X35057Y-37105D01*
X35057Y-37105D02*
X36675Y-37105D01*
X24325Y-37185D02*
X26950Y-37185D01*
X30829Y-37185D02*
X31250Y-37185D01*
X31250Y-37185D02*
X31850Y-37185D01*
X31850Y-37185D02*
X33320Y-37185D01*
X33320Y-37185D02*
X33950Y-37185D01*
X33950Y-37185D02*
X34580Y-37185D01*
X34580Y-37185D02*
X35057Y-37185D01*
X35057Y-37185D02*
X36675Y-37185D01*
X24325Y-37265D02*
X27029Y-37265D01*
X30909Y-37265D02*
X31250Y-37265D01*
X31250Y-37265D02*
X31850Y-37265D01*
X31850Y-37265D02*
X33320Y-37265D01*
X33320Y-37265D02*
X33950Y-37265D01*
X33950Y-37265D02*
X34580Y-37265D01*
X34580Y-37265D02*
X35057Y-37265D01*
X35057Y-37265D02*
X36675Y-37265D01*
X24325Y-37345D02*
X27109Y-37345D01*
X30989Y-37345D02*
X31250Y-37345D01*
X31250Y-37345D02*
X31850Y-37345D01*
X31850Y-37345D02*
X33320Y-37345D01*
X33320Y-37345D02*
X33950Y-37345D01*
X33950Y-37345D02*
X34580Y-37345D01*
X34580Y-37345D02*
X35057Y-37345D01*
X35057Y-37345D02*
X36675Y-37345D01*
X24325Y-37425D02*
X27189Y-37425D01*
X31069Y-37425D02*
X31250Y-37425D01*
X31250Y-37425D02*
X31850Y-37425D01*
X31850Y-37425D02*
X33320Y-37425D01*
X33320Y-37425D02*
X33950Y-37425D01*
X33950Y-37425D02*
X34580Y-37425D01*
X34580Y-37425D02*
X35057Y-37425D01*
X35057Y-37425D02*
X36675Y-37425D01*
X24325Y-37505D02*
X27269Y-37505D01*
X31149Y-37505D02*
X31250Y-37505D01*
X31250Y-37505D02*
X31850Y-37505D01*
X31850Y-37505D02*
X33320Y-37505D01*
X33320Y-37505D02*
X33950Y-37505D01*
X33950Y-37505D02*
X34580Y-37505D01*
X34580Y-37505D02*
X35057Y-37505D01*
X35057Y-37505D02*
X36675Y-37505D01*
X24325Y-37585D02*
X27349Y-37585D01*
X31229Y-37585D02*
X31250Y-37585D01*
X31250Y-37585D02*
X31850Y-37585D01*
X31850Y-37585D02*
X33320Y-37585D01*
X33320Y-37585D02*
X33950Y-37585D01*
X33950Y-37585D02*
X34580Y-37585D01*
X34580Y-37585D02*
X35057Y-37585D01*
X35057Y-37585D02*
X36675Y-37585D01*
X24325Y-37665D02*
X27429Y-37665D01*
X31310Y-37665D02*
X31850Y-37665D01*
X31850Y-37665D02*
X33015Y-37665D01*
X34985Y-37665D02*
X35057Y-37665D01*
X35057Y-37665D02*
X36675Y-37665D01*
X24325Y-37745D02*
X27509Y-37745D01*
X31390Y-37745D02*
X31850Y-37745D01*
X31850Y-37745D02*
X32962Y-37745D01*
X35037Y-37745D02*
X35057Y-37745D01*
X35057Y-37745D02*
X36675Y-37745D01*
X24325Y-37825D02*
X27589Y-37825D01*
X31470Y-37825D02*
X31850Y-37825D01*
X31850Y-37825D02*
X32944Y-37825D01*
X35056Y-37825D02*
X35057Y-37825D01*
X35057Y-37825D02*
X36675Y-37825D01*
X24325Y-37905D02*
X27669Y-37905D01*
X31550Y-37905D02*
X31850Y-37905D01*
X31850Y-37905D02*
X32944Y-37905D01*
X35056Y-37905D02*
X35057Y-37905D01*
X35057Y-37905D02*
X36675Y-37905D01*
X24325Y-37985D02*
X27749Y-37985D01*
X31630Y-37985D02*
X31850Y-37985D01*
X31850Y-37985D02*
X32944Y-37985D01*
X35056Y-37985D02*
X35057Y-37985D01*
X35057Y-37985D02*
X36675Y-37985D01*
X24325Y-38065D02*
X27829Y-38065D01*
X31710Y-38065D02*
X31850Y-38065D01*
X31850Y-38065D02*
X32944Y-38065D01*
X35056Y-38065D02*
X35057Y-38065D01*
X35057Y-38065D02*
X36675Y-38065D01*
X24325Y-38145D02*
X27909Y-38145D01*
X31790Y-38145D02*
X31850Y-38145D01*
X31850Y-38145D02*
X32922Y-38145D01*
X35078Y-38145D02*
X36675Y-38145D01*
X24325Y-38225D02*
X27989Y-38225D01*
X31852Y-38225D02*
X32842Y-38225D01*
X35158Y-38225D02*
X36675Y-38225D01*
X24325Y-38305D02*
X28069Y-38305D01*
X31891Y-38305D02*
X32762Y-38305D01*
X35238Y-38305D02*
X36675Y-38305D01*
X24325Y-38385D02*
X28149Y-38385D01*
X31907Y-38385D02*
X32682Y-38385D01*
X35318Y-38385D02*
X36675Y-38385D01*
X24325Y-38465D02*
X28253Y-38465D01*
X31909Y-38465D02*
X32602Y-38465D01*
X35398Y-38465D02*
X36675Y-38465D01*
X24325Y-38545D02*
X28709Y-38545D01*
X31909Y-38545D02*
X32542Y-38545D01*
X35457Y-38545D02*
X36675Y-38545D01*
X24325Y-38625D02*
X28789Y-38625D01*
X31909Y-38625D02*
X32507Y-38625D01*
X35492Y-38625D02*
X36675Y-38625D01*
X24325Y-38705D02*
X28869Y-38705D01*
X31909Y-38705D02*
X32491Y-38705D01*
X35509Y-38705D02*
X36675Y-38705D01*
X24325Y-38785D02*
X28891Y-38785D01*
X31909Y-38785D02*
X32491Y-38785D01*
X35509Y-38785D02*
X36675Y-38785D01*
X24325Y-38865D02*
X28633Y-38865D01*
X32167Y-38865D02*
X32233Y-38865D01*
X35767Y-38865D02*
X36675Y-38865D01*
X24325Y-38945D02*
X28573Y-38945D01*
X35825Y-38945D02*
X36675Y-38945D01*
X24325Y-39025D02*
X28551Y-39025D01*
X35849Y-39025D02*
X36675Y-39025D01*
X24325Y-39105D02*
X28551Y-39105D01*
X35849Y-39105D02*
X36675Y-39105D01*
X24325Y-39185D02*
X28551Y-39185D01*
X35849Y-39185D02*
X36675Y-39185D01*
X24325Y-39265D02*
X28551Y-39265D01*
X35849Y-39265D02*
X36675Y-39265D01*
X24325Y-39345D02*
X28551Y-39345D01*
X35849Y-39345D02*
X36675Y-39345D01*
X24325Y-39425D02*
X28551Y-39425D01*
X35849Y-39425D02*
X36675Y-39425D01*
X24325Y-39505D02*
X28551Y-39505D01*
X35849Y-39505D02*
X36675Y-39505D01*
X24325Y-39585D02*
X28551Y-39585D01*
X35849Y-39585D02*
X36675Y-39585D01*
X24325Y-39665D02*
X28551Y-39665D01*
X35849Y-39665D02*
X36675Y-39665D01*
X24325Y-39745D02*
X28570Y-39745D01*
X35831Y-39745D02*
X35849Y-39745D01*
X35849Y-39745D02*
X36675Y-39745D01*
X24325Y-39825D02*
X28623Y-39825D01*
X29777Y-39825D02*
X29823Y-39825D01*
X30977Y-39825D02*
X31023Y-39825D01*
X32177Y-39825D02*
X32223Y-39825D01*
X33377Y-39825D02*
X33423Y-39825D01*
X34577Y-39825D02*
X34623Y-39825D01*
X35777Y-39825D02*
X35849Y-39825D01*
X35849Y-39825D02*
X36675Y-39825D01*
X24325Y-39905D02*
X35849Y-39905D01*
X35849Y-39905D02*
X36675Y-39905D01*
X24325Y-39985D02*
X35849Y-39985D01*
X35849Y-39985D02*
X36675Y-39985D01*
X24325Y-40065D02*
X35849Y-40065D01*
X35849Y-40065D02*
X36675Y-40065D01*
X24325Y-40145D02*
X28653Y-40145D01*
X29747Y-40145D02*
X29853Y-40145D01*
X30947Y-40145D02*
X31053Y-40145D01*
X32147Y-40145D02*
X32253Y-40145D01*
X33347Y-40145D02*
X33453Y-40145D01*
X34547Y-40145D02*
X34653Y-40145D01*
X35747Y-40145D02*
X35849Y-40145D01*
X35849Y-40145D02*
X36675Y-40145D01*
X24325Y-40225D02*
X28582Y-40225D01*
X35817Y-40225D02*
X35849Y-40225D01*
X35849Y-40225D02*
X36675Y-40225D01*
X24325Y-40305D02*
X28551Y-40305D01*
X35849Y-40305D02*
X36675Y-40305D01*
X24325Y-40385D02*
X28551Y-40385D01*
X35849Y-40385D02*
X36675Y-40385D01*
X24325Y-40465D02*
X28551Y-40465D01*
X35849Y-40465D02*
X36675Y-40465D01*
X24325Y-40545D02*
X28551Y-40545D01*
X35849Y-40545D02*
X36675Y-40545D01*
X24325Y-40625D02*
X28551Y-40625D01*
X35849Y-40625D02*
X36675Y-40625D01*
X24325Y-40705D02*
X28551Y-40705D01*
X35849Y-40705D02*
X36675Y-40705D01*
X24325Y-40785D02*
X28551Y-40785D01*
X35849Y-40785D02*
X36675Y-40785D01*
X24325Y-40865D02*
X28551Y-40865D01*
X35849Y-40865D02*
X36675Y-40865D01*
X24325Y-40945D02*
X28551Y-40945D01*
X35849Y-40945D02*
X36675Y-40945D01*
X24325Y-41025D02*
X28562Y-41025D01*
X35839Y-41025D02*
X35849Y-41025D01*
X35849Y-41025D02*
X36675Y-41025D01*
X24325Y-41105D02*
X28603Y-41105D01*
X35797Y-41105D02*
X35849Y-41105D01*
X35849Y-41105D02*
X36675Y-41105D01*
X24325Y-41185D02*
X28677Y-41185D01*
X35683Y-41185D02*
X35849Y-41185D01*
X35849Y-41185D02*
X36675Y-41185D01*
X24325Y-41265D02*
X28597Y-41265D01*
X35509Y-41265D02*
X35849Y-41265D01*
X35849Y-41265D02*
X36675Y-41265D01*
X24325Y-41345D02*
X28517Y-41345D01*
X35509Y-41345D02*
X35849Y-41345D01*
X35849Y-41345D02*
X36675Y-41345D01*
X24325Y-41425D02*
X28438Y-41425D01*
X35509Y-41425D02*
X35849Y-41425D01*
X35849Y-41425D02*
X36675Y-41425D01*
X24325Y-41505D02*
X28358Y-41505D01*
X35509Y-41505D02*
X35849Y-41505D01*
X35849Y-41505D02*
X36675Y-41505D01*
X24325Y-41585D02*
X25569Y-41585D01*
X26029Y-41585D02*
X26769Y-41585D01*
X27229Y-41585D02*
X27519Y-41585D01*
X27979Y-41585D02*
X28278Y-41585D01*
X35509Y-41585D02*
X35849Y-41585D01*
X35849Y-41585D02*
X36675Y-41585D01*
X24325Y-41665D02*
X25484Y-41665D01*
X26116Y-41665D02*
X26684Y-41665D01*
X27316Y-41665D02*
X27434Y-41665D01*
X28066Y-41665D02*
X28209Y-41665D01*
X35516Y-41665D02*
X35849Y-41665D01*
X35849Y-41665D02*
X36675Y-41665D01*
X24325Y-41745D02*
X25425Y-41745D01*
X26175Y-41745D02*
X26625Y-41745D01*
X28125Y-41745D02*
X28162Y-41745D01*
X35575Y-41745D02*
X35849Y-41745D01*
X35849Y-41745D02*
X36675Y-41745D01*
X24325Y-41825D02*
X25391Y-41825D01*
X26208Y-41825D02*
X26591Y-41825D01*
X35608Y-41825D02*
X35849Y-41825D01*
X35849Y-41825D02*
X36675Y-41825D01*
X24325Y-41905D02*
X25375Y-41905D01*
X26225Y-41905D02*
X26575Y-41905D01*
X35625Y-41905D02*
X35849Y-41905D01*
X35849Y-41905D02*
X36675Y-41905D01*
X24325Y-41985D02*
X25375Y-41985D01*
X26225Y-41985D02*
X26575Y-41985D01*
X35625Y-41985D02*
X35849Y-41985D01*
X35849Y-41985D02*
X36675Y-41985D01*
X24325Y-42065D02*
X25388Y-42065D01*
X26213Y-42065D02*
X26588Y-42065D01*
X35613Y-42065D02*
X35849Y-42065D01*
X35849Y-42065D02*
X36675Y-42065D01*
X24325Y-42145D02*
X25421Y-42145D01*
X26180Y-42145D02*
X26621Y-42145D01*
X28130Y-42145D02*
X28141Y-42145D01*
X35580Y-42145D02*
X35849Y-42145D01*
X35849Y-42145D02*
X36675Y-42145D01*
X24325Y-42225D02*
X25474Y-42225D01*
X26126Y-42225D02*
X26674Y-42225D01*
X28076Y-42225D02*
X28141Y-42225D01*
X35526Y-42225D02*
X35849Y-42225D01*
X35849Y-42225D02*
X36675Y-42225D01*
X24325Y-42305D02*
X25491Y-42305D01*
X26109Y-42305D02*
X26691Y-42305D01*
X28059Y-42305D02*
X28141Y-42305D01*
X35509Y-42305D02*
X35849Y-42305D01*
X35849Y-42305D02*
X36675Y-42305D01*
X24325Y-42385D02*
X25491Y-42385D01*
X26109Y-42385D02*
X26691Y-42385D01*
X28059Y-42385D02*
X28141Y-42385D01*
X35509Y-42385D02*
X35849Y-42385D01*
X35849Y-42385D02*
X36675Y-42385D01*
X24325Y-42465D02*
X25491Y-42465D01*
X26109Y-42465D02*
X26691Y-42465D01*
X28059Y-42465D02*
X28141Y-42465D01*
X35509Y-42465D02*
X35849Y-42465D01*
X35849Y-42465D02*
X36675Y-42465D01*
X24325Y-42545D02*
X25491Y-42545D01*
X26109Y-42545D02*
X26691Y-42545D01*
X28059Y-42545D02*
X28141Y-42545D01*
X35509Y-42545D02*
X35849Y-42545D01*
X35849Y-42545D02*
X36675Y-42545D01*
X24325Y-42625D02*
X25491Y-42625D01*
X26109Y-42625D02*
X26691Y-42625D01*
X28059Y-42625D02*
X28141Y-42625D01*
X35509Y-42625D02*
X35849Y-42625D01*
X35849Y-42625D02*
X36675Y-42625D01*
X24325Y-42705D02*
X25491Y-42705D01*
X26109Y-42705D02*
X26691Y-42705D01*
X28059Y-42705D02*
X28141Y-42705D01*
X35509Y-42705D02*
X35849Y-42705D01*
X35849Y-42705D02*
X36675Y-42705D01*
X24325Y-42785D02*
X25491Y-42785D01*
X26109Y-42785D02*
X26691Y-42785D01*
X28059Y-42785D02*
X28141Y-42785D01*
X35509Y-42785D02*
X35849Y-42785D01*
X35849Y-42785D02*
X36675Y-42785D01*
X24325Y-42865D02*
X25491Y-42865D01*
X26109Y-42865D02*
X26691Y-42865D01*
X28059Y-42865D02*
X28145Y-42865D01*
X35509Y-42865D02*
X35849Y-42865D01*
X35849Y-42865D02*
X36675Y-42865D01*
X24325Y-42945D02*
X25491Y-42945D01*
X26109Y-42945D02*
X26691Y-42945D01*
X28059Y-42945D02*
X28161Y-42945D01*
X35509Y-42945D02*
X35849Y-42945D01*
X35849Y-42945D02*
X36675Y-42945D01*
X24325Y-43025D02*
X25491Y-43025D01*
X26109Y-43025D02*
X26691Y-43025D01*
X28059Y-43025D02*
X28171Y-43025D01*
X35509Y-43025D02*
X35849Y-43025D01*
X35849Y-43025D02*
X36675Y-43025D01*
X24325Y-43105D02*
X25491Y-43105D01*
X26109Y-43105D02*
X26691Y-43105D01*
X28059Y-43105D02*
X28171Y-43105D01*
X35509Y-43105D02*
X35849Y-43105D01*
X35849Y-43105D02*
X36675Y-43105D01*
X24325Y-43185D02*
X25491Y-43185D01*
X26109Y-43185D02*
X26691Y-43185D01*
X28059Y-43185D02*
X28171Y-43185D01*
X35509Y-43185D02*
X35849Y-43185D01*
X35849Y-43185D02*
X36675Y-43185D01*
X24325Y-43265D02*
X25491Y-43265D01*
X26109Y-43265D02*
X26691Y-43265D01*
X28059Y-43265D02*
X28186Y-43265D01*
X35509Y-43265D02*
X35849Y-43265D01*
X35849Y-43265D02*
X36675Y-43265D01*
X24325Y-43345D02*
X25491Y-43345D01*
X26109Y-43345D02*
X26691Y-43345D01*
X28059Y-43345D02*
X28233Y-43345D01*
X35509Y-43345D02*
X35849Y-43345D01*
X35849Y-43345D02*
X36675Y-43345D01*
X24325Y-43425D02*
X25491Y-43425D01*
X26109Y-43425D02*
X26691Y-43425D01*
X28059Y-43425D02*
X28361Y-43425D01*
X28839Y-43425D02*
X28991Y-43425D01*
X35509Y-43425D02*
X35849Y-43425D01*
X35849Y-43425D02*
X36675Y-43425D01*
X24325Y-43505D02*
X25491Y-43505D01*
X26109Y-43505D02*
X26691Y-43505D01*
X28059Y-43505D02*
X28991Y-43505D01*
X35509Y-43505D02*
X35849Y-43505D01*
X35849Y-43505D02*
X36675Y-43505D01*
X24325Y-43585D02*
X25491Y-43585D01*
X26109Y-43585D02*
X26691Y-43585D01*
X28059Y-43585D02*
X28991Y-43585D01*
X35509Y-43585D02*
X35849Y-43585D01*
X35849Y-43585D02*
X36675Y-43585D01*
X24325Y-43665D02*
X25491Y-43665D01*
X26109Y-43665D02*
X26691Y-43665D01*
X28059Y-43665D02*
X28991Y-43665D01*
X35509Y-43665D02*
X35849Y-43665D01*
X35849Y-43665D02*
X36675Y-43665D01*
X24325Y-43745D02*
X25491Y-43745D01*
X26109Y-43745D02*
X26691Y-43745D01*
X28059Y-43745D02*
X28991Y-43745D01*
X35509Y-43745D02*
X35849Y-43745D01*
X35849Y-43745D02*
X36675Y-43745D01*
X24325Y-43825D02*
X25491Y-43825D01*
X26109Y-43825D02*
X26691Y-43825D01*
X28059Y-43825D02*
X28991Y-43825D01*
X35509Y-43825D02*
X35849Y-43825D01*
X35849Y-43825D02*
X36675Y-43825D01*
X24325Y-43905D02*
X25491Y-43905D01*
X26109Y-43905D02*
X26691Y-43905D01*
X28059Y-43905D02*
X28991Y-43905D01*
X35509Y-43905D02*
X35849Y-43905D01*
X35849Y-43905D02*
X36675Y-43905D01*
X24325Y-43985D02*
X25491Y-43985D01*
X26109Y-43985D02*
X26691Y-43985D01*
X28059Y-43985D02*
X28991Y-43985D01*
X35509Y-43985D02*
X35849Y-43985D01*
X35849Y-43985D02*
X36675Y-43985D01*
X24325Y-44065D02*
X25491Y-44065D01*
X26109Y-44065D02*
X26691Y-44065D01*
X28059Y-44065D02*
X28991Y-44065D01*
X35509Y-44065D02*
X35849Y-44065D01*
X35849Y-44065D02*
X36675Y-44065D01*
X24325Y-44145D02*
X25491Y-44145D01*
X26109Y-44145D02*
X26691Y-44145D01*
X28059Y-44145D02*
X28991Y-44145D01*
X35509Y-44145D02*
X35849Y-44145D01*
X35849Y-44145D02*
X36675Y-44145D01*
X24325Y-44225D02*
X25491Y-44225D01*
X26109Y-44225D02*
X26691Y-44225D01*
X28059Y-44225D02*
X28991Y-44225D01*
X35509Y-44225D02*
X35849Y-44225D01*
X35849Y-44225D02*
X36675Y-44225D01*
X24325Y-44305D02*
X25491Y-44305D01*
X26109Y-44305D02*
X26691Y-44305D01*
X28059Y-44305D02*
X28944Y-44305D01*
X35509Y-44305D02*
X35849Y-44305D01*
X35849Y-44305D02*
X36675Y-44305D01*
X24325Y-44385D02*
X25491Y-44385D01*
X26109Y-44385D02*
X26691Y-44385D01*
X28059Y-44385D02*
X28908Y-44385D01*
X35509Y-44385D02*
X35849Y-44385D01*
X35849Y-44385D02*
X36675Y-44385D01*
X24325Y-44465D02*
X25491Y-44465D01*
X26109Y-44465D02*
X26691Y-44465D01*
X28059Y-44465D02*
X28875Y-44465D01*
X35506Y-44465D02*
X35849Y-44465D01*
X35849Y-44465D02*
X36675Y-44465D01*
X24325Y-44545D02*
X25491Y-44545D01*
X26109Y-44545D02*
X26691Y-44545D01*
X28059Y-44545D02*
X28875Y-44545D01*
X35490Y-44545D02*
X35849Y-44545D01*
X35849Y-44545D02*
X36675Y-44545D01*
X24325Y-44625D02*
X25491Y-44625D01*
X26109Y-44625D02*
X26691Y-44625D01*
X28059Y-44625D02*
X28875Y-44625D01*
X35447Y-44625D02*
X35849Y-44625D01*
X35849Y-44625D02*
X36675Y-44625D01*
X24325Y-44705D02*
X25491Y-44705D01*
X26109Y-44705D02*
X26691Y-44705D01*
X28059Y-44705D02*
X28905Y-44705D01*
X35382Y-44705D02*
X35849Y-44705D01*
X35849Y-44705D02*
X36675Y-44705D01*
X24325Y-44785D02*
X25491Y-44785D01*
X26109Y-44785D02*
X26691Y-44785D01*
X28071Y-44785D02*
X28937Y-44785D01*
X35302Y-44785D02*
X35849Y-44785D01*
X35849Y-44785D02*
X36675Y-44785D01*
X24325Y-44865D02*
X25491Y-44865D01*
X26109Y-44865D02*
X26691Y-44865D01*
X28151Y-44865D02*
X29014Y-44865D01*
X29586Y-44865D02*
X31425Y-44865D01*
X35222Y-44865D02*
X35849Y-44865D01*
X35849Y-44865D02*
X36675Y-44865D01*
X24325Y-44945D02*
X25491Y-44945D01*
X26109Y-44945D02*
X26691Y-44945D01*
X28231Y-44945D02*
X29143Y-44945D01*
X29458Y-44945D02*
X31425Y-44945D01*
X35142Y-44945D02*
X35849Y-44945D01*
X35849Y-44945D02*
X36675Y-44945D01*
X24325Y-45025D02*
X25292Y-45025D01*
X26307Y-45025D02*
X26492Y-45025D01*
X28707Y-45025D02*
X31425Y-45025D01*
X35062Y-45025D02*
X35849Y-45025D01*
X35849Y-45025D02*
X36675Y-45025D01*
X24325Y-45105D02*
X25193Y-45105D01*
X28807Y-45105D02*
X31455Y-45105D01*
X34982Y-45105D02*
X35849Y-45105D01*
X35849Y-45105D02*
X36675Y-45105D01*
X24325Y-45185D02*
X25157Y-45185D01*
X28842Y-45185D02*
X31487Y-45185D01*
X34893Y-45185D02*
X35849Y-45185D01*
X35849Y-45185D02*
X36675Y-45185D01*
X24325Y-45265D02*
X25151Y-45265D01*
X28849Y-45265D02*
X31564Y-45265D01*
X32136Y-45265D02*
X35849Y-45265D01*
X35849Y-45265D02*
X36675Y-45265D01*
X24325Y-45345D02*
X25151Y-45345D01*
X28849Y-45345D02*
X31693Y-45345D01*
X32008Y-45345D02*
X35849Y-45345D01*
X35849Y-45345D02*
X36675Y-45345D01*
X24325Y-45425D02*
X25151Y-45425D01*
X28849Y-45425D02*
X35849Y-45425D01*
X35849Y-45425D02*
X36675Y-45425D01*
X24325Y-45505D02*
X25151Y-45505D01*
X28849Y-45505D02*
X35849Y-45505D01*
X35849Y-45505D02*
X36675Y-45505D01*
X24325Y-45585D02*
X25151Y-45585D01*
X28849Y-45585D02*
X35849Y-45585D01*
X35849Y-45585D02*
X36675Y-45585D01*
X24325Y-45665D02*
X25151Y-45665D01*
X28849Y-45665D02*
X35849Y-45665D01*
X35849Y-45665D02*
X36675Y-45665D01*
X24325Y-45745D02*
X25151Y-45745D01*
X28849Y-45745D02*
X35849Y-45745D01*
X35849Y-45745D02*
X36675Y-45745D01*
X24325Y-45825D02*
X25151Y-45825D01*
X28849Y-45825D02*
X35849Y-45825D01*
X35849Y-45825D02*
X36675Y-45825D01*
X24325Y-45905D02*
X25154Y-45905D01*
X28847Y-45905D02*
X35849Y-45905D01*
X35849Y-45905D02*
X36675Y-45905D01*
X24325Y-45985D02*
X25187Y-45985D01*
X28814Y-45985D02*
X35849Y-45985D01*
X35849Y-45985D02*
X36675Y-45985D01*
X24325Y-46065D02*
X25269Y-46065D01*
X26332Y-46065D02*
X26469Y-46065D01*
X27532Y-46065D02*
X27669Y-46065D01*
X28732Y-46065D02*
X35849Y-46065D01*
X35849Y-46065D02*
X36675Y-46065D01*
X24325Y-46145D02*
X35849Y-46145D01*
X35849Y-46145D02*
X36675Y-46145D01*
X24325Y-46225D02*
X35849Y-46225D01*
X35849Y-46225D02*
X36675Y-46225D01*
X24325Y-46305D02*
X25341Y-46305D01*
X26259Y-46305D02*
X26541Y-46305D01*
X27459Y-46305D02*
X27741Y-46305D01*
X28659Y-46305D02*
X35849Y-46305D01*
X35849Y-46305D02*
X36675Y-46305D01*
X24325Y-46385D02*
X25213Y-46385D01*
X26387Y-46385D02*
X26413Y-46385D01*
X27587Y-46385D02*
X27613Y-46385D01*
X28787Y-46385D02*
X35849Y-46385D01*
X35849Y-46385D02*
X36675Y-46385D01*
X24325Y-46465D02*
X25165Y-46465D01*
X28834Y-46465D02*
X35849Y-46465D01*
X35849Y-46465D02*
X36675Y-46465D01*
X24325Y-46545D02*
X25151Y-46545D01*
X28849Y-46545D02*
X35849Y-46545D01*
X35849Y-46545D02*
X36675Y-46545D01*
X24325Y-46625D02*
X25151Y-46625D01*
X28849Y-46625D02*
X35849Y-46625D01*
X35849Y-46625D02*
X36675Y-46625D01*
X24325Y-46705D02*
X25151Y-46705D01*
X28849Y-46705D02*
X35849Y-46705D01*
X35849Y-46705D02*
X36675Y-46705D01*
X24325Y-46785D02*
X25151Y-46785D01*
X28849Y-46785D02*
X35849Y-46785D01*
X35849Y-46785D02*
X36675Y-46785D01*
X24325Y-46865D02*
X25151Y-46865D01*
X28849Y-46865D02*
X35849Y-46865D01*
X35849Y-46865D02*
X36675Y-46865D01*
X24325Y-46945D02*
X25151Y-46945D01*
X28849Y-46945D02*
X35849Y-46945D01*
X35849Y-46945D02*
X36675Y-46945D01*
X24325Y-47025D02*
X25151Y-47025D01*
X28849Y-47025D02*
X35849Y-47025D01*
X35849Y-47025D02*
X36675Y-47025D01*
X24325Y-47105D02*
X25151Y-47105D01*
X28849Y-47105D02*
X35849Y-47105D01*
X35849Y-47105D02*
X36675Y-47105D01*
X24325Y-47185D02*
X25151Y-47185D01*
X28849Y-47185D02*
X35849Y-47185D01*
X35849Y-47185D02*
X36675Y-47185D01*
X24325Y-47265D02*
X25179Y-47265D01*
X28822Y-47265D02*
X28849Y-47265D01*
X28849Y-47265D02*
X35849Y-47265D01*
X35849Y-47265D02*
X36675Y-47265D01*
X24325Y-47345D02*
X25243Y-47345D01*
X28757Y-47345D02*
X28849Y-47345D01*
X28849Y-47345D02*
X35849Y-47345D01*
X35849Y-47345D02*
X36675Y-47345D01*
X24325Y-47425D02*
X25491Y-47425D01*
X28509Y-47425D02*
X28849Y-47425D01*
X28849Y-47425D02*
X35849Y-47425D01*
X35849Y-47425D02*
X36675Y-47425D01*
X24325Y-47505D02*
X25493Y-47505D01*
X28507Y-47505D02*
X28849Y-47505D01*
X28849Y-47505D02*
X35849Y-47505D01*
X35849Y-47505D02*
X36675Y-47505D01*
X24325Y-47585D02*
X25510Y-47585D01*
X28491Y-47585D02*
X28849Y-47585D01*
X28849Y-47585D02*
X35849Y-47585D01*
X35849Y-47585D02*
X36675Y-47585D01*
X24325Y-47665D02*
X25550Y-47665D01*
X28451Y-47665D02*
X28849Y-47665D01*
X28849Y-47665D02*
X35849Y-47665D01*
X35849Y-47665D02*
X36675Y-47665D01*
X24325Y-47745D02*
X25613Y-47745D01*
X28388Y-47745D02*
X28849Y-47745D01*
X28849Y-47745D02*
X35849Y-47745D01*
X35849Y-47745D02*
X36675Y-47745D01*
X24325Y-47825D02*
X25693Y-47825D01*
X28308Y-47825D02*
X28849Y-47825D01*
X28849Y-47825D02*
X35849Y-47825D01*
X35849Y-47825D02*
X36675Y-47825D01*
X24325Y-47905D02*
X25773Y-47905D01*
X28228Y-47905D02*
X28849Y-47905D01*
X28849Y-47905D02*
X35849Y-47905D01*
X35849Y-47905D02*
X36675Y-47905D01*
X24325Y-47985D02*
X25853Y-47985D01*
X28148Y-47985D02*
X28849Y-47985D01*
X28849Y-47985D02*
X35849Y-47985D01*
X35849Y-47985D02*
X36675Y-47985D01*
X24325Y-48065D02*
X25933Y-48065D01*
X28068Y-48065D02*
X28849Y-48065D01*
X28849Y-48065D02*
X35849Y-48065D01*
X35849Y-48065D02*
X36675Y-48065D01*
X24325Y-48145D02*
X25944Y-48145D01*
X28056Y-48145D02*
X28849Y-48145D01*
X28849Y-48145D02*
X35849Y-48145D01*
X35849Y-48145D02*
X36675Y-48145D01*
X24325Y-48225D02*
X25944Y-48225D01*
X28056Y-48225D02*
X28849Y-48225D01*
X28849Y-48225D02*
X35849Y-48225D01*
X35849Y-48225D02*
X36675Y-48225D01*
X24325Y-48305D02*
X25944Y-48305D01*
X28056Y-48305D02*
X28849Y-48305D01*
X28849Y-48305D02*
X35849Y-48305D01*
X35849Y-48305D02*
X36675Y-48305D01*
X24325Y-48385D02*
X25944Y-48385D01*
X28056Y-48385D02*
X28849Y-48385D01*
X28849Y-48385D02*
X35849Y-48385D01*
X35849Y-48385D02*
X36675Y-48385D01*
X24325Y-48465D02*
X25967Y-48465D01*
X28034Y-48465D02*
X28849Y-48465D01*
X28849Y-48465D02*
X35849Y-48465D01*
X35849Y-48465D02*
X36675Y-48465D01*
X24325Y-48545D02*
X26025Y-48545D01*
X27975Y-48545D02*
X28849Y-48545D01*
X28849Y-48545D02*
X35849Y-48545D01*
X35849Y-48545D02*
X36675Y-48545D01*
X24325Y-48625D02*
X28849Y-48625D01*
X28849Y-48625D02*
X35849Y-48625D01*
X35849Y-48625D02*
X36675Y-48625D01*
X24325Y-48705D02*
X28849Y-48705D01*
X28849Y-48705D02*
X35849Y-48705D01*
X35849Y-48705D02*
X36675Y-48705D01*
X24325Y-48785D02*
X28849Y-48785D01*
X28849Y-48785D02*
X35849Y-48785D01*
X35849Y-48785D02*
X36675Y-48785D01*
X24325Y-48865D02*
X28849Y-48865D01*
X28849Y-48865D02*
X35849Y-48865D01*
X35849Y-48865D02*
X36675Y-48865D01*
X24325Y-48945D02*
X28849Y-48945D01*
X28849Y-48945D02*
X35849Y-48945D01*
X35849Y-48945D02*
X36675Y-48945D01*
X24325Y-49025D02*
X28849Y-49025D01*
X28849Y-49025D02*
X35849Y-49025D01*
X35849Y-49025D02*
X36675Y-49025D01*
X24325Y-49105D02*
X28849Y-49105D01*
X28849Y-49105D02*
X35849Y-49105D01*
X35849Y-49105D02*
X36675Y-49105D01*
X24325Y-49185D02*
X28849Y-49185D01*
X28849Y-49185D02*
X35849Y-49185D01*
X35849Y-49185D02*
X36675Y-49185D01*
X24325Y-49265D02*
X28849Y-49265D01*
X28849Y-49265D02*
X35849Y-49265D01*
X35849Y-49265D02*
X36675Y-49265D01*
X24325Y-49345D02*
X28849Y-49345D01*
X28849Y-49345D02*
X35849Y-49345D01*
X35849Y-49345D02*
X36675Y-49345D01*
X24325Y-49425D02*
X28849Y-49425D01*
X28849Y-49425D02*
X35849Y-49425D01*
X35849Y-49425D02*
X36675Y-49425D01*
X24325Y-49505D02*
X26107Y-49505D01*
X26274Y-49505D02*
X26466Y-49505D01*
X26633Y-49505D02*
X26736Y-49505D01*
X26904Y-49505D02*
X27096Y-49505D01*
X27263Y-49505D02*
X27366Y-49505D01*
X27534Y-49505D02*
X27726Y-49505D01*
X27892Y-49505D02*
X28849Y-49505D01*
X28849Y-49505D02*
X35849Y-49505D01*
X35849Y-49505D02*
X36675Y-49505D01*
X24325Y-49585D02*
X25995Y-49585D01*
X26320Y-49585D02*
X26420Y-49585D01*
X26950Y-49585D02*
X27050Y-49585D01*
X27580Y-49585D02*
X27680Y-49585D01*
X28005Y-49585D02*
X28849Y-49585D01*
X28849Y-49585D02*
X35849Y-49585D01*
X35849Y-49585D02*
X36675Y-49585D01*
X24325Y-49665D02*
X25954Y-49665D01*
X26320Y-49665D02*
X26420Y-49665D01*
X26950Y-49665D02*
X27050Y-49665D01*
X27580Y-49665D02*
X27680Y-49665D01*
X28045Y-49665D02*
X28849Y-49665D01*
X28849Y-49665D02*
X35849Y-49665D01*
X35849Y-49665D02*
X36675Y-49665D01*
X24325Y-49745D02*
X25944Y-49745D01*
X26320Y-49745D02*
X26420Y-49745D01*
X26950Y-49745D02*
X27050Y-49745D01*
X27580Y-49745D02*
X27680Y-49745D01*
X28056Y-49745D02*
X28849Y-49745D01*
X28849Y-49745D02*
X35849Y-49745D01*
X35849Y-49745D02*
X36675Y-49745D01*
X24325Y-49825D02*
X25943Y-49825D01*
X26320Y-49825D02*
X26420Y-49825D01*
X26950Y-49825D02*
X27050Y-49825D01*
X27580Y-49825D02*
X27680Y-49825D01*
X28056Y-49825D02*
X28849Y-49825D01*
X28849Y-49825D02*
X35849Y-49825D01*
X35849Y-49825D02*
X36675Y-49825D01*
X24325Y-49905D02*
X25943Y-49905D01*
X26320Y-49905D02*
X26420Y-49905D01*
X26950Y-49905D02*
X27050Y-49905D01*
X27580Y-49905D02*
X27680Y-49905D01*
X28056Y-49905D02*
X28849Y-49905D01*
X28849Y-49905D02*
X35849Y-49905D01*
X35849Y-49905D02*
X36675Y-49905D01*
X24325Y-49985D02*
X26320Y-49985D01*
X26320Y-49985D02*
X26950Y-49985D01*
X26950Y-49985D02*
X27580Y-49985D01*
X27580Y-49985D02*
X28057Y-49985D01*
X28057Y-49985D02*
X28849Y-49985D01*
X28849Y-49985D02*
X35849Y-49985D01*
X35849Y-49985D02*
X36675Y-49985D01*
X24325Y-50065D02*
X26320Y-50065D01*
X26320Y-50065D02*
X26950Y-50065D01*
X26950Y-50065D02*
X27580Y-50065D01*
X27580Y-50065D02*
X28057Y-50065D01*
X28057Y-50065D02*
X28849Y-50065D01*
X28849Y-50065D02*
X35849Y-50065D01*
X35849Y-50065D02*
X36675Y-50065D01*
X24325Y-50145D02*
X25944Y-50145D01*
X26320Y-50145D02*
X26420Y-50145D01*
X26950Y-50145D02*
X27050Y-50145D01*
X27580Y-50145D02*
X27680Y-50145D01*
X28056Y-50145D02*
X28057Y-50145D01*
X28057Y-50145D02*
X28849Y-50145D01*
X28849Y-50145D02*
X35849Y-50145D01*
X35849Y-50145D02*
X36675Y-50145D01*
X24325Y-50225D02*
X25944Y-50225D01*
X26320Y-50225D02*
X26420Y-50225D01*
X26950Y-50225D02*
X27050Y-50225D01*
X27580Y-50225D02*
X27680Y-50225D01*
X28057Y-50225D02*
X28057Y-50225D01*
X28057Y-50225D02*
X28849Y-50225D01*
X28849Y-50225D02*
X35849Y-50225D01*
X35849Y-50225D02*
X36675Y-50225D01*
X24325Y-50305D02*
X25944Y-50305D01*
X26320Y-50305D02*
X26420Y-50305D01*
X26950Y-50305D02*
X27050Y-50305D01*
X27580Y-50305D02*
X27680Y-50305D01*
X28056Y-50305D02*
X28057Y-50305D01*
X28057Y-50305D02*
X28849Y-50305D01*
X28849Y-50305D02*
X35849Y-50305D01*
X35849Y-50305D02*
X36675Y-50305D01*
X24325Y-50385D02*
X25947Y-50385D01*
X26320Y-50385D02*
X26420Y-50385D01*
X26950Y-50385D02*
X27050Y-50385D01*
X27580Y-50385D02*
X27680Y-50385D01*
X28054Y-50385D02*
X28057Y-50385D01*
X28057Y-50385D02*
X28849Y-50385D01*
X28849Y-50385D02*
X35849Y-50385D01*
X35849Y-50385D02*
X36675Y-50385D01*
X24325Y-50465D02*
X25980Y-50465D01*
X26320Y-50465D02*
X26420Y-50465D01*
X26950Y-50465D02*
X27050Y-50465D01*
X27580Y-50465D02*
X27680Y-50465D01*
X28021Y-50465D02*
X28057Y-50465D01*
X28057Y-50465D02*
X28849Y-50465D01*
X28849Y-50465D02*
X35849Y-50465D01*
X35849Y-50465D02*
X36675Y-50465D01*
X24325Y-50545D02*
X26065Y-50545D01*
X26292Y-50545D02*
X26320Y-50545D01*
X26320Y-50545D02*
X26448Y-50545D01*
X26676Y-50545D02*
X26695Y-50545D01*
X26922Y-50545D02*
X26950Y-50545D01*
X26950Y-50545D02*
X27078Y-50545D01*
X27306Y-50545D02*
X27325Y-50545D01*
X27552Y-50545D02*
X27580Y-50545D01*
X27580Y-50545D02*
X27708Y-50545D01*
X27936Y-50545D02*
X28057Y-50545D01*
X28057Y-50545D02*
X28849Y-50545D01*
X28849Y-50545D02*
X35849Y-50545D01*
X35849Y-50545D02*
X36675Y-50545D01*
X24325Y-50625D02*
X26320Y-50625D01*
X26320Y-50625D02*
X26950Y-50625D01*
X26950Y-50625D02*
X27580Y-50625D01*
X27580Y-50625D02*
X28057Y-50625D01*
X28057Y-50625D02*
X28849Y-50625D01*
X28849Y-50625D02*
X35849Y-50625D01*
X35849Y-50625D02*
X36675Y-50625D01*
X24325Y-50705D02*
X26320Y-50705D01*
X26320Y-50705D02*
X26950Y-50705D01*
X26950Y-50705D02*
X27580Y-50705D01*
X27580Y-50705D02*
X28057Y-50705D01*
X28057Y-50705D02*
X28849Y-50705D01*
X28849Y-50705D02*
X35849Y-50705D01*
X35849Y-50705D02*
X36675Y-50705D01*
X24325Y-50785D02*
X26320Y-50785D01*
X26320Y-50785D02*
X26950Y-50785D01*
X26950Y-50785D02*
X27580Y-50785D01*
X27580Y-50785D02*
X28057Y-50785D01*
X28057Y-50785D02*
X28849Y-50785D01*
X28849Y-50785D02*
X35849Y-50785D01*
X35849Y-50785D02*
X36675Y-50785D01*
X24325Y-50865D02*
X26320Y-50865D01*
X26320Y-50865D02*
X26950Y-50865D01*
X26950Y-50865D02*
X27580Y-50865D01*
X27580Y-50865D02*
X28057Y-50865D01*
X28057Y-50865D02*
X28849Y-50865D01*
X28849Y-50865D02*
X35849Y-50865D01*
X35849Y-50865D02*
X36675Y-50865D01*
X24325Y-50945D02*
X26320Y-50945D01*
X26320Y-50945D02*
X26950Y-50945D01*
X26950Y-50945D02*
X27580Y-50945D01*
X27580Y-50945D02*
X28057Y-50945D01*
X28057Y-50945D02*
X28849Y-50945D01*
X28849Y-50945D02*
X35849Y-50945D01*
X35849Y-50945D02*
X36675Y-50945D01*
X24325Y-51025D02*
X26320Y-51025D01*
X26320Y-51025D02*
X26950Y-51025D01*
X26950Y-51025D02*
X27580Y-51025D01*
X27580Y-51025D02*
X28057Y-51025D01*
X28057Y-51025D02*
X28849Y-51025D01*
X28849Y-51025D02*
X35849Y-51025D01*
X35849Y-51025D02*
X36675Y-51025D01*
X24325Y-51105D02*
X26320Y-51105D01*
X26320Y-51105D02*
X26950Y-51105D01*
X26950Y-51105D02*
X27580Y-51105D01*
X27580Y-51105D02*
X28057Y-51105D01*
X28057Y-51105D02*
X28849Y-51105D01*
X28849Y-51105D02*
X35849Y-51105D01*
X35849Y-51105D02*
X36675Y-51105D01*
X24325Y-51185D02*
X26320Y-51185D01*
X26320Y-51185D02*
X26950Y-51185D01*
X26950Y-51185D02*
X27580Y-51185D01*
X27580Y-51185D02*
X28057Y-51185D01*
X28057Y-51185D02*
X28849Y-51185D01*
X28849Y-51185D02*
X35849Y-51185D01*
X35849Y-51185D02*
X36675Y-51185D01*
X24325Y-51265D02*
X26320Y-51265D01*
X26320Y-51265D02*
X26950Y-51265D01*
X26950Y-51265D02*
X27580Y-51265D01*
X27580Y-51265D02*
X28057Y-51265D01*
X28057Y-51265D02*
X28849Y-51265D01*
X28849Y-51265D02*
X35849Y-51265D01*
X35849Y-51265D02*
X36675Y-51265D01*
X24325Y-51345D02*
X26320Y-51345D01*
X26320Y-51345D02*
X26950Y-51345D01*
X26950Y-51345D02*
X27580Y-51345D01*
X27580Y-51345D02*
X28057Y-51345D01*
X28057Y-51345D02*
X28849Y-51345D01*
X28849Y-51345D02*
X35849Y-51345D01*
X35849Y-51345D02*
X36675Y-51345D01*
X24325Y-51425D02*
X26320Y-51425D01*
X26320Y-51425D02*
X26950Y-51425D01*
X26950Y-51425D02*
X27580Y-51425D01*
X27580Y-51425D02*
X28057Y-51425D01*
X28057Y-51425D02*
X28849Y-51425D01*
X28849Y-51425D02*
X35849Y-51425D01*
X35849Y-51425D02*
X36675Y-51425D01*
X24325Y-51505D02*
X26320Y-51505D01*
X26320Y-51505D02*
X26950Y-51505D01*
X26950Y-51505D02*
X27580Y-51505D01*
X27580Y-51505D02*
X28057Y-51505D01*
X28057Y-51505D02*
X28849Y-51505D01*
X28849Y-51505D02*
X35849Y-51505D01*
X35849Y-51505D02*
X36675Y-51505D01*
X24325Y-51585D02*
X26221Y-51585D01*
X26479Y-51585D02*
X26950Y-51585D01*
X26950Y-51585D02*
X27580Y-51585D01*
X27580Y-51585D02*
X28057Y-51585D01*
X28057Y-51585D02*
X28849Y-51585D01*
X28849Y-51585D02*
X29221Y-51585D01*
X29479Y-51585D02*
X31521Y-51585D01*
X31779Y-51585D02*
X34521Y-51585D01*
X34779Y-51585D02*
X35849Y-51585D01*
X35849Y-51585D02*
X36675Y-51585D01*
X24325Y-51665D02*
X26042Y-51665D01*
X26657Y-51665D02*
X26950Y-51665D01*
X26950Y-51665D02*
X27580Y-51665D01*
X27580Y-51665D02*
X28057Y-51665D01*
X28057Y-51665D02*
X28849Y-51665D01*
X28849Y-51665D02*
X29042Y-51665D01*
X29657Y-51665D02*
X31342Y-51665D01*
X31957Y-51665D02*
X34342Y-51665D01*
X34957Y-51665D02*
X35849Y-51665D01*
X35849Y-51665D02*
X36675Y-51665D01*
X24325Y-51745D02*
X25962Y-51745D01*
X26737Y-51745D02*
X26950Y-51745D01*
X26950Y-51745D02*
X27580Y-51745D01*
X27580Y-51745D02*
X28057Y-51745D01*
X28057Y-51745D02*
X28849Y-51745D01*
X28849Y-51745D02*
X28962Y-51745D01*
X29737Y-51745D02*
X31262Y-51745D01*
X32037Y-51745D02*
X34262Y-51745D01*
X35037Y-51745D02*
X35849Y-51745D01*
X35849Y-51745D02*
X36675Y-51745D01*
X24325Y-51825D02*
X25895Y-51825D01*
X26804Y-51825D02*
X26950Y-51825D01*
X26950Y-51825D02*
X27580Y-51825D01*
X27580Y-51825D02*
X28057Y-51825D01*
X28057Y-51825D02*
X28849Y-51825D01*
X28849Y-51825D02*
X28895Y-51825D01*
X29804Y-51825D02*
X31195Y-51825D01*
X32104Y-51825D02*
X34195Y-51825D01*
X35104Y-51825D02*
X35849Y-51825D01*
X35849Y-51825D02*
X36675Y-51825D01*
X24325Y-51905D02*
X25862Y-51905D01*
X26837Y-51905D02*
X26950Y-51905D01*
X26950Y-51905D02*
X27580Y-51905D01*
X27580Y-51905D02*
X28057Y-51905D01*
X28057Y-51905D02*
X28849Y-51905D01*
X28849Y-51905D02*
X28862Y-51905D01*
X29837Y-51905D02*
X31162Y-51905D01*
X32137Y-51905D02*
X34162Y-51905D01*
X35137Y-51905D02*
X35849Y-51905D01*
X35849Y-51905D02*
X36675Y-51905D01*
X24325Y-51985D02*
X25829Y-51985D01*
X26870Y-51985D02*
X26950Y-51985D01*
X26950Y-51985D02*
X27580Y-51985D01*
X27580Y-51985D02*
X28057Y-51985D01*
X28057Y-51985D02*
X28829Y-51985D01*
X29870Y-51985D02*
X31129Y-51985D01*
X32170Y-51985D02*
X34129Y-51985D01*
X35170Y-51985D02*
X35849Y-51985D01*
X35849Y-51985D02*
X36675Y-51985D01*
X24325Y-52065D02*
X25825Y-52065D01*
X26875Y-52065D02*
X26950Y-52065D01*
X26950Y-52065D02*
X27580Y-52065D01*
X27580Y-52065D02*
X28057Y-52065D01*
X28057Y-52065D02*
X28825Y-52065D01*
X29875Y-52065D02*
X31125Y-52065D01*
X32175Y-52065D02*
X34125Y-52065D01*
X35175Y-52065D02*
X35849Y-52065D01*
X35849Y-52065D02*
X36675Y-52065D01*
X24325Y-52145D02*
X25825Y-52145D01*
X26875Y-52145D02*
X26950Y-52145D01*
X26950Y-52145D02*
X27580Y-52145D01*
X27580Y-52145D02*
X28057Y-52145D01*
X28057Y-52145D02*
X28825Y-52145D01*
X29875Y-52145D02*
X31125Y-52145D01*
X32175Y-52145D02*
X34125Y-52145D01*
X35175Y-52145D02*
X35849Y-52145D01*
X35849Y-52145D02*
X36675Y-52145D01*
X24325Y-52225D02*
X25834Y-52225D01*
X26867Y-52225D02*
X26875Y-52225D01*
X26875Y-52225D02*
X26950Y-52225D01*
X26950Y-52225D02*
X27580Y-52225D01*
X27580Y-52225D02*
X28057Y-52225D01*
X28057Y-52225D02*
X28834Y-52225D01*
X29867Y-52225D02*
X29875Y-52225D01*
X29875Y-52225D02*
X31134Y-52225D01*
X32167Y-52225D02*
X32175Y-52225D01*
X32175Y-52225D02*
X34134Y-52225D01*
X35167Y-52225D02*
X35175Y-52225D01*
X35175Y-52225D02*
X35849Y-52225D01*
X35849Y-52225D02*
X36675Y-52225D01*
X24325Y-52305D02*
X25867Y-52305D01*
X26834Y-52305D02*
X26875Y-52305D01*
X26875Y-52305D02*
X26950Y-52305D01*
X26950Y-52305D02*
X27580Y-52305D01*
X27580Y-52305D02*
X28057Y-52305D01*
X28057Y-52305D02*
X28867Y-52305D01*
X29834Y-52305D02*
X29875Y-52305D01*
X29875Y-52305D02*
X31167Y-52305D01*
X32134Y-52305D02*
X32175Y-52305D01*
X32175Y-52305D02*
X34167Y-52305D01*
X35134Y-52305D02*
X35175Y-52305D01*
X35175Y-52305D02*
X35849Y-52305D01*
X35849Y-52305D02*
X36675Y-52305D01*
X24325Y-52385D02*
X25901Y-52385D01*
X26801Y-52385D02*
X26875Y-52385D01*
X26875Y-52385D02*
X26950Y-52385D01*
X26950Y-52385D02*
X27580Y-52385D01*
X27580Y-52385D02*
X28057Y-52385D01*
X28057Y-52385D02*
X28901Y-52385D01*
X29801Y-52385D02*
X29875Y-52385D01*
X29875Y-52385D02*
X31201Y-52385D01*
X32101Y-52385D02*
X32175Y-52385D01*
X32175Y-52385D02*
X34201Y-52385D01*
X35101Y-52385D02*
X35175Y-52385D01*
X35175Y-52385D02*
X35849Y-52385D01*
X35849Y-52385D02*
X36675Y-52385D01*
X24325Y-52465D02*
X25973Y-52465D01*
X26728Y-52465D02*
X26875Y-52465D01*
X26875Y-52465D02*
X26950Y-52465D01*
X26950Y-52465D02*
X27580Y-52465D01*
X27580Y-52465D02*
X28057Y-52465D01*
X28057Y-52465D02*
X28973Y-52465D01*
X29728Y-52465D02*
X29875Y-52465D01*
X29875Y-52465D02*
X31273Y-52465D01*
X32028Y-52465D02*
X32175Y-52465D01*
X32175Y-52465D02*
X34273Y-52465D01*
X35028Y-52465D02*
X35175Y-52465D01*
X35175Y-52465D02*
X35849Y-52465D01*
X35849Y-52465D02*
X36675Y-52465D01*
X24325Y-52545D02*
X26052Y-52545D01*
X26647Y-52545D02*
X26875Y-52545D01*
X26875Y-52545D02*
X26950Y-52545D01*
X26950Y-52545D02*
X27580Y-52545D01*
X27580Y-52545D02*
X28057Y-52545D01*
X28057Y-52545D02*
X29052Y-52545D01*
X29647Y-52545D02*
X29875Y-52545D01*
X29875Y-52545D02*
X31352Y-52545D01*
X31947Y-52545D02*
X32175Y-52545D01*
X32175Y-52545D02*
X34352Y-52545D01*
X34947Y-52545D02*
X35175Y-52545D01*
X35175Y-52545D02*
X35849Y-52545D01*
X35849Y-52545D02*
X36675Y-52545D01*
X24325Y-52625D02*
X26875Y-52625D01*
X26875Y-52625D02*
X26950Y-52625D01*
X26950Y-52625D02*
X27580Y-52625D01*
X27580Y-52625D02*
X28057Y-52625D01*
X28057Y-52625D02*
X29875Y-52625D01*
X29875Y-52625D02*
X32175Y-52625D01*
X32175Y-52625D02*
X35175Y-52625D01*
X35175Y-52625D02*
X35849Y-52625D01*
X35849Y-52625D02*
X36675Y-52625D01*
X24325Y-52705D02*
X26875Y-52705D01*
X26875Y-52705D02*
X26950Y-52705D01*
X26950Y-52705D02*
X27580Y-52705D01*
X27580Y-52705D02*
X28057Y-52705D01*
X28057Y-52705D02*
X29875Y-52705D01*
X29875Y-52705D02*
X32175Y-52705D01*
X32175Y-52705D02*
X35175Y-52705D01*
X35175Y-52705D02*
X35849Y-52705D01*
X35849Y-52705D02*
X36675Y-52705D01*
X24325Y-52785D02*
X26875Y-52785D01*
X26875Y-52785D02*
X26950Y-52785D01*
X26950Y-52785D02*
X27580Y-52785D01*
X27580Y-52785D02*
X28057Y-52785D01*
X28057Y-52785D02*
X29875Y-52785D01*
X29875Y-52785D02*
X32175Y-52785D01*
X32175Y-52785D02*
X35175Y-52785D01*
X35175Y-52785D02*
X35849Y-52785D01*
X35849Y-52785D02*
X36675Y-52785D01*
X24325Y-52865D02*
X26875Y-52865D01*
X26875Y-52865D02*
X26950Y-52865D01*
X26950Y-52865D02*
X27580Y-52865D01*
X27580Y-52865D02*
X28057Y-52865D01*
X28057Y-52865D02*
X29875Y-52865D01*
X29875Y-52865D02*
X32175Y-52865D01*
X32175Y-52865D02*
X35175Y-52865D01*
X35175Y-52865D02*
X35849Y-52865D01*
X35849Y-52865D02*
X36675Y-52865D01*
X24325Y-52945D02*
X26875Y-52945D01*
X26875Y-52945D02*
X26950Y-52945D01*
X26950Y-52945D02*
X27580Y-52945D01*
X27580Y-52945D02*
X28057Y-52945D01*
X28057Y-52945D02*
X29875Y-52945D01*
X29875Y-52945D02*
X32175Y-52945D01*
X32175Y-52945D02*
X35175Y-52945D01*
X35175Y-52945D02*
X35849Y-52945D01*
X35849Y-52945D02*
X36675Y-52945D01*
X24325Y-53025D02*
X26875Y-53025D01*
X26875Y-53025D02*
X26950Y-53025D01*
X26950Y-53025D02*
X27580Y-53025D01*
X27580Y-53025D02*
X28057Y-53025D01*
X28057Y-53025D02*
X29875Y-53025D01*
X29875Y-53025D02*
X32175Y-53025D01*
X32175Y-53025D02*
X35175Y-53025D01*
X35175Y-53025D02*
X35849Y-53025D01*
X35849Y-53025D02*
X36675Y-53025D01*
X24325Y-53105D02*
X26875Y-53105D01*
X26875Y-53105D02*
X26950Y-53105D01*
X26950Y-53105D02*
X27580Y-53105D01*
X27580Y-53105D02*
X28057Y-53105D01*
X28057Y-53105D02*
X29875Y-53105D01*
X29875Y-53105D02*
X32175Y-53105D01*
X32175Y-53105D02*
X35175Y-53105D01*
X35175Y-53105D02*
X35849Y-53105D01*
X35849Y-53105D02*
X36675Y-53105D01*
X24325Y-53185D02*
X26875Y-53185D01*
X26875Y-53185D02*
X26950Y-53185D01*
X26950Y-53185D02*
X27580Y-53185D01*
X27580Y-53185D02*
X28057Y-53185D01*
X28057Y-53185D02*
X29875Y-53185D01*
X29875Y-53185D02*
X32175Y-53185D01*
X32175Y-53185D02*
X35175Y-53185D01*
X35175Y-53185D02*
X35849Y-53185D01*
X35849Y-53185D02*
X36675Y-53185D01*
X24325Y-53265D02*
X26875Y-53265D01*
X26875Y-53265D02*
X26950Y-53265D01*
X26950Y-53265D02*
X27580Y-53265D01*
X27580Y-53265D02*
X28057Y-53265D01*
X28057Y-53265D02*
X29875Y-53265D01*
X29875Y-53265D02*
X32175Y-53265D01*
X32175Y-53265D02*
X35175Y-53265D01*
X35175Y-53265D02*
X35849Y-53265D01*
X35849Y-53265D02*
X36675Y-53265D01*
X24325Y-53345D02*
X26875Y-53345D01*
X26875Y-53345D02*
X26950Y-53345D01*
X26950Y-53345D02*
X27580Y-53345D01*
X27580Y-53345D02*
X28057Y-53345D01*
X28057Y-53345D02*
X29875Y-53345D01*
X29875Y-53345D02*
X32175Y-53345D01*
X32175Y-53345D02*
X35175Y-53345D01*
X35175Y-53345D02*
X35849Y-53345D01*
X35849Y-53345D02*
X36675Y-53345D01*
X24325Y-53425D02*
X26875Y-53425D01*
X26875Y-53425D02*
X26950Y-53425D01*
X26950Y-53425D02*
X27580Y-53425D01*
X27580Y-53425D02*
X28057Y-53425D01*
X28057Y-53425D02*
X29875Y-53425D01*
X29875Y-53425D02*
X32175Y-53425D01*
X32175Y-53425D02*
X35175Y-53425D01*
X35175Y-53425D02*
X35849Y-53425D01*
X35849Y-53425D02*
X36675Y-53425D01*
X24325Y-53505D02*
X26875Y-53505D01*
X26875Y-53505D02*
X26950Y-53505D01*
X26950Y-53505D02*
X27580Y-53505D01*
X27580Y-53505D02*
X28057Y-53505D01*
X28057Y-53505D02*
X29875Y-53505D01*
X29875Y-53505D02*
X32175Y-53505D01*
X32175Y-53505D02*
X35175Y-53505D01*
X35175Y-53505D02*
X35849Y-53505D01*
X35849Y-53505D02*
X36675Y-53505D01*
X24325Y-53585D02*
X26349Y-53585D01*
X26435Y-53585D02*
X26875Y-53585D01*
X26875Y-53585D02*
X26950Y-53585D01*
X26950Y-53585D02*
X27580Y-53585D01*
X27580Y-53585D02*
X28057Y-53585D01*
X28057Y-53585D02*
X29349Y-53585D01*
X29435Y-53585D02*
X29875Y-53585D01*
X29875Y-53585D02*
X31649Y-53585D01*
X31735Y-53585D02*
X32175Y-53585D01*
X32175Y-53585D02*
X34649Y-53585D01*
X34735Y-53585D02*
X35175Y-53585D01*
X35175Y-53585D02*
X35849Y-53585D01*
X35849Y-53585D02*
X36675Y-53585D01*
X24325Y-53665D02*
X26078Y-53665D01*
X26621Y-53665D02*
X26875Y-53665D01*
X26875Y-53665D02*
X26950Y-53665D01*
X26950Y-53665D02*
X27580Y-53665D01*
X27580Y-53665D02*
X28057Y-53665D01*
X28057Y-53665D02*
X29078Y-53665D01*
X29621Y-53665D02*
X29875Y-53665D01*
X29875Y-53665D02*
X31378Y-53665D01*
X31921Y-53665D02*
X32175Y-53665D01*
X32175Y-53665D02*
X34378Y-53665D01*
X34921Y-53665D02*
X35175Y-53665D01*
X35175Y-53665D02*
X35849Y-53665D01*
X35849Y-53665D02*
X36675Y-53665D01*
X25800Y-53745D02*
X26066Y-53745D01*
X26634Y-53745D02*
X26640Y-53745D01*
X26640Y-53745D02*
X26875Y-53745D01*
X26875Y-53745D02*
X26950Y-53745D01*
X26950Y-53745D02*
X27580Y-53745D01*
X27580Y-53745D02*
X28057Y-53745D01*
X28057Y-53745D02*
X29066Y-53745D01*
X29634Y-53745D02*
X29640Y-53745D01*
X29640Y-53745D02*
X29875Y-53745D01*
X29875Y-53745D02*
X31366Y-53745D01*
X31934Y-53745D02*
X31940Y-53745D01*
X31940Y-53745D02*
X32175Y-53745D01*
X32175Y-53745D02*
X34366Y-53745D01*
X34934Y-53745D02*
X34940Y-53745D01*
X34940Y-53745D02*
X35175Y-53745D01*
X35175Y-53745D02*
X35200Y-53745D01*
X25800Y-53825D02*
X25929Y-53825D01*
X26004Y-53825D02*
X26146Y-53825D01*
X26554Y-53825D02*
X26640Y-53825D01*
X26640Y-53825D02*
X26696Y-53825D01*
X26770Y-53825D02*
X26875Y-53825D01*
X26875Y-53825D02*
X26950Y-53825D01*
X26950Y-53825D02*
X27580Y-53825D01*
X27580Y-53825D02*
X28057Y-53825D01*
X28057Y-53825D02*
X28929Y-53825D01*
X29004Y-53825D02*
X29146Y-53825D01*
X29554Y-53825D02*
X29640Y-53825D01*
X29640Y-53825D02*
X29696Y-53825D01*
X29770Y-53825D02*
X29875Y-53825D01*
X29875Y-53825D02*
X31229Y-53825D01*
X31304Y-53825D02*
X31446Y-53825D01*
X31854Y-53825D02*
X31940Y-53825D01*
X31940Y-53825D02*
X31996Y-53825D01*
X32070Y-53825D02*
X32175Y-53825D01*
X32175Y-53825D02*
X34229Y-53825D01*
X34304Y-53825D02*
X34446Y-53825D01*
X34854Y-53825D02*
X34940Y-53825D01*
X34940Y-53825D02*
X34996Y-53825D01*
X35070Y-53825D02*
X35175Y-53825D01*
X35175Y-53825D02*
X35200Y-53825D01*
X25805Y-53905D02*
X25873Y-53905D01*
X26084Y-53905D02*
X26226Y-53905D01*
X26474Y-53905D02*
X26616Y-53905D01*
X26831Y-53905D02*
X26875Y-53905D01*
X26875Y-53905D02*
X26950Y-53905D01*
X26950Y-53905D02*
X27580Y-53905D01*
X27580Y-53905D02*
X28057Y-53905D01*
X28057Y-53905D02*
X28873Y-53905D01*
X29084Y-53905D02*
X29226Y-53905D01*
X29474Y-53905D02*
X29616Y-53905D01*
X29831Y-53905D02*
X29875Y-53905D01*
X29875Y-53905D02*
X31173Y-53905D01*
X31384Y-53905D02*
X31526Y-53905D01*
X31774Y-53905D02*
X31916Y-53905D01*
X32131Y-53905D02*
X32175Y-53905D01*
X32175Y-53905D02*
X34173Y-53905D01*
X34384Y-53905D02*
X34526Y-53905D01*
X34774Y-53905D02*
X34916Y-53905D01*
X35131Y-53905D02*
X35175Y-53905D01*
X35175Y-53905D02*
X35194Y-53905D01*
X25821Y-53985D02*
X25845Y-53985D01*
X26164Y-53985D02*
X26306Y-53985D01*
X26394Y-53985D02*
X26536Y-53985D01*
X26858Y-53985D02*
X26875Y-53985D01*
X26875Y-53985D02*
X26950Y-53985D01*
X26950Y-53985D02*
X27580Y-53985D01*
X27580Y-53985D02*
X28057Y-53985D01*
X28057Y-53985D02*
X28845Y-53985D01*
X29164Y-53985D02*
X29306Y-53985D01*
X29394Y-53985D02*
X29536Y-53985D01*
X29858Y-53985D02*
X29875Y-53985D01*
X29875Y-53985D02*
X31145Y-53985D01*
X31464Y-53985D02*
X31606Y-53985D01*
X31694Y-53985D02*
X31836Y-53985D01*
X32158Y-53985D02*
X32175Y-53985D01*
X32175Y-53985D02*
X34145Y-53985D01*
X34464Y-53985D02*
X34606Y-53985D01*
X34694Y-53985D02*
X34836Y-53985D01*
X35158Y-53985D02*
X35175Y-53985D01*
X35175Y-53985D02*
X35178Y-53985D01*
X25825Y-54065D02*
X25834Y-54065D01*
X26244Y-54065D02*
X26456Y-54065D01*
X26863Y-54065D02*
X26875Y-54065D01*
X26875Y-54065D02*
X26950Y-54065D01*
X26950Y-54065D02*
X27580Y-54065D01*
X27580Y-54065D02*
X28057Y-54065D01*
X28057Y-54065D02*
X28834Y-54065D01*
X29244Y-54065D02*
X29456Y-54065D01*
X29863Y-54065D02*
X29875Y-54065D01*
X29875Y-54065D02*
X31134Y-54065D01*
X31544Y-54065D02*
X31756Y-54065D01*
X32163Y-54065D02*
X32175Y-54065D01*
X32175Y-54065D02*
X34134Y-54065D01*
X34544Y-54065D02*
X34756Y-54065D01*
X35163Y-54065D02*
X35175Y-54065D01*
X25825Y-54145D02*
X25838Y-54145D01*
X26234Y-54145D02*
X26279Y-54145D01*
X26279Y-54145D02*
X26466Y-54145D01*
X26867Y-54145D02*
X26875Y-54145D01*
X26875Y-54145D02*
X26950Y-54145D01*
X26950Y-54145D02*
X27580Y-54145D01*
X27580Y-54145D02*
X28057Y-54145D01*
X28057Y-54145D02*
X28838Y-54145D01*
X29234Y-54145D02*
X29279Y-54145D01*
X29279Y-54145D02*
X29466Y-54145D01*
X29867Y-54145D02*
X29875Y-54145D01*
X29875Y-54145D02*
X31138Y-54145D01*
X31534Y-54145D02*
X31579Y-54145D01*
X31579Y-54145D02*
X31766Y-54145D01*
X32167Y-54145D02*
X32175Y-54145D01*
X32175Y-54145D02*
X34138Y-54145D01*
X34534Y-54145D02*
X34579Y-54145D01*
X34579Y-54145D02*
X34766Y-54145D01*
X35167Y-54145D02*
X35175Y-54145D01*
X25825Y-54225D02*
X25842Y-54225D01*
X26154Y-54225D02*
X26279Y-54225D01*
X26279Y-54225D02*
X26296Y-54225D01*
X26404Y-54225D02*
X26546Y-54225D01*
X26852Y-54225D02*
X26869Y-54225D01*
X26869Y-54225D02*
X26875Y-54225D01*
X26875Y-54225D02*
X26950Y-54225D01*
X26950Y-54225D02*
X27580Y-54225D01*
X27580Y-54225D02*
X28057Y-54225D01*
X28057Y-54225D02*
X28842Y-54225D01*
X29154Y-54225D02*
X29279Y-54225D01*
X29279Y-54225D02*
X29296Y-54225D01*
X29404Y-54225D02*
X29546Y-54225D01*
X29852Y-54225D02*
X29869Y-54225D01*
X29869Y-54225D02*
X29875Y-54225D01*
X29875Y-54225D02*
X31142Y-54225D01*
X31454Y-54225D02*
X31579Y-54225D01*
X31579Y-54225D02*
X31596Y-54225D01*
X31704Y-54225D02*
X31846Y-54225D01*
X32152Y-54225D02*
X32169Y-54225D01*
X32169Y-54225D02*
X32175Y-54225D01*
X32175Y-54225D02*
X34142Y-54225D01*
X34454Y-54225D02*
X34579Y-54225D01*
X34579Y-54225D02*
X34596Y-54225D01*
X34704Y-54225D02*
X34846Y-54225D01*
X35152Y-54225D02*
X35169Y-54225D01*
X35169Y-54225D02*
X35175Y-54225D01*
X25825Y-54305D02*
X25873Y-54305D01*
X26074Y-54305D02*
X26216Y-54305D01*
X26484Y-54305D02*
X26626Y-54305D01*
X26824Y-54305D02*
X26869Y-54305D01*
X26869Y-54305D02*
X26875Y-54305D01*
X26875Y-54305D02*
X26950Y-54305D01*
X26950Y-54305D02*
X27580Y-54305D01*
X27580Y-54305D02*
X28057Y-54305D01*
X28057Y-54305D02*
X28873Y-54305D01*
X29074Y-54305D02*
X29216Y-54305D01*
X29484Y-54305D02*
X29626Y-54305D01*
X29824Y-54305D02*
X29869Y-54305D01*
X29869Y-54305D02*
X29875Y-54305D01*
X29875Y-54305D02*
X31173Y-54305D01*
X31374Y-54305D02*
X31516Y-54305D01*
X31784Y-54305D02*
X31926Y-54305D01*
X32124Y-54305D02*
X32169Y-54305D01*
X32169Y-54305D02*
X32175Y-54305D01*
X32175Y-54305D02*
X34173Y-54305D01*
X34374Y-54305D02*
X34516Y-54305D01*
X34784Y-54305D02*
X34926Y-54305D01*
X35124Y-54305D02*
X35169Y-54305D01*
X35169Y-54305D02*
X35175Y-54305D01*
X25825Y-54385D02*
X25970Y-54385D01*
X25994Y-54385D02*
X26136Y-54385D01*
X26564Y-54385D02*
X26706Y-54385D01*
X26731Y-54385D02*
X26869Y-54385D01*
X26869Y-54385D02*
X26875Y-54385D01*
X26875Y-54385D02*
X26950Y-54385D01*
X26950Y-54385D02*
X27580Y-54385D01*
X27580Y-54385D02*
X28057Y-54385D01*
X28057Y-54385D02*
X28970Y-54385D01*
X28994Y-54385D02*
X29136Y-54385D01*
X29564Y-54385D02*
X29706Y-54385D01*
X29731Y-54385D02*
X29869Y-54385D01*
X29869Y-54385D02*
X29875Y-54385D01*
X29875Y-54385D02*
X31270Y-54385D01*
X31294Y-54385D02*
X31436Y-54385D01*
X31864Y-54385D02*
X32006Y-54385D01*
X32031Y-54385D02*
X32169Y-54385D01*
X32169Y-54385D02*
X32175Y-54385D01*
X32175Y-54385D02*
X34270Y-54385D01*
X34294Y-54385D02*
X34436Y-54385D01*
X34864Y-54385D02*
X35006Y-54385D01*
X35031Y-54385D02*
X35169Y-54385D01*
X35169Y-54385D02*
X35175Y-54385D01*
X25825Y-54465D02*
X26062Y-54465D01*
X26639Y-54465D02*
X26640Y-54465D01*
X26640Y-54465D02*
X26869Y-54465D01*
X26869Y-54465D02*
X26875Y-54465D01*
X26875Y-54465D02*
X26950Y-54465D01*
X26950Y-54465D02*
X27580Y-54465D01*
X27580Y-54465D02*
X28057Y-54465D01*
X28057Y-54465D02*
X29062Y-54465D01*
X29639Y-54465D02*
X29640Y-54465D01*
X29640Y-54465D02*
X29869Y-54465D01*
X29869Y-54465D02*
X29875Y-54465D01*
X29875Y-54465D02*
X31362Y-54465D01*
X31939Y-54465D02*
X31940Y-54465D01*
X31940Y-54465D02*
X32169Y-54465D01*
X32169Y-54465D02*
X32175Y-54465D01*
X32175Y-54465D02*
X34362Y-54465D01*
X34939Y-54465D02*
X34940Y-54465D01*
X34940Y-54465D02*
X35169Y-54465D01*
X35169Y-54465D02*
X35175Y-54465D01*
X25825Y-54545D02*
X26082Y-54545D01*
X26619Y-54545D02*
X26640Y-54545D01*
X26640Y-54545D02*
X26869Y-54545D01*
X26869Y-54545D02*
X26875Y-54545D01*
X26875Y-54545D02*
X26950Y-54545D01*
X26950Y-54545D02*
X27580Y-54545D01*
X27580Y-54545D02*
X28057Y-54545D01*
X28057Y-54545D02*
X29082Y-54545D01*
X29619Y-54545D02*
X29640Y-54545D01*
X29640Y-54545D02*
X29869Y-54545D01*
X29869Y-54545D02*
X29875Y-54545D01*
X29875Y-54545D02*
X31382Y-54545D01*
X31919Y-54545D02*
X31940Y-54545D01*
X31940Y-54545D02*
X32169Y-54545D01*
X32169Y-54545D02*
X32175Y-54545D01*
X32175Y-54545D02*
X34382Y-54545D01*
X34919Y-54545D02*
X34940Y-54545D01*
X34940Y-54545D02*
X35169Y-54545D01*
X35169Y-54545D02*
X35175Y-54545D01*
X25825Y-54625D02*
X26640Y-54625D01*
X26640Y-54625D02*
X26869Y-54625D01*
X26869Y-54625D02*
X26875Y-54625D01*
X26875Y-54625D02*
X26950Y-54625D01*
X26950Y-54625D02*
X27580Y-54625D01*
X27580Y-54625D02*
X28057Y-54625D01*
X28057Y-54625D02*
X29640Y-54625D01*
X29640Y-54625D02*
X29869Y-54625D01*
X29869Y-54625D02*
X29875Y-54625D01*
X29875Y-54625D02*
X31940Y-54625D01*
X31940Y-54625D02*
X32169Y-54625D01*
X32169Y-54625D02*
X32175Y-54625D01*
X32175Y-54625D02*
X34940Y-54625D01*
X34940Y-54625D02*
X35169Y-54625D01*
X35169Y-54625D02*
X35175Y-54625D01*
X36675Y-53675D02*
X35849Y-53675D01*
X35849Y-41000D01*
X35849Y-40901D01*
X35849Y-40301D01*
X35849Y-39700D01*
X35849Y-39601D01*
X35849Y-39001D01*
X35811Y-38909D01*
X35741Y-38839D01*
X35650Y-38801D01*
X35551Y-38801D01*
X35509Y-38801D01*
X35509Y-38704D01*
X35485Y-38586D01*
X35418Y-38486D01*
X35418Y-38485D01*
X35057Y-38124D01*
X35057Y-36278D01*
X35057Y-36054D01*
X35056Y-35920D01*
X35056Y-35821D01*
X35018Y-35730D01*
X34948Y-35660D01*
X34856Y-35622D01*
X34742Y-35621D01*
X34680Y-35683D01*
X34680Y-36116D01*
X34995Y-36116D01*
X35057Y-36054D01*
X35057Y-36278D01*
X34995Y-36216D01*
X34680Y-36216D01*
X34680Y-36649D01*
X34742Y-36711D01*
X34856Y-36710D01*
X34948Y-36672D01*
X35018Y-36602D01*
X35056Y-36511D01*
X35056Y-36412D01*
X35057Y-36278D01*
X35057Y-38124D01*
X35056Y-38123D01*
X35056Y-37790D01*
X35018Y-37698D01*
X34948Y-37628D01*
X34857Y-37590D01*
X34758Y-37590D01*
X34580Y-37590D01*
X34580Y-36649D01*
X34580Y-36216D01*
X34580Y-36116D01*
X34580Y-35683D01*
X34518Y-35621D01*
X34404Y-35622D01*
X34315Y-35658D01*
X34226Y-35622D01*
X34112Y-35621D01*
X34050Y-35683D01*
X34050Y-36116D01*
X34265Y-36116D01*
X34365Y-36116D01*
X34580Y-36116D01*
X34580Y-36216D01*
X34365Y-36216D01*
X34265Y-36216D01*
X34050Y-36216D01*
X34050Y-36649D01*
X34112Y-36711D01*
X34226Y-36710D01*
X34315Y-36673D01*
X34404Y-36710D01*
X34518Y-36711D01*
X34580Y-36649D01*
X34580Y-37590D01*
X34404Y-37590D01*
X34315Y-37626D01*
X34227Y-37590D01*
X34128Y-37590D01*
X33950Y-37590D01*
X33950Y-36649D01*
X33950Y-36216D01*
X33950Y-36116D01*
X33950Y-35683D01*
X33888Y-35621D01*
X33774Y-35622D01*
X33685Y-35658D01*
X33596Y-35622D01*
X33482Y-35621D01*
X33420Y-35683D01*
X33420Y-36116D01*
X33635Y-36116D01*
X33735Y-36116D01*
X33950Y-36116D01*
X33950Y-36216D01*
X33735Y-36216D01*
X33635Y-36216D01*
X33420Y-36216D01*
X33420Y-36649D01*
X33482Y-36711D01*
X33596Y-36710D01*
X33685Y-36673D01*
X33774Y-36710D01*
X33888Y-36711D01*
X33950Y-36649D01*
X33950Y-37590D01*
X33774Y-37590D01*
X33685Y-37626D01*
X33597Y-37590D01*
X33498Y-37590D01*
X33320Y-37590D01*
X33320Y-36649D01*
X33320Y-36216D01*
X33320Y-36116D01*
X33320Y-35683D01*
X33258Y-35621D01*
X33144Y-35622D01*
X33052Y-35660D01*
X32982Y-35730D01*
X32944Y-35821D01*
X32944Y-35920D01*
X32943Y-36054D01*
X33005Y-36116D01*
X33320Y-36116D01*
X33320Y-36216D01*
X33005Y-36216D01*
X32943Y-36278D01*
X32944Y-36412D01*
X32944Y-36511D01*
X32982Y-36602D01*
X33052Y-36672D01*
X33144Y-36710D01*
X33258Y-36711D01*
X33320Y-36649D01*
X33320Y-37590D01*
X33144Y-37590D01*
X33052Y-37628D01*
X32982Y-37698D01*
X32944Y-37789D01*
X32944Y-37888D01*
X32944Y-38123D01*
X32582Y-38486D01*
X32515Y-38586D01*
X32491Y-38704D01*
X32491Y-38801D01*
X32351Y-38801D01*
X32259Y-38839D01*
X32200Y-38898D01*
X32141Y-38839D01*
X32050Y-38801D01*
X31951Y-38801D01*
X31909Y-38801D01*
X31909Y-38392D01*
X31885Y-38274D01*
X31850Y-38221D01*
X31850Y-35512D01*
X31850Y-35288D01*
X31849Y-35049D01*
X31849Y-34950D01*
X31811Y-34859D01*
X31741Y-34789D01*
X31649Y-34751D01*
X31412Y-34750D01*
X31350Y-34812D01*
X31350Y-35350D01*
X31788Y-35350D01*
X31850Y-35288D01*
X31850Y-35512D01*
X31788Y-35450D01*
X31350Y-35450D01*
X31350Y-35988D01*
X31412Y-36050D01*
X31649Y-36049D01*
X31741Y-36011D01*
X31811Y-35941D01*
X31849Y-35850D01*
X31849Y-35751D01*
X31850Y-35512D01*
X31850Y-38221D01*
X31818Y-38174D01*
X31818Y-38173D01*
X31250Y-37605D01*
X31250Y-35988D01*
X31250Y-35450D01*
X31250Y-35350D01*
X31250Y-34812D01*
X31188Y-34750D01*
X30951Y-34751D01*
X30859Y-34789D01*
X30789Y-34859D01*
X30751Y-34950D01*
X30751Y-35049D01*
X30750Y-35288D01*
X30812Y-35350D01*
X31250Y-35350D01*
X31250Y-35450D01*
X30812Y-35450D01*
X30750Y-35512D01*
X30751Y-35751D01*
X30751Y-35850D01*
X30789Y-35941D01*
X30859Y-36011D01*
X30951Y-36049D01*
X31188Y-36050D01*
X31250Y-35988D01*
X31250Y-37605D01*
X29693Y-36049D01*
X29749Y-36049D01*
X30349Y-36049D01*
X30441Y-36011D01*
X30511Y-35941D01*
X30549Y-35850D01*
X30549Y-35751D01*
X30549Y-34951D01*
X30511Y-34859D01*
X30441Y-34789D01*
X30350Y-34751D01*
X30251Y-34751D01*
X29651Y-34751D01*
X29646Y-34753D01*
X29410Y-34753D01*
X29395Y-34746D01*
X29409Y-34741D01*
X30818Y-34741D01*
X30818Y-34740D01*
X30936Y-34717D01*
X31036Y-34650D01*
X31287Y-34399D01*
X31699Y-34399D01*
X31791Y-34361D01*
X31861Y-34291D01*
X31899Y-34200D01*
X31899Y-34101D01*
X31899Y-33501D01*
X31861Y-33409D01*
X31791Y-33339D01*
X31700Y-33301D01*
X31601Y-33301D01*
X30801Y-33301D01*
X30709Y-33339D01*
X30650Y-33398D01*
X30591Y-33339D01*
X30500Y-33301D01*
X30401Y-33301D01*
X29601Y-33301D01*
X29532Y-33329D01*
X29504Y-33259D01*
X29448Y-33203D01*
X29511Y-33141D01*
X29539Y-33073D01*
X29600Y-33099D01*
X29699Y-33099D01*
X30499Y-33099D01*
X30591Y-33061D01*
X30650Y-33002D01*
X30709Y-33061D01*
X30800Y-33099D01*
X30899Y-33099D01*
X31699Y-33099D01*
X31791Y-33061D01*
X31861Y-32991D01*
X31899Y-32900D01*
X31899Y-32801D01*
X31899Y-32201D01*
X31861Y-32109D01*
X31791Y-32039D01*
X31700Y-32001D01*
X31601Y-32001D01*
X31137Y-32001D01*
X31109Y-31972D01*
X31109Y-30949D01*
X31278Y-30949D01*
X31443Y-30881D01*
X31569Y-30755D01*
X31638Y-30590D01*
X31638Y-30452D01*
X31740Y-30411D01*
X31860Y-30291D01*
X31925Y-30135D01*
X31925Y-29966D01*
X31861Y-29810D01*
X31741Y-29690D01*
X31585Y-29625D01*
X31511Y-29625D01*
X31418Y-29532D01*
X31318Y-29465D01*
X31250Y-29451D01*
X31241Y-29429D01*
X31171Y-29359D01*
X31080Y-29321D01*
X30981Y-29321D01*
X30841Y-29321D01*
X30891Y-29271D01*
X30929Y-29180D01*
X30929Y-29081D01*
X30930Y-29062D01*
X30868Y-29000D01*
X30550Y-29000D01*
X30550Y-29318D01*
X30572Y-29340D01*
X30529Y-29359D01*
X30500Y-29388D01*
X30471Y-29359D01*
X30427Y-29340D01*
X30450Y-29318D01*
X30450Y-29000D01*
X30132Y-29000D01*
X30070Y-29062D01*
X30071Y-29081D01*
X30071Y-29180D01*
X30109Y-29271D01*
X30159Y-29321D01*
X29921Y-29321D01*
X29916Y-29322D01*
X29911Y-29310D01*
X29791Y-29190D01*
X29635Y-29125D01*
X29466Y-29125D01*
X29310Y-29189D01*
X29190Y-29309D01*
X29125Y-29465D01*
X29125Y-29634D01*
X29189Y-29790D01*
X29309Y-29910D01*
X29465Y-29975D01*
X29541Y-29975D01*
X29542Y-29975D01*
X29598Y-30012D01*
X29631Y-30034D01*
X29632Y-30035D01*
X29718Y-30052D01*
X29557Y-30119D01*
X29431Y-30245D01*
X29362Y-30410D01*
X29362Y-30589D01*
X29430Y-30754D01*
X29556Y-30880D01*
X29721Y-30949D01*
X29900Y-30949D01*
X29991Y-30911D01*
X29991Y-32001D01*
X29601Y-32001D01*
X29550Y-32022D01*
X29550Y-31512D01*
X29550Y-31288D01*
X29549Y-31051D01*
X29511Y-30959D01*
X29441Y-30889D01*
X29350Y-30851D01*
X29251Y-30851D01*
X29012Y-30850D01*
X28950Y-30912D01*
X28950Y-31350D01*
X29488Y-31350D01*
X29550Y-31288D01*
X29550Y-31512D01*
X29488Y-31450D01*
X28950Y-31450D01*
X28950Y-31888D01*
X29012Y-31950D01*
X29251Y-31949D01*
X29350Y-31949D01*
X29441Y-31911D01*
X29511Y-31841D01*
X29549Y-31749D01*
X29550Y-31512D01*
X29550Y-32022D01*
X29509Y-32039D01*
X29439Y-32109D01*
X29410Y-32176D01*
X29350Y-32151D01*
X29251Y-32151D01*
X28451Y-32151D01*
X28409Y-32168D01*
X28341Y-32100D01*
X28250Y-32062D01*
X28151Y-32062D01*
X27975Y-32062D01*
X27954Y-32070D01*
X27935Y-32062D01*
X27836Y-32062D01*
X27660Y-32062D01*
X27639Y-32070D01*
X27620Y-32062D01*
X27587Y-32062D01*
X27582Y-32067D01*
X27582Y-32061D01*
X27524Y-32061D01*
X27637Y-31949D01*
X28199Y-31949D01*
X28291Y-31911D01*
X28325Y-31877D01*
X28359Y-31911D01*
X28450Y-31949D01*
X28549Y-31949D01*
X28788Y-31950D01*
X28850Y-31888D01*
X28850Y-31500D01*
X28850Y-31450D01*
X28850Y-31350D01*
X28850Y-31300D01*
X28850Y-30912D01*
X28788Y-30850D01*
X28549Y-30851D01*
X28450Y-30851D01*
X28400Y-30871D01*
X28400Y-30212D01*
X28400Y-29988D01*
X28399Y-29751D01*
X28361Y-29659D01*
X28291Y-29589D01*
X28200Y-29551D01*
X28101Y-29551D01*
X27862Y-29550D01*
X27800Y-29612D01*
X27800Y-30050D01*
X28338Y-30050D01*
X28400Y-29988D01*
X28400Y-30212D01*
X28338Y-30150D01*
X27800Y-30150D01*
X27800Y-30588D01*
X27862Y-30650D01*
X28101Y-30649D01*
X28200Y-30649D01*
X28291Y-30611D01*
X28361Y-30541D01*
X28399Y-30449D01*
X28400Y-30212D01*
X28400Y-30871D01*
X28359Y-30889D01*
X28325Y-30923D01*
X28291Y-30889D01*
X28200Y-30851D01*
X28101Y-30851D01*
X27700Y-30851D01*
X27700Y-30588D01*
X27700Y-30150D01*
X27700Y-30050D01*
X27700Y-29612D01*
X27638Y-29550D01*
X27399Y-29551D01*
X27300Y-29551D01*
X27209Y-29589D01*
X27175Y-29623D01*
X27141Y-29589D01*
X27050Y-29551D01*
X26951Y-29551D01*
X26712Y-29550D01*
X26650Y-29612D01*
X26650Y-30050D01*
X27162Y-30050D01*
X27188Y-30050D01*
X27700Y-30050D01*
X27700Y-30150D01*
X27188Y-30150D01*
X27162Y-30150D01*
X26650Y-30150D01*
X26650Y-30588D01*
X26712Y-30650D01*
X26951Y-30649D01*
X27050Y-30649D01*
X27141Y-30611D01*
X27175Y-30577D01*
X27209Y-30611D01*
X27300Y-30649D01*
X27399Y-30649D01*
X27638Y-30650D01*
X27700Y-30588D01*
X27700Y-30851D01*
X27301Y-30851D01*
X27209Y-30889D01*
X27175Y-30923D01*
X27141Y-30889D01*
X27050Y-30851D01*
X26951Y-30851D01*
X26550Y-30851D01*
X26550Y-30588D01*
X26550Y-30150D01*
X26550Y-30050D01*
X26550Y-29612D01*
X26488Y-29550D01*
X26249Y-29551D01*
X26150Y-29551D01*
X26059Y-29589D01*
X26025Y-29623D01*
X25991Y-29589D01*
X25900Y-29551D01*
X25801Y-29551D01*
X25562Y-29550D01*
X25500Y-29612D01*
X25500Y-30050D01*
X26012Y-30050D01*
X26038Y-30050D01*
X26550Y-30050D01*
X26550Y-30150D01*
X26038Y-30150D01*
X26012Y-30150D01*
X25500Y-30150D01*
X25500Y-30588D01*
X25562Y-30650D01*
X25801Y-30649D01*
X25900Y-30649D01*
X25991Y-30611D01*
X26025Y-30577D01*
X26059Y-30611D01*
X26150Y-30649D01*
X26249Y-30649D01*
X26488Y-30650D01*
X26550Y-30588D01*
X26550Y-30851D01*
X26151Y-30851D01*
X26059Y-30889D01*
X26025Y-30923D01*
X25991Y-30889D01*
X25900Y-30851D01*
X25801Y-30851D01*
X25400Y-30851D01*
X25400Y-30588D01*
X25400Y-30150D01*
X25400Y-30050D01*
X25400Y-29612D01*
X25338Y-29550D01*
X25099Y-29551D01*
X25000Y-29551D01*
X24909Y-29589D01*
X24839Y-29659D01*
X24801Y-29751D01*
X24800Y-29988D01*
X24862Y-30050D01*
X25400Y-30050D01*
X25400Y-30150D01*
X24862Y-30150D01*
X24800Y-30212D01*
X24801Y-30449D01*
X24839Y-30541D01*
X24909Y-30611D01*
X25000Y-30649D01*
X25099Y-30649D01*
X25338Y-30650D01*
X25400Y-30588D01*
X25400Y-30851D01*
X25001Y-30851D01*
X24909Y-30889D01*
X24839Y-30959D01*
X24801Y-31050D01*
X24801Y-31149D01*
X24801Y-31749D01*
X24839Y-31841D01*
X24909Y-31911D01*
X25000Y-31949D01*
X25099Y-31949D01*
X25899Y-31949D01*
X25991Y-31911D01*
X26025Y-31877D01*
X26059Y-31911D01*
X26150Y-31949D01*
X26249Y-31949D01*
X26712Y-31949D01*
X26825Y-32062D01*
X26715Y-32062D01*
X26694Y-32070D01*
X26675Y-32062D01*
X26576Y-32062D01*
X26400Y-32062D01*
X26379Y-32070D01*
X26360Y-32062D01*
X26261Y-32062D01*
X26085Y-32062D01*
X26064Y-32070D01*
X26045Y-32062D01*
X25946Y-32062D01*
X25770Y-32062D01*
X25678Y-32100D01*
X25608Y-32170D01*
X25570Y-32261D01*
X25570Y-32360D01*
X25570Y-33146D01*
X25574Y-33157D01*
X25563Y-33153D01*
X25464Y-33153D01*
X24678Y-33153D01*
X24586Y-33191D01*
X24516Y-33261D01*
X24478Y-33352D01*
X24478Y-33451D01*
X24478Y-33627D01*
X24485Y-33644D01*
X24478Y-33662D01*
X24478Y-33761D01*
X24478Y-33937D01*
X24487Y-33959D01*
X24478Y-33982D01*
X24478Y-34081D01*
X24478Y-34257D01*
X24485Y-34274D01*
X24478Y-34292D01*
X24478Y-34391D01*
X24478Y-34567D01*
X24485Y-34584D01*
X24478Y-34602D01*
X24478Y-34701D01*
X24478Y-34877D01*
X24487Y-34899D01*
X24478Y-34922D01*
X24478Y-35021D01*
X24478Y-35197D01*
X24487Y-35219D01*
X24478Y-35242D01*
X24478Y-35341D01*
X24478Y-35517D01*
X24487Y-35539D01*
X24478Y-35562D01*
X24478Y-35661D01*
X24478Y-35837D01*
X24516Y-35929D01*
X24586Y-35999D01*
X24677Y-36037D01*
X24776Y-36037D01*
X25562Y-36037D01*
X25563Y-36036D01*
X25563Y-36126D01*
X25563Y-36912D01*
X25601Y-37004D01*
X25671Y-37074D01*
X25762Y-37112D01*
X25861Y-37112D01*
X26037Y-37112D01*
X26059Y-37102D01*
X26082Y-37112D01*
X26181Y-37112D01*
X26357Y-37112D01*
X26379Y-37102D01*
X26402Y-37112D01*
X26501Y-37112D01*
X26677Y-37112D01*
X26694Y-37104D01*
X26712Y-37112D01*
X26811Y-37112D01*
X26901Y-37112D01*
X26952Y-37188D01*
X28181Y-38418D01*
X28182Y-38418D01*
X28282Y-38485D01*
X28400Y-38509D01*
X28672Y-38509D01*
X28891Y-38727D01*
X28891Y-38801D01*
X28751Y-38801D01*
X28659Y-38839D01*
X28589Y-38909D01*
X28551Y-39000D01*
X28551Y-39099D01*
X28551Y-39699D01*
X28589Y-39791D01*
X28659Y-39861D01*
X28750Y-39899D01*
X28849Y-39899D01*
X29649Y-39899D01*
X29741Y-39861D01*
X29800Y-39802D01*
X29859Y-39861D01*
X29950Y-39899D01*
X30049Y-39899D01*
X30849Y-39899D01*
X30941Y-39861D01*
X31000Y-39802D01*
X31059Y-39861D01*
X31150Y-39899D01*
X31249Y-39899D01*
X32049Y-39899D01*
X32141Y-39861D01*
X32200Y-39802D01*
X32259Y-39861D01*
X32350Y-39899D01*
X32449Y-39899D01*
X33249Y-39899D01*
X33341Y-39861D01*
X33400Y-39802D01*
X33459Y-39861D01*
X33550Y-39899D01*
X33649Y-39899D01*
X34449Y-39899D01*
X34541Y-39861D01*
X34600Y-39802D01*
X34659Y-39861D01*
X34750Y-39899D01*
X34849Y-39899D01*
X35649Y-39899D01*
X35741Y-39861D01*
X35811Y-39791D01*
X35849Y-39700D01*
X35849Y-40301D01*
X35811Y-40209D01*
X35741Y-40139D01*
X35650Y-40101D01*
X35551Y-40101D01*
X34751Y-40101D01*
X34659Y-40139D01*
X34600Y-40198D01*
X34541Y-40139D01*
X34450Y-40101D01*
X34351Y-40101D01*
X33551Y-40101D01*
X33459Y-40139D01*
X33400Y-40198D01*
X33341Y-40139D01*
X33250Y-40101D01*
X33151Y-40101D01*
X32351Y-40101D01*
X32259Y-40139D01*
X32200Y-40198D01*
X32141Y-40139D01*
X32050Y-40101D01*
X31951Y-40101D01*
X31151Y-40101D01*
X31059Y-40139D01*
X31000Y-40198D01*
X30941Y-40139D01*
X30850Y-40101D01*
X30751Y-40101D01*
X29951Y-40101D01*
X29859Y-40139D01*
X29800Y-40198D01*
X29741Y-40139D01*
X29650Y-40101D01*
X29551Y-40101D01*
X28751Y-40101D01*
X28659Y-40139D01*
X28589Y-40209D01*
X28551Y-40300D01*
X28551Y-40399D01*
X28551Y-40999D01*
X28589Y-41091D01*
X28659Y-41161D01*
X28689Y-41173D01*
X28232Y-41632D01*
X28165Y-41732D01*
X28150Y-41805D01*
X28111Y-41710D01*
X27991Y-41590D01*
X27835Y-41525D01*
X27666Y-41525D01*
X27510Y-41589D01*
X27390Y-41709D01*
X27375Y-41744D01*
X27361Y-41710D01*
X27241Y-41590D01*
X27085Y-41525D01*
X26916Y-41525D01*
X26760Y-41589D01*
X26640Y-41709D01*
X26575Y-41865D01*
X26575Y-42034D01*
X26639Y-42190D01*
X26691Y-42242D01*
X26691Y-45001D01*
X26551Y-45001D01*
X26459Y-45039D01*
X26400Y-45098D01*
X26341Y-45039D01*
X26250Y-45001D01*
X26151Y-45001D01*
X26109Y-45001D01*
X26109Y-42242D01*
X26160Y-42191D01*
X26225Y-42035D01*
X26225Y-41866D01*
X26161Y-41710D01*
X26041Y-41590D01*
X25885Y-41525D01*
X25716Y-41525D01*
X25560Y-41589D01*
X25440Y-41709D01*
X25375Y-41865D01*
X25375Y-42034D01*
X25439Y-42190D01*
X25491Y-42242D01*
X25491Y-45001D01*
X25351Y-45001D01*
X25259Y-45039D01*
X25189Y-45109D01*
X25151Y-45200D01*
X25151Y-45299D01*
X25151Y-45899D01*
X25189Y-45991D01*
X25259Y-46061D01*
X25350Y-46099D01*
X25449Y-46099D01*
X26249Y-46099D01*
X26341Y-46061D01*
X26400Y-46002D01*
X26459Y-46061D01*
X26550Y-46099D01*
X26649Y-46099D01*
X27449Y-46099D01*
X27541Y-46061D01*
X27600Y-46002D01*
X27659Y-46061D01*
X27750Y-46099D01*
X27849Y-46099D01*
X28649Y-46099D01*
X28741Y-46061D01*
X28811Y-45991D01*
X28849Y-45900D01*
X28849Y-45801D01*
X28849Y-45201D01*
X28811Y-45109D01*
X28741Y-45039D01*
X28650Y-45001D01*
X28551Y-45001D01*
X28287Y-45001D01*
X28059Y-44772D01*
X28059Y-42242D01*
X28110Y-42191D01*
X28141Y-42116D01*
X28141Y-42850D01*
X28165Y-42968D01*
X28171Y-42976D01*
X28171Y-43229D01*
X28209Y-43321D01*
X28279Y-43391D01*
X28370Y-43429D01*
X28469Y-43429D01*
X28829Y-43429D01*
X28921Y-43391D01*
X28950Y-43362D01*
X28979Y-43391D01*
X28991Y-43396D01*
X28991Y-44258D01*
X28940Y-44309D01*
X28875Y-44465D01*
X28875Y-44634D01*
X28939Y-44790D01*
X29059Y-44910D01*
X29215Y-44975D01*
X29384Y-44975D01*
X29540Y-44911D01*
X29592Y-44859D01*
X31427Y-44859D01*
X31425Y-44865D01*
X31425Y-45034D01*
X31489Y-45190D01*
X31609Y-45310D01*
X31765Y-45375D01*
X31934Y-45375D01*
X32090Y-45311D01*
X32142Y-45259D01*
X34700Y-45259D01*
X34700Y-45258D01*
X34818Y-45235D01*
X34918Y-45168D01*
X35418Y-44669D01*
X35418Y-44668D01*
X35485Y-44568D01*
X35508Y-44450D01*
X35509Y-44450D01*
X35509Y-42242D01*
X35560Y-42191D01*
X35625Y-42035D01*
X35625Y-41866D01*
X35561Y-41710D01*
X35509Y-41658D01*
X35509Y-41199D01*
X35649Y-41199D01*
X35741Y-41161D01*
X35811Y-41091D01*
X35849Y-41000D01*
X35849Y-53675D01*
X35500Y-53675D01*
X35376Y-53700D01*
X35200Y-53700D01*
X35200Y-53876D01*
X35175Y-54000D01*
X35175Y-52205D01*
X35175Y-51996D01*
X35095Y-51803D01*
X34948Y-51655D01*
X34755Y-51575D01*
X34546Y-51575D01*
X34353Y-51655D01*
X34205Y-51802D01*
X34125Y-51995D01*
X34125Y-52204D01*
X34205Y-52397D01*
X34352Y-52545D01*
X34545Y-52625D01*
X34754Y-52625D01*
X34947Y-52545D01*
X35095Y-52398D01*
X35175Y-52205D01*
X35175Y-54000D01*
X35175Y-54675D01*
X35169Y-54675D01*
X35169Y-54174D01*
X35158Y-53970D01*
X35102Y-53833D01*
X35011Y-53810D01*
X34940Y-53881D01*
X34940Y-53739D01*
X34917Y-53648D01*
X34724Y-53581D01*
X34520Y-53592D01*
X34383Y-53648D01*
X34360Y-53739D01*
X34650Y-54029D01*
X34940Y-53739D01*
X34940Y-53881D01*
X34721Y-54100D01*
X35011Y-54390D01*
X35102Y-54367D01*
X35169Y-54174D01*
X35169Y-54675D01*
X34940Y-54675D01*
X34940Y-54461D01*
X34650Y-54171D01*
X34579Y-54242D01*
X34579Y-54100D01*
X34289Y-53810D01*
X34198Y-53833D01*
X34131Y-54026D01*
X34142Y-54230D01*
X34198Y-54367D01*
X34289Y-54390D01*
X34579Y-54100D01*
X34579Y-54242D01*
X34360Y-54461D01*
X34383Y-54552D01*
X34576Y-54619D01*
X34780Y-54608D01*
X34917Y-54552D01*
X34940Y-54461D01*
X34940Y-54675D01*
X32175Y-54675D01*
X32175Y-52205D01*
X32175Y-51996D01*
X32095Y-51803D01*
X31948Y-51655D01*
X31755Y-51575D01*
X31546Y-51575D01*
X31353Y-51655D01*
X31205Y-51802D01*
X31125Y-51995D01*
X31125Y-52204D01*
X31205Y-52397D01*
X31352Y-52545D01*
X31545Y-52625D01*
X31754Y-52625D01*
X31947Y-52545D01*
X32095Y-52398D01*
X32175Y-52205D01*
X32175Y-54675D01*
X32169Y-54675D01*
X32169Y-54174D01*
X32158Y-53970D01*
X32102Y-53833D01*
X32011Y-53810D01*
X31940Y-53881D01*
X31940Y-53739D01*
X31917Y-53648D01*
X31724Y-53581D01*
X31520Y-53592D01*
X31383Y-53648D01*
X31360Y-53739D01*
X31650Y-54029D01*
X31940Y-53739D01*
X31940Y-53881D01*
X31721Y-54100D01*
X32011Y-54390D01*
X32102Y-54367D01*
X32169Y-54174D01*
X32169Y-54675D01*
X31940Y-54675D01*
X31940Y-54461D01*
X31650Y-54171D01*
X31579Y-54242D01*
X31579Y-54100D01*
X31289Y-53810D01*
X31198Y-53833D01*
X31131Y-54026D01*
X31142Y-54230D01*
X31198Y-54367D01*
X31289Y-54390D01*
X31579Y-54100D01*
X31579Y-54242D01*
X31360Y-54461D01*
X31383Y-54552D01*
X31576Y-54619D01*
X31780Y-54608D01*
X31917Y-54552D01*
X31940Y-54461D01*
X31940Y-54675D01*
X29875Y-54675D01*
X29875Y-52205D01*
X29875Y-51996D01*
X29795Y-51803D01*
X29648Y-51655D01*
X29455Y-51575D01*
X29246Y-51575D01*
X29053Y-51655D01*
X28905Y-51802D01*
X28849Y-51937D01*
X28849Y-47200D01*
X28849Y-47101D01*
X28849Y-46501D01*
X28811Y-46409D01*
X28741Y-46339D01*
X28650Y-46301D01*
X28551Y-46301D01*
X27751Y-46301D01*
X27659Y-46339D01*
X27600Y-46398D01*
X27541Y-46339D01*
X27450Y-46301D01*
X27351Y-46301D01*
X26551Y-46301D01*
X26459Y-46339D01*
X26400Y-46398D01*
X26341Y-46339D01*
X26250Y-46301D01*
X26151Y-46301D01*
X25351Y-46301D01*
X25259Y-46339D01*
X25189Y-46409D01*
X25151Y-46500D01*
X25151Y-46599D01*
X25151Y-47199D01*
X25189Y-47291D01*
X25259Y-47361D01*
X25350Y-47399D01*
X25449Y-47399D01*
X25491Y-47399D01*
X25491Y-47496D01*
X25515Y-47614D01*
X25582Y-47714D01*
X25944Y-48076D01*
X25944Y-48410D01*
X25982Y-48502D01*
X26052Y-48572D01*
X26143Y-48610D01*
X26242Y-48610D01*
X26596Y-48610D01*
X26684Y-48573D01*
X26773Y-48610D01*
X26872Y-48610D01*
X27226Y-48610D01*
X27314Y-48573D01*
X27403Y-48610D01*
X27502Y-48610D01*
X27856Y-48610D01*
X27948Y-48572D01*
X28018Y-48502D01*
X28056Y-48411D01*
X28056Y-48312D01*
X28056Y-48076D01*
X28418Y-47715D01*
X28418Y-47714D01*
X28485Y-47614D01*
X28508Y-47496D01*
X28509Y-47496D01*
X28509Y-47399D01*
X28649Y-47399D01*
X28741Y-47361D01*
X28811Y-47291D01*
X28849Y-47200D01*
X28849Y-51937D01*
X28825Y-51995D01*
X28825Y-52204D01*
X28905Y-52397D01*
X29052Y-52545D01*
X29245Y-52625D01*
X29454Y-52625D01*
X29647Y-52545D01*
X29795Y-52398D01*
X29875Y-52205D01*
X29875Y-54675D01*
X29869Y-54675D01*
X29869Y-54174D01*
X29858Y-53970D01*
X29802Y-53833D01*
X29711Y-53810D01*
X29640Y-53881D01*
X29640Y-53739D01*
X29617Y-53648D01*
X29424Y-53581D01*
X29220Y-53592D01*
X29083Y-53648D01*
X29060Y-53739D01*
X29350Y-54029D01*
X29640Y-53739D01*
X29640Y-53881D01*
X29421Y-54100D01*
X29711Y-54390D01*
X29802Y-54367D01*
X29869Y-54174D01*
X29869Y-54675D01*
X29640Y-54675D01*
X29640Y-54461D01*
X29350Y-54171D01*
X29279Y-54242D01*
X29279Y-54100D01*
X28989Y-53810D01*
X28898Y-53833D01*
X28831Y-54026D01*
X28842Y-54230D01*
X28898Y-54367D01*
X28989Y-54390D01*
X29279Y-54100D01*
X29279Y-54242D01*
X29060Y-54461D01*
X29083Y-54552D01*
X29276Y-54619D01*
X29480Y-54608D01*
X29617Y-54552D01*
X29640Y-54461D01*
X29640Y-54675D01*
X28057Y-54675D01*
X28057Y-50146D01*
X28057Y-49922D01*
X28056Y-49788D01*
X28056Y-49689D01*
X28018Y-49598D01*
X27948Y-49528D01*
X27856Y-49490D01*
X27742Y-49489D01*
X27680Y-49551D01*
X27680Y-49984D01*
X27995Y-49984D01*
X28057Y-49922D01*
X28057Y-50146D01*
X27995Y-50084D01*
X27680Y-50084D01*
X27680Y-50517D01*
X27742Y-50579D01*
X27856Y-50578D01*
X27948Y-50540D01*
X28018Y-50470D01*
X28056Y-50379D01*
X28056Y-50280D01*
X28057Y-50146D01*
X28057Y-54675D01*
X27580Y-54675D01*
X27580Y-50517D01*
X27580Y-50084D01*
X27580Y-49984D01*
X27580Y-49551D01*
X27518Y-49489D01*
X27404Y-49490D01*
X27315Y-49526D01*
X27226Y-49490D01*
X27112Y-49489D01*
X27050Y-49551D01*
X27050Y-49984D01*
X27265Y-49984D01*
X27365Y-49984D01*
X27580Y-49984D01*
X27580Y-50084D01*
X27365Y-50084D01*
X27265Y-50084D01*
X27050Y-50084D01*
X27050Y-50517D01*
X27112Y-50579D01*
X27226Y-50578D01*
X27315Y-50541D01*
X27404Y-50578D01*
X27518Y-50579D01*
X27580Y-50517D01*
X27580Y-54675D01*
X26950Y-54675D01*
X26950Y-50517D01*
X26950Y-50084D01*
X26950Y-49984D01*
X26950Y-49551D01*
X26888Y-49489D01*
X26774Y-49490D01*
X26685Y-49526D01*
X26596Y-49490D01*
X26482Y-49489D01*
X26420Y-49551D01*
X26420Y-49984D01*
X26635Y-49984D01*
X26735Y-49984D01*
X26950Y-49984D01*
X26950Y-50084D01*
X26735Y-50084D01*
X26635Y-50084D01*
X26420Y-50084D01*
X26420Y-50517D01*
X26482Y-50579D01*
X26596Y-50578D01*
X26685Y-50541D01*
X26774Y-50578D01*
X26888Y-50579D01*
X26950Y-50517D01*
X26950Y-54675D01*
X26875Y-54675D01*
X26875Y-52205D01*
X26875Y-51996D01*
X26795Y-51803D01*
X26648Y-51655D01*
X26455Y-51575D01*
X26320Y-51575D01*
X26320Y-50517D01*
X26320Y-50084D01*
X26320Y-49984D01*
X26320Y-49551D01*
X26258Y-49489D01*
X26144Y-49490D01*
X26052Y-49528D01*
X25982Y-49598D01*
X25944Y-49689D01*
X25944Y-49788D01*
X25943Y-49922D01*
X26005Y-49984D01*
X26320Y-49984D01*
X26320Y-50084D01*
X26005Y-50084D01*
X25943Y-50146D01*
X25944Y-50280D01*
X25944Y-50379D01*
X25982Y-50470D01*
X26052Y-50540D01*
X26144Y-50578D01*
X26258Y-50579D01*
X26320Y-50517D01*
X26320Y-51575D01*
X26246Y-51575D01*
X26053Y-51655D01*
X25905Y-51802D01*
X25825Y-51995D01*
X25825Y-52204D01*
X25905Y-52397D01*
X26052Y-52545D01*
X26245Y-52625D01*
X26454Y-52625D01*
X26647Y-52545D01*
X26795Y-52398D01*
X26875Y-52205D01*
X26875Y-54675D01*
X26869Y-54675D01*
X26869Y-54174D01*
X26858Y-53970D01*
X26802Y-53833D01*
X26711Y-53810D01*
X26640Y-53881D01*
X26640Y-53739D01*
X26617Y-53648D01*
X26424Y-53581D01*
X26220Y-53592D01*
X26083Y-53648D01*
X26060Y-53739D01*
X26350Y-54029D01*
X26640Y-53739D01*
X26640Y-53881D01*
X26421Y-54100D01*
X26711Y-54390D01*
X26802Y-54367D01*
X26869Y-54174D01*
X26869Y-54675D01*
X26640Y-54675D01*
X26640Y-54461D01*
X26350Y-54171D01*
X26279Y-54242D01*
X26279Y-54100D01*
X25989Y-53810D01*
X25898Y-53833D01*
X25831Y-54026D01*
X25842Y-54230D01*
X25898Y-54367D01*
X25989Y-54390D01*
X26279Y-54100D01*
X26279Y-54242D01*
X26060Y-54461D01*
X26083Y-54552D01*
X26276Y-54619D01*
X26480Y-54608D01*
X26617Y-54552D01*
X26640Y-54461D01*
X26640Y-54675D01*
X25825Y-54675D01*
X25825Y-54000D01*
X25800Y-53876D01*
X25800Y-53700D01*
X25624Y-53700D01*
X25500Y-53675D01*
X24325Y-53675D01*
X24325Y-27825D01*
X24675Y-27825D01*
X24675Y-28500D01*
X24700Y-28624D01*
X24700Y-28800D01*
X24876Y-28800D01*
X25000Y-28825D01*
X30070Y-28825D01*
X30070Y-28838D01*
X30132Y-28900D01*
X30400Y-28900D01*
X30450Y-28900D01*
X30550Y-28900D01*
X30600Y-28900D01*
X30868Y-28900D01*
X30930Y-28838D01*
X30929Y-28825D01*
X36000Y-28825D01*
X36124Y-28800D01*
X36300Y-28800D01*
X36300Y-28624D01*
X36325Y-28500D01*
X36325Y-27825D01*
X36675Y-27825D01*
X36675Y-53675D01*
M02*
