M48
METRIC,TZ
T1C0.635
T2C0.813
T3C1.016
%
G90
G05
T1
X65532Y-106553
X66040Y-88265
X68580Y-106553
X70231Y-89535
X70358Y-86106
X70485Y-106553
X73406Y-79756
X73533Y-92583
X74422Y-113157
X74803Y-105410
X75057Y-75057
X78105Y-112141
X78740Y-105537
X79629Y-74041
X80010Y-76327
X80899Y-114173
X81280Y-105537
X81788Y-110998
X83312Y-106553
X86360Y-89154
X86360Y-106553
X89408Y-106553
T2
X66929Y-132334
X66929Y-137414
X74549Y-132334
X74549Y-137414
X80391Y-132334
X80391Y-137414
X88011Y-132334
X88011Y-137414
T3
X75720Y-77470
X79220Y-77470
T0
M30
